<svg id="Layer_1" data-name="Layer 1" xmlns="http://www.w3.org/2000/svg" viewBox="0 0 150 150"><defs><style>.cls-1{fill:#fff;}.cls-2{fill:#e94795;}</style></defs><title>Artboard 1</title><g id="animal"><circle class="cls-1" cx="75" cy="75" r="70.43"/><path class="cls-2" d="M37.57,101.51s1.16-10.34,12-10.34,12,9.68,12,9.68,12.34,6.16,6,18.46S49,123.15,49,123.15s-10.8,7.63-18.3-4.34C30.73,118.81,25.6,106.18,37.57,101.51Z"/><ellipse class="cls-2" cx="26.06" cy="91.17" rx="6.44" ry="8.52" transform="translate(-17 6.69) rotate(-11.05)"/><ellipse class="cls-2" cx="72.71" cy="90.76" rx="8.52" ry="6.44" transform="translate(-30.43 144.49) rotate(-78.82)"/><ellipse class="cls-2" cx="59.63" cy="77.11" rx="8.5" ry="11.26"/><ellipse class="cls-2" cx="40.12" cy="77.11" rx="8.5" ry="11.26"/><path class="cls-2" d="M88.88,58s1.17-10.34,12-10.34,12,9.67,12,9.67,12.34,6.17,6,18.47-18.47,3.84-18.47,3.84S89.55,87.21,82,75.25C82,75.25,76.92,62.62,88.88,58Z"/><ellipse class="cls-2" cx="77.38" cy="47.61" rx="6.44" ry="8.52" transform="translate(-7.69 15.72) rotate(-11.05)"/><ellipse class="cls-2" cx="124.02" cy="47.2" rx="8.52" ry="6.44" transform="translate(53.67 159.71) rotate(-78.82)"/><ellipse class="cls-2" cx="110.95" cy="33.54" rx="8.5" ry="11.26"/><ellipse class="cls-2" cx="91.44" cy="33.54" rx="8.5" ry="11.26"/></g></svg>