<svg id="Layer_1" data-name="Layer 1" xmlns="http://www.w3.org/2000/svg" viewBox="0 0 3379 3379"><defs><style>.cls-1{fill:#fff;}.cls-2{fill:#e94795;}</style></defs><title>animal</title><g id="animal"><circle class="cls-1" cx="1689.5" cy="1689.5" r="1689.5"/><path class="cls-2" d="M1025.5,2475.5s28-248,287-248,287,232,287,232,296,148,144,443-443,92-443,92-259,183-439-104C861.5,2890.5,738.5,2587.5,1025.5,2475.5Z" transform="translate(-234 -150)"/><ellipse class="cls-2" cx="749.5" cy="2227.5" rx="154.5" ry="204.5" transform="translate(-647.14 35.01) rotate(-11.05)"/><ellipse class="cls-2" cx="1868.5" cy="2217.5" rx="204.5" ry="154.5" transform="translate(-903.21 3470.57) rotate(-78.82)"/><ellipse class="cls-2" cx="1320.79" cy="1740" rx="203.99" ry="270"/><ellipse class="cls-2" cx="852.8" cy="1740" rx="203.99" ry="270"/><path class="cls-2" d="M2256.5,1430.5s28-248,287-248,287,232,287,232,296,148,144,443-443,92-443,92-259,183-439-104C2092.5,1845.5,1969.5,1542.5,2256.5,1430.5Z" transform="translate(-234 -150)"/><ellipse class="cls-2" cx="1980.5" cy="1182.5" rx="154.5" ry="204.5" transform="translate(-423.97 251.63) rotate(-11.05)"/><ellipse class="cls-2" cx="3099.5" cy="1172.5" rx="204.5" ry="154.5" transform="translate(1114.27 3835.83) rotate(-78.82)"/><ellipse class="cls-2" cx="2551.79" cy="695" rx="203.99" ry="270"/><ellipse class="cls-2" cx="2083.8" cy="695" rx="203.99" ry="270"/></g></svg>