<svg xmlns="http://www.w3.org/2000/svg" viewBox="0 0 501.08 792"><defs><style>.cls-1{fill:#fadec3;}.cls-2{fill:#501719;}.cls-3{fill:#e5383e;stroke-width:2px;}.cls-3,.cls-4{stroke:#c92127;}.cls-10,.cls-14,.cls-15,.cls-19,.cls-20,.cls-3,.cls-4,.cls-6,.cls-7,.cls-9{stroke-miterlimit:10;}.cls-10,.cls-19,.cls-20,.cls-4,.cls-6,.cls-9{fill:none;}.cls-5{fill:#b8b8dc;}.cls-6{stroke:#6c5c9a;}.cls-7{fill:#c3dfce;stroke:#5bb598;}.cls-8{fill:#1b9e89;}.cls-9{stroke:#0f5648;}.cls-10{stroke:#48bc9d;}.cls-11{fill:#7a2b17;}.cls-12{fill:#e3a5a5;}.cls-13,.cls-14{fill:#fff;}.cls-14,.cls-19,.cls-20{stroke:#e7b5a0;}.cls-14,.cls-20{stroke-width:0.5px;}.cls-15{fill:#38c2e9;stroke:#084b6d;}.cls-15,.cls-19{stroke-width:0.2px;}.cls-16{fill:#0a4b6d;}.cls-17{fill:#231f20;}.cls-18{fill:#e7b5a0;}</style></defs><title>princesses</title><g id="Ariel"><path id="Skin" class="cls-1" d="M219,63.26s-6.17,18.94-56.41,21c0,0,.94,10,3.21,12.11,0,0,8.54,13.17,9.27,13.5s-2.59,11.85,2.45,18.54c0,0,24.28,30.55,30.83,25.77l-2.63,5.21-15.77-1.68s-12.55-2.41-19.23,5.31l-4.15,5.64s-3.42,12.56.68,17.18c0,0,3.25,17,4.62,17.66,0,0,18.92-13.51,23.53,5.11,0,0,27-15.12,39.62-11.71,0,0,41.37,6.75,41.53,1.25,0,0-3-14.78-9.28-17.29,0,0-19-14.31-21.22-18.86v-8.65l-.78-25L245.08,107s7.86-.31,6.92-7.38l-12.11-6.13-3.61,7.86L234.86,91S218.64,80.68,219,63.26Z"/><path id="Left_hand" data-name="Left hand" class="cls-1" d="M86.67,245.44s2.12-22.42,0-25.4c0,0-3.59-24-3.37-26.9,0,0-.65-4.06-2-5.23L67.91,169.8s-1.42-4.5-3.22-.77c0,0-1.93,4.63,1.67,10.29,0,0-11.38-8.67-11.89-6,0,0-1.25,3.15.37,4.84,0,0-1.76,1.9-.3,3.81,0,0,11.56,11.62,10.51,17.89,0,0-15.14-10.84-16.58-8,0,0-1.17,2.48,2.87,5.22,0,0,12.41,6.13,11.88,16.06,0,0,1,15.27,10.06,21.54Z"/><polygon class="cls-2" points="248.26 147.75 238.82 160.69 261.75 181 275.52 159.29 248.26 147.75"/><path id="Hair" class="cls-3" d="M232.92,25.1s-20-27.62-65,15.15c0,0-23.95,9-27.92,25.42,0,0-11.44,28.52,0,35.7a33.49,33.49,0,0,0,12.24,3.85s14.09.27,11.16,7.84c0,0-.93,12.77-14.22,21.27l-31.57,17.5S103.1,158,106.16,173c0,0,10.52,10.29,3.57,13,0,0-12.86,6.95-4.66-4l.11-1.59s-5.81-2.05-6.83,2.28c0,0-3.19,9.68,7.51,9.56,0,0,13.44-2.62,12.19-14.46,0,0-4.9-12.07,1.14-17.65,0,0,13.89-6.27,18.67-4.44,0,0-25.18,24.13-22,43.93,0,0,2.66,11.15,4.07,18.57,0,0,3.74,14.17-2.14,11,0,0-5.2-.69-4-7.65,0,0,2-2.65,2,1.47,0,0,.1,2.35-.49,1.47,0,0,3.33,3.82,3.53-.49,0,0,.59-8.43-6.47-7.16,0,0-8.92,7-4,15.59,0,0,6.37,14.51,21.08,0,0,0-5.05-7.89,1.37-21.69,0,0,3.05-5.78,7.06-6.74,0,0,22.79-19.9,22.79-26.48,0,0-.32-11.63,6.9-10.07,0,0,6.9-11.59,14-10.31,0,0,23.27,3,24.56,1.77l2.89-5.3s-6.1,2.25-13.65-7.38c0,0-20.78-15.39-20.78-24.34l.5-13.27s-13.06-12.88-12.91-25c0,0,44.53,1.22,55.95-20.59l1.56-.17s-.26,14.83,7.8,20.4l6.26,6.74,1.85,11.64,4.25-7.67,10.82,5.12s2.1,4.93-2.63,7.49l-3.55,21s-2,8-3.55,9.41c0,0-3.36,10.26,4.54,15.39,0,0,22.29,17.56,11.83,31.17,0,0-17.75,17-19.33-4.94,0,0,.39-6.7,6.9-4.14,0,0-.79-8.68-10.06-1.58,0,0-8.48,14.8-1.38,21.11,0,0,11.05,14.4,27.62-4.54l6.51-9.27s10.72,11.68,9.32,18.66c0,0,4.64.27,1.78,9.89l-45.72,58.41s-22.57,14.54-8.42,31l32.15,47.45s13.39-18.5,12-23.52c0,0,4.25,33.43,20.1,9.08,0,0-12,2.13-9.28-6.38l6.57-6.57s44.26-19.9,45.42-32.46c0,0,8.31-26.28,7.15-27.83,0,0,5.24,16,.11,25.9,0,0-7.88,10.78-10.55,10.82,0,0,18,2.7,20.68-18.94,0,0,1.54-22.8-1.74-28.41,0,0,35,15.07,27.83-18.55,0,0-2.9-13.72-14.69-4.64,0,0,6.46,1.55,6.22,3.29,0,0,4.6,25.31-12.79,13.14,0,0-9.28-4.64-5.8-26.67,0,0,14.73-23.67,8.52-44.64a54.35,54.35,0,0,0-18.2-24.88s13.27-17.49-18.07-44.4c0,0-34.75-12.27-40.2-26.24C279.87,73.77,261.26,18.67,232.92,25.1Z"/><g id="hair_detail" data-name="hair detail"><path class="cls-4" d="M226.19,67.18s19,24.26,42.08,30.39"/><path class="cls-4" d="M226.19,60.46s13.15,12,21,10.81c0,0,22.79,1.17,22.79,7"/><path class="cls-4" d="M226.19,34.75S216,45.27,192.3,41.47"/><path class="cls-4" d="M204.57,52.86S165.7,47,152.85,60.46"/><path class="cls-4" d="M214.21,53.74S191.42,68.06,178.71,66"/><path class="cls-4" d="M185.57,62.51s-32.14-7.31-47.92,19.87"/><path class="cls-4" d="M210.7,64s-18.4,10.21-30.39,8-26,3.36-26,3.36"/><path class="cls-4" d="M235,34.75s19.56,7.6,19.72,14.32"/><path class="cls-4" d="M236.71,38.52s7.45,4.12,8.11,7.62"/><path class="cls-4" d="M253.07,84.42s50,3.51,50.85,44.71"/><path class="cls-4" d="M279.66,129.13s16.08,32.14,31.85,32.14"/><path class="cls-4" d="M272.07,142.86s7.3,21.63,39.44,38.58"/><path class="cls-4" d="M250.54,148.42s18.61,24.54,13.35,29.51"/><path class="cls-4" d="M284.34,120.07s5.55,22.5,33.31,27.18c0,0,38.57,20.16,18.7,54.06"/><path class="cls-4" d="M334.89,147s-24.84-8.76-25.71-11.1"/><path class="cls-4" d="M311.51,110.43c-.58,6.72,11.69,30.68,21.92,32.43"/><path class="cls-4" d="M303.92,212.12s-.59-22.8-10.81-25.72c0,0-25.72-21-24.84-28.93"/><path class="cls-4" d="M303.92,252.73s19.28-26.88,18.11-33.6"/><path class="cls-4" d="M322.46,208.9c1-.87.16-17.82-2.47-18.11"/><path class="cls-4" d="M342,244s-18.54-6.72-13-17.54"/><path class="cls-4" d="M340.15,235.93s-3.21-13.29,4.38-20.89"/><path class="cls-4" d="M315.61,247.18s-2.93,39.16-17.24,44.12"/><path class="cls-4" d="M307,295.69s19.11-2.92,21-12.27"/><path class="cls-4" d="M286.08,215s6.73-11.69,3.52-19.29"/><path class="cls-4" d="M243.43,309.42s-7.3-12-3.8-26"/><path class="cls-4" d="M230.87,298.9s-2.63-14,0-17.82"/><path class="cls-4" d="M250.54,314.1s-9.15-23.38,1.37-22.8"/><path class="cls-4" d="M258.63,329s4.67-12,0-17.53"/><path class="cls-4" d="M275,329s-5.55-7.89-1.75-13.15"/><line class="cls-4" x1="234.96" y1="28.03" x2="232.62" y2="24.23"/><path class="cls-4" d="M164,133.81s-.88,21-7,29.51c0,0-9.94,16.36-7.89,23.67"/><path class="cls-4" d="M150.22,160.4,128,187s-9.64,11.69,0,21.62"/><path class="cls-4" d="M111.94,165.66s.58-8.48,8.18-9.06"/><path class="cls-4" d="M191.13,154.84s4.38-1.46,3.79-3.79"/><line class="cls-4" x1="181.19" y1="156.6" x2="181.19" y2="149.58"/><path class="cls-4" d="M165.7,110.72s7.89,6.72,6.73,12"/></g><g id="Earrings"><path class="cls-5" d="M244.53,113.8s-2.82.09,0-8.27a1.51,1.51,0,0,1,2.18-.54s6.27,3.63,5.45,5c0,0,4.81-1.64,7.9.9,0,0,8.26,5.18,2.18,9.36,0,0-1.91,1.18-2.82,0,0,0,1.09,3-.36,4.18,0,0-3.5,2.08-4.38-1.91,0,0,1.75,6-3.07,4.08a2.92,2.92,0,0,1-2.81-1.54s-1.91,2.39-3.91,1.92c0,0-2.9.53-2.63-3,0,0-5.45,1.82-2.63-2.81C239.63,121.16,239.08,117.25,244.53,113.8Z"/><path class="cls-5" d="M182.25,135.23s-4,.9-3.11,3.73c0,0-.55,2.7,1.49,2.7a2.8,2.8,0,0,0,2.86,2.9s.62,2.21,3.59,1.52c0,0,1.32,2.77,4.08.76,0,0,2.7,2.84,2.49-1.52Z"/><g id="Earring_highlights" data-name="Earring highlights"><path class="cls-6" d="M244.54,113.19s5.48,2.22,7.43-2.87"/><line class="cls-6" x1="259.15" y1="117.36" x2="254.68" y2="113.67"/><line class="cls-6" x1="256.02" y1="119.58" x2="250.54" y2="115.93"/><line class="cls-6" x1="248.84" y1="122.32" x2="247.67" y2="117.36"/></g></g><g id="Dress"><g id="Top"><path class="cls-7" d="M86.67,220s2.9,19.32,0,25.4c0,0-2.12,1.42-1.8-1.44,0,0-1.65,2.14,2.74,3,0,0,47.54,44.94,58.1,32.76,0,0,10.21-10,10.21-11.64,0,0,5.73,3.76,5.91,1.62,0,0-5.91-24.35-4.84-28.47,0,0-3-15.58-2.32-19.7,0,0-17.16-21.72,7.16-31.77,0,0-.57-4.57,0-7,0,0,8.43,20.06,13.51,22.69,0,0,5.26,9.64,31.22,1.22,0,0,31.92-5.78,38.93-3.15,0,0-7.52,13-6.67,18.91,0,0-4.25,21.9-7.44,26.57,0,0-3.19,13.39,1.49,17.22,0,0,9.82,20.45,21.81,18,0,0-.56,20.5,19.36,28.6,0,0,18.82,9.35,34,10.67,0,0-1.46-4.7,14.61-15.87,0,0-11.79.18-12-.63l-24-19.57s15.14-1,12.34-24.51c0,0,2.8-13.66-3.51-18.22,0,0,.48-24.85-6.5-24.22,0,0-11.4-8.85-10.83-12,0,0,5.08-13-2.12-9.47,0,0-11.85,3.66-21.38-1.29,0,0-30.65-4.29-45.5,1.65l-13.36,4.47s-22,1-25.83-15.64c0,0-6.82-9.24-2.87-19.91,0,0-7-1.94-6.14,9.8,0,0-2.48,6.43-5,7.45L137.3,204.42s-15.05,11-8.92,28.79c0,0,6.67,12.36,11.09,12.65,0,0-2.87,2.07-1.74,3.57,0,0-19.67-9.37-21.92-9,0,0-18.73-8.06-21.54-13.11l-7.8-8.62Z"/><path class="cls-8" d="M161.83,189.84v-7s9.13,26,21.58,27c0,0,16,.43,21.21-2.44,0,0,36.85-6.81,40.87-3.76,0,0-5.85,10.66-6.67,16.8l-3.89,19-3.55,9.71s-3.33,12.66,1.49,17.22c0,0-12.68,13.84-11.5,25.44,0,0-5.31,11-22.41,16.12,0,0-30.28,17.89-33.62,25.75,0,0-8.8-26.34-3.51-40.89,0,0,3.17-15.22,0-22.94,0,0-5.48-26.47-4.84-28.47,0,0-3.22-16.52-2.32-19.7,0,0-7.57-11.14-5.82-17C148.85,204.62,147.49,194.69,161.83,189.84Z"/></g><g id="Skirt"><path class="cls-8" d="M452.58,388.31l16.33-3.48,2.32,5.53v11.28l4,26.21s7.17,3.75.91,12.21L468.78,453s-1.59,13,.86,14.35c0,0,27.73,16.19,23.93,27.73,0,0-8.87,22.1-6.46,26.16,0,0,12.69,21.55,10.31,35.37,0,0,0,19.29-15.25,32.63l-33.59,25.25-14.37-11.13Z"/><path class="cls-7" d="M454.86,388.31s27.24,13.29,27.24,17.22c0,0,2.94,15.21-6.87,22.32,0,0-13.74,18.16-17.66,14.48,0,0,26.16,11.53,11.12,23.55,0,0-10.14,2.21,3.11,12.51,0,0,17.75,10.8,10.71,25.52,0,0-10.6,23.79-8.82,27.72,0,0,4.48,19.38,5.47,20.85,0,0,1.47,28-12.27,36.8L447,608.41s29,19.63,23.06,28.71c0,0-3.19,14.23-24.29,21.1,0,0,20.36,11.28,13,19.87,0,0,.25,5.89-7.85,10.06,0,0,17.19,11-.36,27L399.13,684l-14.86-21.72,24.39-57.93L459,565.14,425,497.68l-22.1-59.45,27.82-45.73Z"/><path class="cls-7" d="M370.46,715.13,337,757.25s-4.33,15.07,38-3.84l14.26-9.91s.41,15.34,18.48,6.92c0,0,25.45-7.8,32.77-22.5l-10.45-24-21-4Z"/><path class="cls-7" d="M229.35,786.2s8.19,10,36.14,0l40.93-15,11.51-55L270.6,720l-41.25,33.4V786.2Z"/><path class="cls-8" d="M163.72,343.13s-14.64,15.06-15.13,28.37c0,0-16.72,118.93-37.19,117.2,0,0-18.24,46.59-17.25,68.53,0,0,.49,28.72-41.08,32.26,0,0-20.2,78.74-25.69,82.66,0,0-17.25,31.36,3.92,54.88,0,0,17.25,46.26,112.91,35.29,0,0,95.65,55.66,120,7,0,0-57.05,24.31-13.63-25.87,0,0,83.41-56.46,49.7,0,0,0-23.86,32.73-6.81,32.73,0,0,35.95,4.61,69.6-35,0,0,74.66-60.37,64.52-18.89,0,0,6.51,7.37.95,8.75,0,0-30,13.37-20.76,19.36,1.59,2.79,46-19.66,43.78-39.64,0,0,9.18-19.27-9.81-14,0,0-17.67,4.58-22.91-17,0,0-34.69,5.89-22.26-35.35,0,0,95.84-68.68,67.19-114.5,0,0-50.73-55.65-49.91-74.47,0,0,6.54-53.19,32.73-63.83,0,0,29.07-14.06,24.45,4.42,0,0,13.88-8.57-21.36-30.28,0,0-26.69-16.37-44.48-17.79,0,0-39.86-5.34-46.63-22.78l-15.88-18.6-5.44-7-5.37,7.11,1.15,13.3,2.55,5.8s3,16.46-3.48,25.28l27.41,60.87,33.91,85.79s1.4,92.28-6.88,106.76c0,0-9.31,7.24-11.38,24.82,0,0-3.1,41.89-16,46.55,0,0-26.37,23.27-40.85,16.55,0,0-20.17-4.14-32.58-29.48,0,0-56.37-12.41-55.34-36.2a96.24,96.24,0,0,1-5.68-41.37s5.31-52.35,1.17-60.1c0,0-34.33-35.25-34.85-55.42Z"/><path class="cls-7" d="M165.34,333.61s-7.39-24.29-4.24-38.43c0,0,4.05-7.78-2.08-3.92,0,0-4.53,2.27-3.63,9.76,0,0-31.31,48.09-34.26,60.12,0,0-54.22,132.73-57.56,163.22,0,0-19.06,55.74-36.68,65.74,0,0-33.34,18.58,0,71l4.75,2.38,21.43-74s41.45,2.26,41.6-42L111.4,488.7s20.62-1.35,26.89-48.55c0,0,15-91.49,25.43-97L174.11,396s8.5,87.85,18.33,96.6c0,0,20.76,30.43,27,35.3s4.79,45.22,4.79,45.22-2.29,37.73,6.07,53.56c0,0,.79,23.66,55.34,36.2,0,0,15.3,28.12,32.58,29.48,0,0,18,5.42,40.85-16.55,0,0,15.29-5.43,16-46.55,0,0,3.25-23.54,11.38-24.82,0,0,12.2-68.19,6.88-106.76l-33.91-85.79L332.06,351s5.32-3.72,3.48-25.28c0,0-2.86-1.8-12.93,10.75,0,0-6.14,14.38-4.84,22.23,0,0-13.07,23.27-16.21,22.23,0,0-22.27-2.49-28.63-18.8,0,0-30.72-51.86-48-63.87,0,0-1.79-14.89-3.59-6.54,0,0-6.27,11-22.41,16.12C199,307.86,165.74,327.41,165.34,333.61Z"/></g><path id="shell" class="cls-5" d="M176.38,207.78s-5.52,5.88,1,8c0,0,9.12,5.16,8.16-4,0,0,13.68.66,13.68-4.5,0,0,1.2-3.24-3.84-1.44,0,0,3.24-10-4.44-7.55,0,0-.36-7.44-6.36-2.64,0,0-5.64-4.2-5.4,1.44,0,0-3.36-1.92-3.48,2,0,0-4.92-.84-3.6,1.68Z"/><g id="Dress_highlights" data-name="Dress highlights"><path class="cls-9" d="M140.65,759.79s-38.54-108.91,0-177.61"/><path class="cls-9" d="M234.49,773.2s-25.14-85.46-36.87-94.67"/><path class="cls-9" d="M216.05,657.58s-70.37-49.43-57-132.37"/><path class="cls-9" d="M179.83,458.19s-20.18,47.43-18.67,51"/><path class="cls-9" d="M247.31,678.53s78.76,25.85,61,53.36"/><path class="cls-9" d="M430.17,717.86s10.79-10.24-18.34-20.49l-41-18.84"/><path class="cls-9" d="M379.62,370.86s29.09,92.14,33,96"/><path class="cls-9" d="M343.73,324.3s3.88,35.89,11.64,42.68"/><path class="cls-9" d="M337.91,345.64S399,446.51,390.29,478.52"/><path class="cls-9" d="M178.27,217.26s-14.53,30.83-8.86,48.9"/><line class="cls-9" x1="180.04" y1="228.95" x2="188.9" y2="251.27"/><line class="cls-9" x1="184.47" y1="222.57" x2="196.69" y2="247.38"/><line class="cls-9" x1="188.9" y1="219.74" x2="211.57" y2="231.43"/><line class="cls-9" x1="194.57" y1="217.26" x2="207.32" y2="222.57"/><line class="cls-9" x1="173.18" y1="205.57" x2="161.26" y2="202.73"/><path class="cls-9" d="M158.07,217.26c0-5,17.72-5.32,17.72-5.32L163,225.59"/><line class="cls-6" x1="191.5" y1="202.73" x2="182.13" y2="210.44"/><line class="cls-6" x1="186.81" y1="199.31" x2="181.47" y2="207.69"/><line class="cls-6" x1="182.57" y1="198.54" x2="180.04" y2="204.15"/><line class="cls-6" x1="176.29" y1="200.08" x2="177.39" y2="204.6"/><path class="cls-6" d="M176.84,209s5.84.47,5.73,2.93"/><path class="cls-10" d="M254.68,425.38s22.36,46.56,67-24.57"/><path class="cls-10" d="M241.48,466.88s37.5,31,84.06-46.3"/><path class="cls-10" d="M241.48,492s63.37,19.4,80.18-56.91"/><path class="cls-10" d="M331.36,450s-21.31,73.72-80.82,49.79"/><path class="cls-10" d="M283.51,418.87s-33-29.7-33-37.46"/><path class="cls-10" d="M281.57,580.67S315.33,662.1,359.08,673"/><path class="cls-10" d="M459.77,432.84s21.26-24.39,1.25-14c0,0-29.81,20.43-14.59,24.6,0,0,31.69,4.8,34.81-37.53,0,0-10-11.88-32.52,11.05,0,0-29.61,31.07-17.72,43.58,0,0,3.54,3.33,10.63,0,0,0,28.35-18.14,29.81-2.51,0,0,.63,7.93-13.76,15.85,0,0-19.39,11.26-10,13.76,0,0,32.94-4.79,34.81,2.5,0,0,4.8,10.43-3.75,27.52"/><path class="cls-10" d="M443.15,611S407,635.69,406.59,645.66c0,0-6.27,17.36,22.9,15.14,0,0,39.51-3.13,39.14-24.83,0,0,1.95-19.48-36.51-4.71,0,0-24.79,12.56-13.71,21,0,0,15.51,11.81,35.45-4.8,0,0,13.66-16.62-.37-14,0,0-21.79,2.58-22.9,9.23,0,0-4.8,14.12,16.62,3.69l-3.69-5.91"/><path class="cls-10" d="M440,683.3s3.9,9.83,8.88-2.43c0,0-1.21-6.32-9.69,0,0,0-9.16,5.12-.94,11a13.62,13.62,0,0,0,13.87-6.2"/><path class="cls-10" d="M403.76,749.51s-18,8.72-5.63-5.9c0,0,36-15.19,29.25-18.28,0,0-20.53-4.78-42.18,18"/><path class="cls-10" d="M277.57,753.79l1.53,3.07S262,765,270.41,755.33c0,0,21.88-10.74,17.18-1.54l-13.7,10.63c.2,4.5,4.7,5.73,9.81,4.09"/><path class="cls-10" d="M297.81,746.84s-7.56-8-24.33,0c0,0-28.21,13.9-9,17.79"/><path class="cls-10" d="M253.85,768.31s-13.29,6.27-2.45-14.35c0,0,16.15-26.75,29.44-29.61"/><path class="cls-10" d="M272.12,217.26s13.7,22.08,7.06,1.51"/><line class="cls-10" x1="296.61" y1="247.38" x2="281" y2="236.79"/><path class="cls-10" d="M246.39,217.26s-6.23,16,31.54,24.83"/><path class="cls-10" d="M288.8,260.45s-33.28,3.6-39.92-18.74"/><path class="cls-10" d="M288.8,249.66s-36.18,0-46.56-24.07"/><path class="cls-10" d="M288.8,267.51s-27.43-3.62-30-9.13"/><line class="cls-10" x1="246.01" y1="251.19" x2="236.01" y2="262.94"/><path class="cls-10" d="M262,294.9s11.81-9.54,16-8.71"/><path class="cls-10" d="M276.56,309.43s20.05-10.79,20.05-10.38"/><line class="cls-10" x1="283.51" y1="311.09" x2="296.61" y2="304.23"/><path class="cls-10" d="M149.11,211.94s-15.78,9.22-13.66,13.65"/><path class="cls-10" d="M151.47,219.74s-1.42,4.72-5.18,5.85"/><path class="cls-10" d="M144.17,269.58s1.21-12-2-13"/><path class="cls-10" d="M138.28,269.58s2.12-13,0-14.13"/><path class="cls-10" d="M125.8,251.27s-6.83,9.12-9,9.12"/><path class="cls-10" d="M96.12,248.62s-1.41-17.65,0-17.19"/><path class="cls-10" d="M149.11,252.86s7.07,3.9,7.3-1.59"/><path class="cls-10" d="M141.11,243s8.24-9.18,7.77-11.54l-6.7,2.36"/></g></g><path id="Right_hand" data-name="Right hand" class="cls-1" d="M308,323.53s1.81-10,14.61-15.87c0,0,14.2-16.84,18-12.11,0,0,2.36,0,2.36,2.09,0,0,5.43-1.39,5.57,2.51,0,0,7.93-3.9,8.07,4.59,0,0,11-.56,9.74,2.09,0,0-1.94,3.75-5.28,4.17l-6.27-.42s.28,2.93-2.78,1.54c0,0-4.32,2.92-7.38-2.09a4.82,4.82,0,0,1-2-3.48s-3.52.42-5.44-3.76l-2.35,3.76.42,1.67,6.25-.32s.81,3.15-1,4.2c0,0-3.26,1.45-4.64,1.45l-.71.51-.08,7.66s-9,7.48-12.44,6.44C322.69,328.16,308.9,326.62,308,323.53Z"/><g id="Face"><g id="brows"><path class="cls-11" d="M198.36,81.81s-5.31,2.38-4.49,4c0,0,0,.92,4.49-2,0,0,9.42-2.57,14.46-.46,0,0,6.59,1.69,6,.52,0,0-4.4-3.63-13.18-2.9C205.59,81,199.79,81.08,198.36,81.81Z"/><path class="cls-11" d="M166.21,93.39s-.05,2.79,1.27.21a5,5,0,0,1,3.09-1.68s5.28.81,5.23-1c0,0,0-1.78-4.26-.76C171.54,90.2,166.77,91,166.21,93.39Z"/></g><g id="Mouth"><path class="cls-12" d="M200.11,130.2a19.44,19.44,0,0,1,6.73-1.37s7.65.09,7.28-1.27c0,0-4.28,11.19-8,12.74,0,0-6.73,1.64-11-2.28l-6.37-5.73S198.38,129.29,200.11,130.2Z"/><path class="cls-13" d="M195.37,134.57s5.74,7.19,12-.73v-1.91S198.19,132.38,195.37,134.57Z"/></g><g id="right_eye" data-name="right eye"><path class="cls-14" d="M201.8,94.58s-1.06,13.32,10.65,10.2c0,0,10.18-5,10.5-8.58C223,96.2,208.57,88,201.8,94.58Z"/><path class="cls-15" d="M204.68,92.9s.48,7.56,5.23,8.53c0,0,9,2.9,11-7.22C220.92,94.21,214.45,88.53,204.68,92.9Z"/><path class="cls-16" d="M210.05,92.36s-.87,7.06,3.77,7.06c0,0,4.51.45,5-5.36A8.56,8.56,0,0,0,210.05,92.36Z"/><path class="cls-13" d="M208.74,92.38s-.44,3,1.51,3.63c0,0,3.68.78,3-3.35C213.26,92.66,210.86,91,208.74,92.38Z"/><g id="Laashes"><path d="M223,96.2s-3.77-6.08-14.93-5.41a13,13,0,0,0-7.87,4.41l2,.22s3.56-4,8.66-3.41c0,0,6.47-.22,9.77,3.63l.28.56Z"/><polyline points="206.3 91.17 202.86 87.14 204.23 86.57 207.9 91.17"/><polygon points="199.23 89.11 200.15 88.36 204.37 91.94 203.24 92.93 199.23 89.11"/><polygon points="196.27 92.27 197.16 90.73 202.86 93.47 202.44 94.06 196.27 92.27"/><polygon points="195.56 93.68 195.56 95.47 202.16 95.42 201.8 94.58 195.56 93.68"/></g></g><g id="Left_eye" data-name="Left eye"><path class="cls-14" d="M177.91,101.68l-4.53,2s2.66,12.78,14.28,9.27Z"/><path class="cls-15" d="M177.91,101.68s-2.92,11.82,9.75,11.23c0,0,1.75-7.85-3.84-11.23Z"/><path class="cls-16" d="M180.69,104.27s-.37,3.55,2.36,4.69a3,3,0,0,0,3.42-4.67c-.55-.72-1.09-1.91-2.24-2.45C184.23,101.84,181,99.83,180.69,104.27Z"/><path class="cls-13" d="M181.82,102.78s-1,2.14.94,2.41c0,0,1.39.46,1.22-1.56C184,103.63,183.77,101.87,181.82,102.78Z"/><path class="cls-17" d="M183.66,101l1.48,1.54s-10.62-2.08-11.15,3h-5.88v-1.18l4.33-.16s-.54-.75-.11-.91h-4.22v-1.44l6.09.69.21-.9-3.79-2.89,1.12-1.18,4.3,4S176.76,100.53,183.66,101Z"/></g><g id="Nose"><path class="cls-18" d="M194.46,125s.7-5.14,4.23-1.2C198.69,123.75,198.35,125.86,194.46,125Z"/><path class="cls-19" d="M187.66,115.88s-3.7,8.76,1.94,9.3"/></g></g><g id="Skin_highlights" data-name="Skin highlights"><path class="cls-20" d="M210,152.58S236.07,140.1,238,127"/><path class="cls-20" d="M242.12,97.48s-1.46,3.83,0,3.91,1.9-1.61,3.37-2.75,1.22,2.75,1.22,2.75"/><path class="cls-20" d="M350.71,308.46s2.07-6.28-1.16-5.18"/><line class="cls-20" x1="325.63" y1="321.66" x2="333.22" y2="314.4"/><line class="cls-20" x1="325.63" y1="311.09" x2="338.06" y2="307.66"/><line class="cls-20" x1="345.54" y1="302.51" x2="343.12" y2="299.53"/><path class="cls-20" d="M72.05,226.94s-4.92-7.91-2.46-13.89"/><polyline class="cls-20" points="78.91 204.26 77.32 201.1 70.47 196.88"/><polyline class="cls-20" points="74.69 196.88 74.69 191.43 68.9 181"/><polyline class="cls-20" points="57.81 181 66.07 187.91 68.9 194.06"/><line class="cls-20" x1="65.72" y1="204.97" x2="65.72" y2="201.27"/><line class="cls-20" x1="72.05" y1="206.55" x2="65.72" y2="196.88"/><line class="cls-20" x1="168.1" y1="182.84" x2="173.38" y2="177.69"/><path class="cls-20" d="M195.37,164.12s3.91,3.68,8.78-2"/><line class="cls-20" x1="246.73" y1="182.84" x2="238.82" y2="181"/><line class="cls-20" x1="225.71" y1="170.06" x2="232.02" y2="170.06"/></g></g></svg>