<svg xmlns="http://www.w3.org/2000/svg" viewBox="0 0 565.36 792"><defs><style>.cls-1{fill:#f5cb46;}.cls-1,.cls-7{stroke:#f8dc7c;}.cls-1,.cls-10,.cls-12,.cls-16,.cls-17,.cls-18,.cls-19,.cls-2,.cls-20,.cls-21,.cls-22,.cls-23,.cls-24,.cls-4,.cls-5,.cls-6,.cls-7,.cls-8{stroke-miterlimit:10;}.cls-2,.cls-3,.cls-4{fill:#f7dfdd;}.cls-16,.cls-2{stroke:#d79c90;}.cls-4,.cls-5{stroke:#d69c8f;}.cls-16,.cls-17,.cls-22,.cls-24,.cls-5,.cls-7,.cls-8{fill:none;}.cls-6{fill:#e5bf22;}.cls-6,.cls-8{stroke:#f8dc7b;}.cls-9{fill:#8a3424;}.cls-10{fill:#f27fa3;stroke:#ce7c8d;}.cls-11,.cls-12{fill:#fff;}.cls-12{stroke:#d0a7a0;}.cls-13{fill:#37456b;}.cls-14{fill:#231f20;}.cls-15{fill:#d79c90;}.cls-17{stroke:#90b7b8;}.cls-18{fill:#f198bf;}.cls-18,.cls-24{stroke:#d9508b;}.cls-19{fill:#ebb4cb;stroke:#cc4c7d;}.cls-20{fill:#eba5c0;stroke:#cb84a0;}.cls-21{fill:#ea73a6;}.cls-21,.cls-22{stroke:#cc4b7c;}.cls-23{fill:#e8eff5;stroke:#a1b8c4;}</style></defs><title>princesses</title><g id="Aurora"><path id="Hair" class="cls-1" d="M272.32,45.24a22.59,22.59,0,0,0,4.32,9.64c3.61,4.44,7.76,4.79,7.76,4.79l-1.48-8.39S293.53,66,305.56,65.63a10.16,10.16,0,0,0,8.63,5.46s2.06,16.25-12.56,33.38c0,0-9.58,7.72-9.23,18.42v15.77s-15.06,7.17-15.41,14.23l.12,4.12s-12.47.24-13.41,11.77c0,0-.3,8.28.95,10.42l25.67-4.91s5.52-12.66,15.33-12.12c0,0,15.28,1.27,17.94,11.53,0,0,37.71,12.53,37.88,16.86,0,0-29.4,7-32.24,15.25,0,0,5.71,35.68,7.16,38.37,0,0,10.76,14.07,34.15,1.86,0,0,10.56-7,11.23-18.68,0,0,22.33,8,30-16.12s-20.07-26-24.32-22.85c0,0,11.59-20.23,1.8-29a73.92,73.92,0,0,0-21.3-18.5s-23.83-6.65-21.9-33.92-1-46.21-2.89-49.07L318,40.67s-13.35-11.93-20-11.14c0,0-2.23-11-14.34-4.93,0,0-17.52-7.49-29.62,2.7,0,0-6.22,7.17,2.7,16.89,0,0-1,20.55-8.44,23.25,0,0-24.53,19.76-24.37,32.82a34.8,34.8,0,0,0,3.66,21.18s15.73,15.89,5.92,22.4c0,0,5.49,119.08,58.41,113.31,0,0,25.33,4.65,27.38-1.68L264.89,181.4l-3.61-33.86,5.43-16.23-4.25-82.07,2.81.67-.9-2.8s8.52,9.48,10.93,9.07Z"/><g id="Skin"><path id="Skin-2" data-name="Skin" class="cls-2" d="M261.57,41.67l24.55,5.49,31.67,20.72-2.24,14.78-5.78,9.28s-9.06,13.64-10.76,14.68c0,0-8,11.43-7.57,12.91h1l.22,20.29s-15.12,8.27-14.49,12.42l-10.63,10.94s-6.28,3.39-2.63,14.24L228.79,191l-9.63-23.61L208.29,154s9.16-8.85,14.6-8.7l28.73.56s17.91-10.34,15-19.19L257.3,126s-8.86-.62-7.87-9.1L248.65,90s-1.3-7.08,1.79-10c0,0,11.22-10.74,9.8-19.22V50Z"/><path id="Shoulder" class="cls-3" d="M289.94,173.7s5.29-10.48,14-11c.32,0,.64,0,1,0,9.32.22,16.93,4.72,17.89,11v1.61L289,174.77Z"/><g id="left"><path class="cls-4" d="M97.41,307.76s-9.45,5.51-25.2-13.12c0,0-7.06-8.27-11.43-9.22,0,0-7.64-1.58-8.18-2.48,0,0-4.93-2.34-4.52,0,0,0-.47,3.55,4.69,4.69,0,0,11.49,5.27,13.82,8.43a2.23,2.23,0,0,1,.35.63s-10.23-2.94-14.34-.12c0,0-4.46,0-5.05,1.75l-9.09-.14s-3.39-4.62-5.11-2.12c0,0-.29,3.25,1.77,5.06l1.82,1.7s-6.47-.35-6,.91c0,0,.56,3.24,6.19,3.24,0,0,11.48-.4,11.78.14,0,0,18.17,7.72,18.29,10.7,0,0-14.34-2-17,.76,0,0-4.14,2.79-1.35,3.18,0,0,18.36,1.26,19.27,3.74,0,0,16,10.82,26.4,1.16l9.18-7S98,318,98,315.65Z"/><path class="cls-5" d="M68.6,307.32l-16.17-5.06L44,300.15s-9.42-5.35-9.42-3.94"/><path class="cls-5" d="M69.45,302.82s-12.66-6.75-21.66-3"/><path class="cls-5" d="M71.84,298c-.57,0-10.27-1.13-10.27-1.13"/><line class="cls-5" x1="77.46" y1="319.55" x2="65.23" y2="319.55"/></g></g><g id="Crown"><path class="cls-6" d="M309.62,6.26l8,15.35s-8.33,4.1-2.17,9.18c0,0,5.68,4.34,7.25-1.09l18.49,22.11,2.09,10.7s-9.65-14.4-21.91-19.61L295.91,27.73s-15.47-6.13-21.6-5.05l12.41-8s-.31,5.36,6.74,3.37c0,0,4-.92,1.22-6.59Z"/><line class="cls-7" x1="296.52" y1="25.28" x2="306.17" y2="11.64"/></g><g id="Necklaces"><path class="cls-6" d="M256.88,141.49s4.39,10.31,9.65,10.75h11.62v5.57s-10.13,3-10.63,5.37l-14.83.84-1.07-18.14v-1.55Z"/><line class="cls-8" x1="261.57" y1="160.04" x2="266.63" y2="154.02"/></g><g id="Face"><g id="eyebrows"><path class="cls-9" d="M259.89,57.12s7.75-1.61,12.3,7.92l.5-4.89s-7.37-7.78-10.92-5.32c0,0-2.1,0-1.92,1.75"/><path class="cls-9" d="M285.31,66s-.42,5.06,2.74,5.27c0,0,12.74,1.26,14.32,3.9,0,0,5.48,3.8,5.06,7.54,0,0,3.86-3-4.32-10.14,0,0-6.76-3.56-12.28-4.39C290.83,68.13,285.12,67.69,285.31,66Z"/></g><g id="Mouth"><path class="cls-10" d="M254.23,95.82s6.93,2.11,7.19,5c0,0,6.05-.88,6.75,1.58,0,0,6,5.09,8.94,5.35,0,0-8.5,7.28-17.27,4.64,0,0-4.73-.61-5.17-8.59Z"/><path class="cls-11" d="M257.3,101.35s1,6.22,4.47,6.84c0,0,8.24,1.31,9.82,0L257.3,100.3Z"/></g><g id="Left_eye" data-name="Left eye"><path class="cls-12" d="M260.55,66.83s-2.2,7.62,5.24,10.24c0,0,5,.42,5.54.3,0,0-.92-7.46-4.58-10.29C265.29,65.94,262.57,65.88,260.55,66.83Z"/><path class="cls-13" d="M267.43,67.89s-4.29,1.36-4.12,5.6c0,0,.44,5.05,8.3,3.17,0,0-.1-4-2.29-6C269.32,70.63,268,67.74,267.43,67.89Z"/><path class="cls-14" d="M268.87,71.79A1.82,1.82,0,0,0,267,72.9a2.29,2.29,0,0,0,.23,2c.5.83,1.43,1.56,3.27,0,.09-.07.43-.41.41-.52C270.79,73.67,270.3,71.64,268.87,71.79Z"/><path class="cls-14" d="M256.87,62.31l.5-.75s-.07,5.32,6.34,4c0,0,4.39-.57,7,4.77,0,0,2,4.83,1.3,7.5,0,0-3.49-11.14-6.23-10.42C265.79,67.46,257.34,67.8,256.87,62.31Z"/></g><g id="right_eye" data-name="right eye"><path class="cls-12" d="M286.41,78.2s-2.14,9.19,5.31,11.81c0,0,7.2.41,7.73.29,0,0-.91-7.46-4.57-10.29-.92-.71-3.29-.34-5.37-.69A20.51,20.51,0,0,1,286.41,78.2Z"/><path class="cls-12" d="M294.88,80c-.65-.51-3.25-.26-5.37-.69-.85-.17-1.52-.74-2.12-.83-1.25-.21-.22-.65-1-.29"/><path class="cls-13" d="M295.55,80.82s-4.28,1.37-4.11,5.6c0,0,.43,5,8.29,3.18,0,0-.1-4-2.28-6C297.45,83.56,296.1,80.67,295.55,80.82Z"/><path class="cls-14" d="M297,84.72a1.81,1.81,0,0,0-1.89,1.11,2.29,2.29,0,0,0,.22,2c.51.83,1.43,1.57,3.28,0,.09-.08.43-.41.41-.53C298.92,86.6,298.43,84.58,297,84.72Z"/><path class="cls-14" d="M285,75.24l.5-.74a4.67,4.67,0,0,0,1.9,3.28,5.36,5.36,0,0,0,4.44.76s4.39-.57,7,4.77c0,0,2,4.83,1.29,7.5,0,0-3.49-11.14-6.23-10.41,0,0-5.26.32-7.79-2.08A4.59,4.59,0,0,1,285,75.24Z"/></g><path class="cls-15" d="M265.29,92.88s3.2-1.32,3.43,1C268.72,93.9,267.86,95.3,265.29,92.88Z"/><path class="cls-16" d="M262.41,92.51s-1.32-2.66,0-3.91L272.16,79"/><path class="cls-16" d="M219.49,165.94s2.93-2.79,2.53-4.39"/></g><g id="White_skirt" data-name="White skirt"><g id="White_Skirt-2" data-name="White Skirt"><polygon class="cls-11" points="342.36 546.77 282.68 613.14 330.31 654.87 266.8 727.18 290.34 762.18 342.36 779.16 422.85 748.41 488.55 680 473.22 641.73 417.37 604.49 454.6 552.48 433.8 518.53 342.36 546.77"/><path class="cls-17" d="M311.92,763s6.77.83,8.91-2.65c0,0,5.63,11.52,14.2-4.29,0,0,3.75,17.15,16.34,0,0,0,4.29,10.72,15.28-6.7,0,0,2.89,16.35,11.36,0"/><path class="cls-17" d="M292.7,725.55s15.93,4.82,19.22-4.55c0,0-8.77,18.21,12.93-2.15,0,0-.27,14.74,16.88-7,0,0-3.48,16.61,13.13-4.56,0,0,3.48,13.67,14.2-9.91,0,0,5.36,9.38,10.18-9.91,0,0,10.45,9.1,9.91-15,0,0,9.91,9.65,8.84-15.27,0,0,11,8,2.41-13.4,0,0,9.38,7,4.56-12.32"/><path class="cls-17" d="M318.78,614.68s8,9.33,14.91-13.45c0,0,6.43,11,12.06-11.52,0,0,7.23,13.4,13.13-9.37,0,0,9.37,12.32,15.27-9.38,0,0,7,19,15.27-9.11,0,0,7.5,13.93,15.81-5.09,0,0,7.5,15,12-7.23,0,0,11.52,10.71,14.47,0,0,0,10.14,10.83,14-2.76"/><line class="cls-17" x1="389.09" y1="595.54" x2="378.72" y2="579.12"/><path class="cls-17" d="M378.19,620.92l4.09-7.78s1,26.3,11.45,9.24c0,0-2.48,11,6.58,11.91"/><path class="cls-17" d="M404.58,627.36l-8-17.24a8.37,8.37,0,0,0,3.73-9.6s1.6,5,6.93,0"/><path class="cls-17" d="M369.69,726s6.93,5.64,9.75-8c0,0,1.95,9.63,7.77,4.56"/><path class="cls-17" d="M334.24,746.74s-14,5.37-11.35-3.17l-3.86,0"/></g><path class="cls-18" d="M174.37,317.74s-12.55,8.64-16,32.27l-10.1,40.58-6.36,30.81-11.58,48.71S77.1,643.55,42.73,677.49c0,0,2.37,17.24,19,19.51,0,0,15.56,3.19,3.4,14.08,0,0,7.3,17.26,21.32,19.35,0,0,29-.38,26.17,5.11,0,0-3,8.16.19,11.19,0,0,26.44,31.06,61.52,35,0,0,30,5.4,52-3,0,0,19.61-5.82,34.48-2.81,0,0,34.27,7.33,47-8.83,0,0,13.58-11,11.21-23.49,0,0-12.07,3.88-9.91-7.76,0,0-12.29,5.17-10.56-5.6,0,0-11.21,0-6.25-7.55l7.75-13.79s81.74-23.31,85.35-60.73c0,0-3.94-22-7.22-27.24,0,0-9.52,3.28-10.5-10.84,0,0-9.2,21.34-15.1,5.26,0,0-10.18,18.71-17.4,3.94,0,0-15.76,18.38-16.41-4.6l6.86-26.4s29.73-33.76,39-34.38c0,0,50.79-27.87,71.54-20.43L445,544.68s10.75,23.89-9.36,16.92c0,0-2.39,19.52-11,8.17,0,0-1.79,19.71-9.95,7.76,0,0-.2,23.69-9.76,8.56l5,6.86s-12,36.1,9.23,43.82c0,0,30.43,3.25,44.29,4.42,0,0,11.31,32.39-5.86,18.73,0,0,4.29,18.15-8.58,11.51,0,0-4.29,21.27-13.27,11.12,0,0-5.66,19.9-15,9.76,0,0-5.46,18.92-14.83,10,0,0-3.51,18.92-11.9,7.22L381,734.65s-5.85,18.53-1.17,20.87c0,0,9.34,25.81,46.52-.16,0,0,14.92-5.46,20.12-4.72s44.53,2.5,53.67-15c0,0-6-9.54-2.53-12.27,0,0,38.55-7,34.26-28.42l-40.68-41.07s-48.45-69.92-47.29-76c0,0,23.79-20,13.93-40.32l-33.36-79.2L394,394.8s-9.47-35.29-40.56-16.8l-9.2,7.53s-12.51,4.45-26.08-36.25c0,0-5.58-19.17-8.82-20.82s-49.63-37.59-49.63-37.59L209.82,302H186.71Z"/></g><path id="left-2" data-name="left" class="cls-19" d="M189,208.79,172.13,244.2S143.38,266,141,270.51c0,0-39.44,36.11-41.82,36.35l-2.38.24,1.56,8.8,4.06,3.93,20.17-11.37L159,289.33s23.53-16,27.67-22.5l20.42-27.15S196.71,200.14,189,208.79Z"/><path id="Skirt_top" data-name="Skirt top" class="cls-20" d="M199.87,276.09,166,327.94l23.41-19-1,29.58,41.15-21.35s46.55,37,46.8,40.12c0,0,10.3-29.83,6.31-42.43l26.61,13.63s-23.54-29.71-31.83-32.22l-30.4-25.38L207.13,285Z"/><polygon class="cls-19" points="199.15 169.54 198.75 181.65 210.93 175.6 199.15 169.54"/><g id="Top"><path class="cls-21" d="M207.53,176s-25.37,13-20.1,28.21c0,0,2.73,9.4,6.35,14.1,0,0,15.69,26.09,12.59,36.57,0,0-5.17,20.08-6.5,21.26,0,0,5.47,17.71,6.65,18.6l27.58-13.13s14-6.89,21.79.45l21.57,14.23s-25.8-22.46-21.79-37.8c0,0,4.67-10,14-14.68l21.57-19.35s-9.13-9.34-8.57-16l2.82-14-61.9.84S211.65,176.86,207.53,176Z"/><path class="cls-22" d="M215,182.86,199.27,196v17.51l11.14,22.27s5.09,27.69-5.73,55.05"/><path class="cls-22" d="M223.6,195.24l-10,11V218l5.9,17.5s3.1,21.38-1.86,31.31l-10.5,26.34"/><path class="cls-22" d="M217.84,287.75s20.51-28.71,21.81-34.33c0,0,5-9.71,2.59-18.78,0,0-8.64-13.38-6.05-21.8,0,0,7.13-7.56,8.85-7.77l10.37-9.83"/></g><path id="White" class="cls-23" d="M187.43,141.49s13.72,19.57,11.72,28c0,0,20,13.48,24.45,25.7,0,0,84.87-7.88,104.84,11,0,0,17.53-17.52,32.6-14.37,0,0-20.47-25.93-86.81-14.72,0,0-43.27,8.33-45.78,14.71,0,0-4.71-29-17-34.87C211.49,157,194.77,142.16,187.43,141.49Z"/><path id="right" class="cls-19" d="M285.5,194.4s-11.65,12.1,5.75,30c0,0,24.86,29.3,25.12,46.59,0,0,2.88,13.62,10.22,17.81l34.83,27s18.08,17.55,17.81,19.91c0,0,6.24-6.81,14.72-2.15l-9.43-16.11-14.8-22.8s-22.81-35.37-30.88-35.72c0,0-7.34-18.67-7.34-28.91l-2-24.7-15.65-12.1Z"/><g id="right-2" data-name="right"><path class="cls-4" d="M379.55,404.07s1,1.75,3.51-.8l6.74-8.35s1.47-5.75,1.75-8.36l3.59-8.79"/><polyline class="cls-4" points="379.93 402.41 390.27 377.44 395.39 379.27 393.64 381.44"/><path class="cls-4" d="M394.43,381.21s3.87,4.29,3.8,5.06c0,0,0,11.84,1.57,13.12,0,0,3.48,2.91,4,2.81V390.69s1.12-5.32-1-7.73l-4.46-8-.45-20.57s.17-14.13-1.21-15.26l-2.22-4.68s-11.86-4.46-15.23,1c0,0,1.86,6.65-1.73,12.37,0,0-9.18,13.84-9.18,16.5l-.89,7s-.38,2.82-.08,3.21c0,0-1.23,12.78,5.55,5.39,0,0,3.62-4.46,2.15-9.24,0,0,3.53,4.94,2,8.87l-9.41,11.64A9.68,9.68,0,0,0,365.5,399s12.16-8.22,13.57-10.15l6.6-15.27L379,392s-8.65,12.34-5.76,17.14c0,0,1.29,2.76,4.12-2l1.54-2.77,6.82-12.25,4.6-15.44"/><polygon class="cls-3" points="385.79 392.26 381.58 401.5 382.94 401.5 389.75 390.71 385.79 392.26"/></g><g id="dress_lines" data-name="dress lines"><path class="cls-24" d="M71.26,699S118.49,604,122.17,578.19l23.3-136.76L152,393"/><path class="cls-24" d="M189.63,608.25,170,489.88s-4.26-127.38,18.42-151.39"/><path class="cls-24" d="M111.61,737s32.63-88.32,34.47-96.29,25.13-122,23.6-125.73"/><path class="cls-24" d="M353.53,485.93S271.65,615,251.93,578c0,0-86.21-164-62.3-232.48"/><path class="cls-24" d="M269.48,518.6s43.43-17.84,66.37-85.39"/><line class="cls-24" x1="360.92" y1="398.39" x2="338.93" y2="429.32"/><path class="cls-24" d="M334.1,411.92s20.66-18.18,28-16.91"/><path class="cls-24" d="M365,493.37s21.58-55.51,12.57-83.47"/><path class="cls-24" d="M302.67,437.59s-23-19.09-25.87-73.21"/><path class="cls-24" d="M229.57,317.14s-6.73,107.2,60.17,123"/><path class="cls-24" d="M185.44,758.83S235,678.32,207.13,650.92"/><path class="cls-24" d="M282.68,740.62s-20.41-10.75-2.49-33.6l47.95-68.11"/><path class="cls-24" d="M379.8,636.23s-93.78,13-71.38-22.85"/><path class="cls-24" d="M305,608.25s12.62-42.82,30.89-69.7c0,0,23.8-51.52,25.07-73.48s8.21-62.66,8.21-62.66"/><path class="cls-24" d="M421.8,638.52s-33.17-18.27,22.11-59.33"/><path class="cls-24" d="M475,643.42s-33.17-33.7-31.06-55.81"/><path class="cls-24" d="M442.06,735.42s13-23.14,8.93-34.1"/><path class="cls-24" d="M495.24,725.27s-22.73-37.35-22.33-43.44"/><path class="cls-24" d="M466.42,681.83S381.57,727.71,382,756.94"/><path class="cls-24" d="M395.39,515.49s10.81-55.48,3.09-71.63"/><path class="cls-24" d="M239,650.92s-37-60.49-31.85-71.73"/></g><path class="cls-1" d="M238.3,144.61s8.26-11.3,2.7-20.57c0,0-20.24-19.91-10.12-36.27"/><path class="cls-1" d="M288.56,34.39S291.76,50.16,297,36c0,0,1.4-7.51-2.39-8.77s-14.31-6.6-13.46,7.16c0,0-3.71,32.64,34.91,29.94"/><path class="cls-1" d="M315.28,39.29s18,19.94,10.72,26.88c0,0-8.65,9.15-20.49-1.68"/><path class="cls-1" d="M281.46,43.56,285,59.7s-10.24-3.58-13-17.12"/><path class="cls-1" d="M271.71,41.67l3.79,13.88c-8-1.59-13.43-14.81-13.43-14.81"/><path class="cls-1" d="M325.72,69.72s-12.29,52.21,0,60.3"/><path class="cls-1" d="M323,108.77s9.2,14.46,12.11,30.3c0,0,8.4,21.82-13.59,30.47"/><path class="cls-1" d="M345.12,77.08S331.67,111.94,331.54,119"/><path class="cls-1" d="M341.89,113s-3.42,19.29,1.36,28.52c0,0,19.66,27.26,1.87,39.91"/><path class="cls-1" d="M343.25,123.55s13.51,32.66,19.66,38c0,0,12.39,28.93-9.83,44.73,0,0-25.4,21.34-.51,30.59,0,0,18.42-3.37,11.63-13.07,0,0-13.62-3.23-10.2,8.73"/><path class="cls-1" d="M345.12,227s2.37-20.69,21.23-15.84c0,0,15.31,2.59,13.37,15.84"/><path class="cls-1" d="M354,143.6s22,21.64,22.59,30.28c0,0,6.21,18-7.86,29.35L361,208.81"/><path class="cls-1" d="M387.56,189.78s-14.48,14.07,1.24,23c0,0,14.49-.82,10.14-14.89,0,0-9.72-5.59-12.21,4.75,0,0,3.25,12.13,2.9,3.68"/><path class="cls-1" d="M395.21,198.56s-5.66,2.24-5.07,5.66"/><path class="cls-1" d="M292.31,255.91s-11.44-3.08-10.63-19"/><path class="cls-1" d="M262.07,40.74l3.72,9.73c-4.54.42-11.65-9.09-11.65-9.09-3.07-2-2.87-9.68-2.87-9.68C253.43,19.34,280.09,23,280.09,23l8.11,2.3"/><path class="cls-16" d="M289.29,175.18s4.77-12.32,14.41-12.52c0,0,21.16.26,19.14,12.65"/></g></svg>