<svg id="Layer_1" data-name="Layer 1" xmlns="http://www.w3.org/2000/svg" viewBox="0 0 150 150"><defs><style>.cls-1{fill:#fff;}.cls-2{fill:#e94795;}</style></defs><title>bday</title><g id="bday"><circle class="cls-1" cx="75" cy="75" r="71.34"/><path class="cls-2" d="M46.9,16.71S61.47,38,46.9,38.92,46.9,16.71,46.9,16.71Z"/><path class="cls-2" d="M74.05,16.71s14.57,21.32,0,22.21S74.05,16.71,74.05,16.71Z"/><path class="cls-2" d="M100.61,16.71s14.57,21.32,0,22.21S100.61,16.71,100.61,16.71Z"/><path class="cls-2" d="M20.81,93.43V76.88s-.38-10.94,10.68-11.7h9V50s1.73-5,6.46-4.81c0,0,6.8-.47,7,5.11V64.8H67.13V50.49a6.56,6.56,0,0,1,6.92-5.32c6,.25,6.46,6.46,6.46,6.46V65h13V50.07s1.78-5.15,6-4.9c0,0,6.42-.25,7,3.84V64.68h8.32s11.31.46,11.61,10.3V87.35s-10.26-11.57-24.87-11.7S85.66,87.73,85.66,87.73s-3.5,14.1-12.79,13.81S61,92,61,92,55.72,79,42.51,82C42.51,82,32,82.62,20.81,93.43Z"/><path class="cls-2" d="M20.81,101.54v11.74s.16,10.93,10.34,11.31H117s9.42-3.29,9.42-11.52V95.29s-12.5-13.6-23.94-14.1S89.93,92,89.93,92s-4.44,16-14.44,15.83-15.88-5.36-19.13-12c0,0-3.08-11-16.68-6.89C39.68,88.91,30.56,90.14,20.81,101.54Z"/></g></svg>