<svg id="Layer_1" data-name="Layer 1" xmlns="http://www.w3.org/2000/svg" viewBox="0 0 3379 3379"><defs><style>.cls-1{fill:#fff;}.cls-2{fill:#e94795;}</style></defs><title>bday</title><g id="bday"><circle class="cls-1" cx="1689.5" cy="1689.5" r="1689.5"/><path class="cls-2" d="M1282,477s345,505,0,526S1282,477,1282,477Z" transform="translate(-258 -168)"/><path class="cls-2" d="M1925,477s345,505,0,526S1925,477,1925,477Z" transform="translate(-258 -168)"/><path class="cls-2" d="M2554,477s345,505,0,526S2554,477,2554,477Z" transform="translate(-258 -168)"/><path class="cls-2" d="M664,2294V1902s-9-259,253-277h212V1265s41-119,153-114c0,0,161-11,166,121v344h313V1277s23-132,164-126,153,153,153,153v317h307V1267s42-122,142-116c0,0,152-6,167,91v371h197s268,11,275,244v293s-243-274-589-277-377,286-377,286-83,334-303,327-281-227-281-227-125-306-438-235C1178,2024,929,2038,664,2294Z" transform="translate(-258 -168)"/><path class="cls-2" d="M664,2486v278s4,259,245,268H2943s223-78,223-273V2338s-296-322-567-334-298,256-298,256-105,378-342,375-376-127-453-285c0,0-73-261-395-163C1111,2187,895,2216,664,2486Z" transform="translate(-258 -168)"/></g></svg>