<svg xmlns="http://www.w3.org/2000/svg" viewBox="0 0 565.36 792"><defs><style>.cls-1{fill:#f9dfcc;}.cls-1,.cls-11,.cls-13{stroke:#dcb2a5;}.cls-1,.cls-10,.cls-11,.cls-13,.cls-16,.cls-2,.cls-5,.cls-6,.cls-7,.cls-8{stroke-miterlimit:10;}.cls-2{fill:#be7e33;}.cls-16,.cls-2{stroke:#915624;}.cls-13,.cls-3{fill:#fff;}.cls-4,.cls-5{fill:#fcde8f;}.cls-5{stroke:#ecc877;}.cls-6{fill:#fbe898;stroke:#f4cd7c;}.cls-11,.cls-16,.cls-7,.cls-8{fill:none;}.cls-7{stroke:#bbbbb7;}.cls-8{stroke:#f4d784;}.cls-9{fill:#945e3b;}.cls-10{fill:#f58f9d;stroke:#d09094;stroke-width:0.5px;}.cls-12{fill:#dcb2a5;}.cls-14{fill:#866433;}.cls-15{fill:#231f20;}</style></defs><title>princesses</title><g id="Belle"><g id="Skin"><path class="cls-1" d="M240,227l-6.46,19.85s11.3,12.59,22.44,6.78l10.33-25.34S241.44,230.22,240,227Z"/><path class="cls-1" d="M358.67,243.05l3.83,16.5s19.51,3,22.84-9.17c0,0-2.33-3.33-2.33-5.33l-1.84-20.51-15.4-3.11Z"/><path class="cls-1" d="M245,204.38s10.46-30.61,14-31.89c0,0,7.31-7.65,15.9-6.63,0,0,20.86-4.66,24.58-13.56,0,0,10.22-17.44,10.62-26.71l1.2-14.18a7.57,7.57,0,0,1-3.85-7.7l.66-3.8L328,68.19l45.41,4.59,5.73,22.56,10.68.83-1.06,3.07s-1.26,14.25-9.19,20c0,0-5.94,1.7-10.46,10.44l-2.69,6.23s-2.49,8.74-13.56,12.35l-18.27,8.32a2.77,2.77,0,0,0-1,2.3s.26,8.48,16.25,10.68c0,0,26.28,8.71,26.29,14.26,0,0,3,15.46,1.4,19.41l-33.23,21.29-46.79-7.17-45.79-3.69Z"/></g><g id="Hair"><path class="cls-2" d="M369.67,57.33s2.16-21.95-20.61-22.55a3.2,3.2,0,0,1-1.22-.28c-2.52-1.19-13.75-5.43-24.55,7.24a2.16,2.16,0,0,1-.37.37c-1.31,1.07-9.1,8-9.15,21.19a3.08,3.08,0,0,1-2.29,3c-3.59,1-10.32,3.94-13.44,13.1,0,0-5.12,10.16-1.29,14.84a2.91,2.91,0,0,1,.35,3c-1.36,3.15-3.46,9.78-.68,16.49a3.17,3.17,0,0,1,.18,2c-.61,2.38-3.14,8.2-13.71,14.92a3,3,0,0,1-.4.21c-2.28,1-24,11.52-12.91,34.93,8.44,17.81,28.69.33,39.3-10.79a18.62,18.62,0,0,0,4.74-16.86l-7.19-32.86a3.06,3.06,0,0,1,3.36-3.69c5.67.71,16.11.23,26.88-9.4,0,0,21.21-16.66,26.74-9.63a3.75,3.75,0,0,0,.65.67,19.52,19.52,0,0,1,7.51,13.15,3.87,3.87,0,0,1,0,.59c-.1,1.29.18,6.76,11.84,4.58a3,3,0,0,1,3.6,3.43,31.08,31.08,0,0,1-2.9,9.46,3.06,3.06,0,0,0,3.58,4.34c5.55-1.74,12.33-5.75,14.09-15,0,0,6.13-21.26-10.21-18.16a3.06,3.06,0,0,1-3.48-2c-2-5.57-7.2-18.35-14.19-21.73C373.9,61.85,369.67,59.48,369.67,57.33Z"/><path class="cls-2" d="M334.52,160.66c.62,2.44,2.73,5.41,8.92,6.89,4.75,1.14,4,8.07-.89,8.24h-.36a4.15,4.15,0,0,0-.78.09c-3,.66-21,5.36-16.55,21.61a4.31,4.31,0,0,0,1.18,2c2.86,2.69,12.43,10.64,18,1.73a1.17,1.17,0,0,0,.17-.61v0a1.13,1.13,0,0,0-1.61-1c-1.88.86-4.81,1.46-5.29-2.69a4.16,4.16,0,0,1,2.72-4.37,12.54,12.54,0,0,1,6.48-.69s23.71,6.71,29.53-11.48c0,0,7-15-4.46-20.65,0,0-10.31-4.26-14.63-9.08a4.14,4.14,0,0,0-4.69-1.06L337,155.85A4.14,4.14,0,0,0,334.52,160.66Z"/></g><path class="cls-3" d="M308.09,629.16,235,734.17s40.41,30.28,125.08,5c0,0,121.85-19.62,123.35-21.69,0,0,73.08-36.72,71.27-47.88l-43.52-37.41Z"/><path id="Hairband" class="cls-4" d="M313.31,64s11.68-16.83,21-17.69c0,0,22-6.87,34,10l1.39,1.87S351,43.49,332.58,51.84C332.58,51.84,313.22,62.47,313.31,64Z"/><circle id="Earring" class="cls-5" cx="310.84" cy="113.8" r="5.43"/><path class="cls-6" d="M364.87,260.76s-3.32-1.46-3.21-3.72a5.06,5.06,0,0,0-1.34,6.4s4.58,4,4.55,8.35c0,0,3.82,15.85,8.7,17.65l24.09,19.62,20.3,15.6s13.53,11,12,21.4l.79,11.32s1.28,4.19,2.28,4.74c0,0,6.59,10.94,6.53,11.72,0,0,1.23,5,2.57,4.86,0,0,3.35-.11,2.46-6.75,0,0-4.86-13.18-4.13-15.18l5.69,7.86s4.41,7.09,4.35,8.27c0,0,1.18,6,1,6.86,0,0,1.06,6.25,3.29,6.75,0,0,1.84,2,2.29,1.12,0,0,0,4.3,3.48,3.61,0,0,1.08-1,.39-4.94a68.55,68.55,0,0,1,1.21-6.81s2.22-7,1.68-9.12c0,0-2.88-6.24-2.66-6.84,0,0,2.42.69,2.75,2l6.92,7.68s4.72,5.32,7,3.33c0,0,1.73,0,.33-2.13l-7.44-11.07s-5.24-5.4-6.89-5.4c0,0-9.59-6.22-9.59-8.77L439.6,327.79l-15.21-18-15.22-20L388.23,261.2s2-10.25-.16-12.16c0,0-2.63-1.3-3.36-1,0,0,1,2.22.29,2.88,0,0-7.28,8.61-12.73,8.48C372.27,259.43,367.85,261.62,364.87,260.76Z"/><g id="Dress"><g id="frills"><path class="cls-7" d="M244.23,735.29s3.47,7.37,11.27-1c0,0,1.59,9.39,12.43,0,0,0,4.05,10.25,12.86-2.89,0,0,3.76,11.84,15.61-6.36,0,0-1,15.75,13.15-5.2,0,0,4.33,12.28,13.72-6.79,0,0,4.77,13,14.45-6.22,0,0,3,13.44,12.28-3,0,0,3,14.45,13-2.6,0,0,5.63,9.24,9.68-4.77"/><path class="cls-7" d="M423.14,722.9s5.92,1.59,7.29-3.42c0,0,10.7,2,14.34-5.69,0,0,3.88,7.29,12.08-6.38,0,0,5.46,8.66,13-5,0,0,3.41,10.58,14.8-6,0,0,0,14.64,12.07-3.36,0,0,3.88,13.67,13-4.78,0,0,4.1,15.46,12.52-6.42,0,0,6.67,13.34,12.52-6.43,0,0,7.49,6.32,9-6.2"/><path class="cls-7" d="M96,647.73S85.34,646,91.75,636.2c0,0-17.09,5.12-5.13-17.09,0,0-22.62,6.83,2.58-18,0,0-17.1-2.56,6.82-17.52,0,0-14.45,1.36-10.6-7.77L96,565.59s-19,2.21-5-11.34"/><path class="cls-7" d="M77.29,523.48s-9,8.06,15,6c0,0-11.44,15.14,18.68,9.67,0,0-14.66,17.56,16.26,15.14,0,0-21.58,16.58,4,17.55,0,0-30.76,12.24-8.54,17.39,0,0-25.6,13-8.37,17.39,0,0-15.62,9-6.6,15.62,0,0-4.61,4.19-4.32,6.28"/><path class="cls-7" d="M120.68,665.35s-8.28-2.07-3.53-11.08c0,0-16.07,6.7-7.3-9.25l7.42-7.06S106,635,116.18,623.72c0,0,12.24-11,15.13-11.08,0,0-13.06-7.55,15.67-17.77,0,0-16.92-6.82,14.24-19.48,0,0-17.53-2.68,3-18,0,0-20,1.83-15.21-14.6,0,0-20.21,6.2-14.37-12.67,0,0-16.68,3.9-15.34-11.19,0,0-18.62,5.47-19.23-10.35,0,0-14.61,8.4-16.56-8.52,0,0-10,12.66-18.62-2.8,0,0-2.44,12.29-17.78,2.43,0,0,10.35,21.79-6.81,19.6,0,0,33.23,12.54,14.48,19.11,0,0,24.47,8.77,11.69,17,0,0,13.88,8.64,6.57,23.49,0,0-21.06,19.36-7.91,19.72,0,0-27.15,20.77-7.06,20.7,0,0-9,15.46,5.6,15.21,0,0-9.86,17.41,9.5,13.88,0,0-8,18.33,14.73,12.78,0,0-3.9,18.75,15.21,8.65,0,0-.73,14,10.71,5.18,0,0,3.81,15.33,14.34,3.64"/></g><path class="cls-6" d="M234.62,243s-5.94,1.42-4.26,5.68c0,0,1.93,5.94-2.2,7.1l-39,27.12s-19.63,15.62-37.06,9.68a28,28,0,0,0-27.89.65S93,299.87,90,328.47l-3.7,31.8L75,374.32S43.17,392.57,37.5,414.51c0,0-2.21,15,0,17.26,0,0-24.86,36.07-26,49.3,0,0-6.91,27.07,11.26,45.24l32.2,30.61a57.31,57.31,0,0,1-13.63,28.64S28,602.75,36.14,622.9c0,0,22.22,39.8,39.39,48.75,0,0,39.56,25.13,67.18,22.9,0,0,25,39.06,84.77,39.53,0,0,36.74,3.3,77.24-22.14,0,0,65.77-31.07,72.39-16.18,0,0,10.48,14.34-49.91,28.4,0,0-15.16,9.1-2.2,11.3,0,0,22.42,9.21,69.72-1.59L421,723.36l11.09-4.18s100-65,109.8-54.83l2.45,7.56a4.43,4.43,0,0,1-2.08,5.26l-23.94,17.3a8.87,8.87,0,0,1-2.54,1.26L498.6,701l-70.16,22.53a.88.88,0,0,0,.32,1.71c22.93-1.59,98.06-10.22,126-55.7,0,0-9.46-61.46-15-65.39,0,0-26.39-71.3-41-77.6,0,0,.14-44.77-9-58.56,0,0-18.23-35.06-29.68-39.27,0,0,4.66-9-5.33-11.38,0,0-18.53-44.35-38.11-55.5,0,0-14.11-32.66-20.35-37.35,0,0-31.55-38.85-49.67-32.55,0,0-10.15-13.38-2.76-25.47,0,0,14.11-15.62,14.61-20.82l.3-2.71s10.19-5.58,9.43-14.5c0,0-.39-6-2-7,0,0,30.4,9,33.52-5.71a5.29,5.29,0,0,1,.19-2.61s5.69-5.69-.93-12.39c0,0,3.69-9.07-10.24-10.3L377.18,188s1.63,4.1,1,7.27v6.29s-31,.45-35.77,6.92l-11.63,7.7-3.14,4.05-8.16-5s-10.19-12.14-26.42-13l-32.35,1.09s-18.85,2.47-15.05-2.56l3.9-10.34s-22-2.6-22,8.47c0,0-10.59,4.16-3.23,10.18,0,0-2.87,4.49,3.15,10.12,0,0,1.43,5.84,21.5,9.79,0,0,24.17-.47,25.32-2.34,0,0-1.58,7.74,4.72,19.78,0,0,11.48,21.47,8.51,30.23,0,0-2.83,9.83-7,11.86,0,0-24.63-6.82-57.69,25.51,0,0-23.77,25.48-53.6-9.23L201.39,295l33.37-12.19s10.36-2.59,15.53-12.19l4.53-7.95s8.62-4.51,6.76-8.3c0,0-2.25-3.06-3.22-3.22,0,0,1,3.46-2.26,3.55a26.36,26.36,0,0,1-17.26-3.56s-5.47-2.13-5.52-4.74C233.32,246.39,233.07,243.32,234.62,243Z"/><circle class="cls-5" cx="336.04" cy="217.33" r="4.63"/><circle class="cls-5" cx="319.94" cy="217.72" r="4.63"/><circle class="cls-5" cx="328.38" cy="219.95" r="5.43"/><path class="cls-3" d="M126.23,671.05s-15.35-12.31-4.67-35.36,50.25-35.07,61.36-55.81l8.47-21.63s-36.23-39.44-64.87-51.72c0,0-60.48-34.18-96.43-16.94,0,0-15.77,11.1,1.17,43.54,0,0,42.23,30.53,40.33,40.32,0,0,2.42,9.71-13.13,18.06,0,0-5.17,8.69,3.77,7.89,0,0-22,22.25-6.06,21.26,0,0-5.16,17.68,10.73,14.6,0,0-8.93,9.21-1.49,13.6,0,0,3.26,1.89,11.17-.59,0,0-5.27,1.81-3,10.29,0,0,5.58,7.49,16.21,1.23,0,0-2.68,7.81.4,11.26,0,0,.59,5.43,14.9-3.61,0,0-1.63,8.77,1.64,10a10.41,10.41,0,0,0,9.94-5.59s-2.85,8.94,3.45,10.84c0,0,7.63.68,7.91-5.16C128,677.55,127.53,672.29,126.23,671.05Z"/><g id="frills-2" data-name="frills"><path class="cls-7" d="M96.94,647.73S86.26,646,92.67,636.2c0,0-17.09,5.12-5.13-17.09,0,0-22.62,6.83,2.58-18,0,0-17.11-2.56,6.82-17.52,0,0-14.45,1.36-10.6-7.77l10.6-10.28s-19,2.21-5-11.34"/><path class="cls-7" d="M78.21,523.48s-8.95,8.06,15.05,6c0,0-11.44,15.14,18.68,9.67,0,0-14.66,17.56,16.26,15.14,0,0-21.58,16.58,4,17.55,0,0-30.76,12.24-8.54,17.39,0,0-25.6,13-8.37,17.39,0,0-15.62,9-6.6,15.62,0,0-4.61,4.19-4.32,6.28"/><path class="cls-7" d="M121.6,665.35s-8.28-2.07-3.53-11.08c0,0-16.07,6.7-7.3-9.25l7.42-7.06s-11.32-2.92-1.09-14.24c0,0,12.24-11,15.13-11.08,0,0-13.06-7.55,15.67-17.77,0,0-16.93-6.82,14.24-19.48,0,0-17.53-2.68,3-18,0,0-20,1.83-15.22-14.6,0,0-20.2,6.2-14.36-12.67,0,0-16.68,3.9-15.34-11.19,0,0-18.62,5.47-19.23-10.35,0,0-14.61,8.4-16.56-8.52,0,0-10,12.66-18.62-2.8,0,0-2.44,12.29-17.78,2.43,0,0,10.35,21.79-6.81,19.6,0,0,33.23,12.54,14.48,19.11,0,0,24.47,8.77,11.69,17,0,0,13.88,8.64,6.57,23.49,0,0-21.06,19.36-7.91,19.72,0,0-27.15,20.77-7.06,20.7,0,0-9,15.46,5.6,15.21,0,0-9.86,17.41,9.49,13.88,0,0-8,18.33,14.73,12.78,0,0-3.89,18.75,15.22,8.65,0,0-.73,14,10.71,5.18,0,0,3.81,15.33,14.34,3.64"/></g></g><g id="Dress_Highlights" data-name="Dress Highlights"><path class="cls-8" d="M188.87,327.5s12.19,11.18,35.56-13.88"/><path class="cls-8" d="M294.4,301.72c.82.59-7.56-12.17-13.95-13.19"/><path class="cls-8" d="M253.55,399.63s-3.73-85,47.74-100.23c0,0,15.92-2.37,20.66,27.76,0,0,7.45,32.85,3,50.8,0,0-3.65,33.52-14.09,45.31"/><path class="cls-8" d="M391.78,427.32s4.72-26.52-10.11-66-37.07-63.54-50.89-62c0,0-8.89-.15-14.62,9.77"/><path class="cls-8" d="M340.19,299.28s3-6.57,6.46-7.33"/><path class="cls-8" d="M407.59,380.25s-16.18-.34-23.46-12"/><path class="cls-8" d="M413.51,357s6.78,17.18,5.68,24.06"/><path class="cls-8" d="M442.69,462.66s12.38-19.81,11.9-45.59"/><path class="cls-8" d="M391.07,387.42s24.71,29.81,25.34,57.84-8.82,39-8.82,39"/><path class="cls-8" d="M424.42,477.35s-2.73-31.5-8-32.09"/><path class="cls-8" d="M325.3,396s2.53,41.84,38.62,70.35"/><path class="cls-8" d="M322.31,403.81s-3.83,31.38-8.79,37.31"/><path class="cls-8" d="M458.78,425.2s29.42,61.28,11.34,73.69c0,0-10.43,5.83-42.81-16.2"/><path class="cls-8" d="M479.3,471.37s6.47,25.63-6.75,29.95a13.54,13.54,0,0,1-11.24-1.25"/><path class="cls-8" d="M428.14,492.1S464.23,525,484,515"/><path class="cls-8" d="M428.14,492.1s28.45,84.89-3.72,118.19"/><path class="cls-8" d="M412.39,527.83s12.26-30.41,13.41-45.14"/><path class="cls-8" d="M400.44,539.51s-11.19,1.85-19.43-3.65c0,0-1.47-1.07-4-3.05-12.81-10.15-55.09-47.11-62.31-87.07"/><path class="cls-8" d="M425,484.1s-22.22,65.82-43.3,50.06"/><path class="cls-8" d="M495.23,517s0,12.18-14.35,8.3c0,0-26.55-8.54-34.7-19.39"/><path class="cls-8" d="M312.89,446.54c1.21,79.76,59.6,127.1,59.6,127.1,14.33,11.94,22.93,4.06,22.93,4.06,40.83-27.22,31.89-95,31.89-95"/><path class="cls-8" d="M358.88,545.54S323,498.78,317.06,480.89"/><path class="cls-8" d="M312.89,465S294,532.54,331.13,580.25"/><path class="cls-8" d="M378.1,632.14s-26.42-5.1-48-36.37c-7.56-11-14.52-25.16-19.53-43.49"/><path class="cls-8" d="M378.1,681.56s-27.65-64.19-41.43-77.23"/><path class="cls-8" d="M183.94,629.16s29.71,44.09,78.12,21.57"/><path class="cls-8" d="M223,604.33s46.11,26.7,70.22-64.59"/><path class="cls-8" d="M47.71,466.35s6.74-46.5,20.22-58.48"/><path class="cls-8" d="M120.34,416.11S127.82,461,143.55,461"/><path class="cls-8" d="M175.81,423s-3.18,66.67,41.73,95.72c0,0,9.07,3.57,30.46-6.13,0,0,37.08-18.36,49-39.47l15.9-27.89"/><path class="cls-8" d="M246.1,499S282,487.2,300,463.06"/><path class="cls-8" d="M216.91,501.4s-37.09-31.59-38.68-57.86"/><path class="cls-8" d="M253.49,481s-25.31,14.22-55.92-25.76c0,0-19.76-27.63-17.82-31.35"/><path class="cls-8" d="M201.32,455.1s17.87,32.95,62.14,16.88c0,0,39.92-17.5,46.56-26.24"/><path class="cls-8" d="M173.1,428.68s-9,25.54-6.21,38.88"/><path class="cls-8" d="M148.71,406.14s17.23,14.95,27.58,16.22c0,0-15.61,5.17-26.2-4.26"/><path class="cls-8" d="M145.47,369.11S144,426.36,160.91,465c0,0,66.53,89.73,43.39,112.38"/><path class="cls-8" d="M147.69,358.13S144.93,391,105.74,396s-52.85,11.08-55,17.46"/><path class="cls-8" d="M110.3,380.25s31.56-2.68,37.39-22.12"/><path class="cls-8" d="M145.15,367.82s11.15,44.79,30.66,50.87"/><path class="cls-8" d="M203.24,380.25s35.24,6.7,53-16.08"/><path class="cls-8" d="M184.72,413.46s39.76-5.83,70.92-47.74"/><path class="cls-8" d="M157.68,302.59s11,9.11,12,34.93c0,0,6.79,26.73,17.11,31.59"/><path class="cls-8" d="M85.09,369.11S145,309,120.34,305.63"/><path class="cls-8" d="M145,309s17,1.52,5.44,40.4"/><path class="cls-8" d="M324.15,299.28S318,287.2,326.39,265c0,0,11.62-24.84,6.75-42.16"/><path class="cls-8" d="M345.13,244.69s10.82-.11,13.54-5"/><path class="cls-8" d="M326.31,239.67s-16.74,17.1-38.16,0"/><path class="cls-8" d="M230.49,199.67c-16.86,12,24.16,19.72,24.16,19.72"/><path class="cls-8" d="M270.45,209s-26.16,7.52-35.76-6.77"/><path class="cls-8" d="M295.48,209.53s21,1.19,21,5.25"/><path class="cls-8" d="M341.32,214.78s10-5.49,16.6-1.13"/><path class="cls-8" d="M371.94,209s21.82,3,24.7-10.35"/><path class="cls-8" d="M379.89,193.81s9.47.58,5.41,4.86c0,0-3.12,4.61-7.14,3.43"/><path class="cls-8" d="M377.18,215.8s18.1.84,21.49-5.25"/><path class="cls-8" d="M387.92,263.59s-3.44-7.34,0-14.14"/><path class="cls-8" d="M367.44,267.4s-3.53-5.64-5.44-6.36"/><path class="cls-8" d="M448.7,354.86s1.93,6.66,3,7c0,0,2.81,4.18,2.46,7.17l0,12"/><path class="cls-8" d="M452.73,356.09s6,8.41,4.74,14.19l.16,4.89"/><line class="cls-8" x1="457.63" y1="356.09" x2="458.58" y2="360.47"/><path class="cls-8" d="M159.59,294.27s-7.49.3-11.56-1.8a6.9,6.9,0,0,1-1.12-.71"/><path class="cls-8" d="M139.14,295.11s5.59-2.52,8.89-2.64"/><path class="cls-8" d="M250.63,263.84s6.3-5.6,10.5-7.3"/><path class="cls-8" d="M234.23,255.14s1.6-4.4,0-8.3"/><circle class="cls-5" cx="425.8" cy="479.54" r="4.63"/><circle class="cls-5" cx="311.83" cy="443.54" r="4.63"/><circle class="cls-5" cx="179.75" cy="419.28" r="4.63"/><circle class="cls-5" cx="456.69" cy="423.77" r="6.7"/><circle class="cls-5" cx="149.78" cy="354" r="4.63"/></g><g id="Face_and_Hair" data-name="Face and Hair"><g id="Face"><path class="cls-9" d="M341.52,90.71s-.83-1.55,5.28-.94a12.32,12.32,0,0,1,9.13,7s3.89,5.11,2.61,6.89c0,0-1.5.45-2.39-1.72,0,0-5.34-9.07-7.79-9.4,0,0-3.24-1.8-5.13-1.5C343.23,91.05,341.42,91.22,341.52,90.71Z"/><path class="cls-9" d="M376.78,112s-5.86-.7-6,.56c0,0-.42,1.07,3.25,1.26,0,0,4.58.17,4.69.67,0,0,2.25,1.31,1.36,3.06,0,0,1.39.78,1.25-1.71C381.34,115.84,378.71,111.89,376.78,112Z"/><path class="cls-10" d="M330.84,130.74s1.81,2.41,2.5,2.5c0,0,8.5,2.28,8.24,3.88l1.68,2.41s0,1.42,1.32,1.11c0,0,3.12-.14,3.27.38l1.92,2.09s-2.86.39-4,.44c0,0-2.62,5.65-7.17,4.56,0,0-5.86-2.21-6.55-7.72Z"/><path class="cls-3" d="M333.29,134.94s1.75,7.49,6.25,9.15a4.12,4.12,0,0,0,4.69-.87Z"/><path class="cls-11" d="M355.45,132.34s-1.12-10.74,8.25-14.67"/><path class="cls-11" d="M348,134.94s3.21,2.73,6.37,0"/><path class="cls-12" d="M347.49,132s-2-1.35-2.43-.26c0,0,.25.63,1.7.6,0,0,1.2,1.07,1.25,0Z"/><path class="cls-11" d="M314.42,105.69a7.91,7.91,0,0,1-1.05-3.66"/><path class="cls-11" d="M313.85,122.12s5.1,33.71,18.51,33.37"/><path class="cls-11" d="M334.54,168.4s-4.39-6-2.18-10"/><path class="cls-11" d="M317.32,174.69s5,1.36,5,2.23c0,0,3.49-1.84,5.43-1.74"/><line class="cls-11" x1="274.91" y1="202.25" x2="278.95" y2="197.08"/><path class="cls-11" d="M326.31,209s2.36,4.15,2,4.63"/><path class="cls-11" d="M357.92,203.22s-1.49-3.85-1.1-4.55"/><g id="Left_Eye" data-name="Left Eye"><path class="cls-13" d="M336.39,100.79s-5.91,10.66,9.31,15.76h.83s2.8-5.1,1.48-10.47C348,106.08,341.85,97.12,336.39,100.79Z"/><path class="cls-14" d="M337.46,101.11s-4,5.52.67,9.33c0,0,6.51,3.49,10.08-2.82C348.21,107.62,348,98.88,337.46,101.11Z"/><path class="cls-15" d="M339.08,101s-2.82,4.93.72,6.59,6.39-2.5,5.91-3.49C345.71,104.13,342.77,99.09,339.08,101Z"/><path class="cls-3" d="M344.72,105.16s-1.75.56-1,1.91c0,0,1.86.91,1.9-.8C345.67,106.27,345.63,105.08,344.72,105.16Z"/><path class="cls-15" d="M334.06,95.34s-.54,5.23,3.29,5.69c0,0,9.68-.77,10.41,5.77,0,0,1.09,7.46-1.62,10.87,0,0,3.6-1.9,3.67-10.1a13.61,13.61,0,0,0-7.23-8.67s-1.42-2.59-1.1-3.29a5.58,5.58,0,0,0-.65,3.18s-3.33-.68-3.18-3.45c0,0-.94,2.24.32,3.72C338,99.06,334.42,98.63,334.06,95.34Z"/></g><g id="Right_Eye" data-name="Right Eye"><path class="cls-13" d="M358.46,123.24s6.42,11.61,13.14,1.74c0,0-.05-6.73-8.23-4.45Z"/><path class="cls-14" d="M358.44,123.91s2.5,4.49,7,3.71c0,0,4.65-1.51,4.88-5.33A9.81,9.81,0,0,0,358.44,123.91Z"/><path class="cls-15" d="M361.39,121.5a3.35,3.35,0,0,0,3.08,3.51s3.22,0,3-4.1Z"/><path class="cls-3" d="M366.72,124.1s-1.18-1,0-1.79c0,0,1.55-.23,1.37.9C368.09,123.21,367.94,124.52,366.72,124.1Z"/><path class="cls-15" d="M358.11,123.33s5.22-5,10.78-4c0,0,3.67,1.32,3.62,1.91,0,0,2.78-1.11,2.78-1.77a2.08,2.08,0,0,1-1.37,2.78l.19,2.07-2.4,1.23s-1.21-5-6-4.32c0,0-5.81.33-7.31,2.91Z"/></g></g><path class="cls-16" d="M355.38,43.19s-2.59-6.84-5.39-6.84"/><path class="cls-16" d="M361.19,48.48s.21-5.18-1.24-5.29"/><path class="cls-16" d="M319.71,51.59s2.39-5.91,3.74-7.05"/><path class="cls-16" d="M324.38,63.41s-13.58,10.79-13,14"/><path class="cls-16" d="M335.84,52.52s-27.32,12.76-27.32,23.75"/><path class="cls-16" d="M306.86,73.47s2,14.52,31.16,0"/><path class="cls-16" d="M360.57,68.08s-14.31-7.57-34.32,8.19"/><path class="cls-16" d="M347.71,65.07s44.17-7.57,29,32.56"/><path class="cls-16" d="M379.91,96s6.75-4.57,10.74-2.58"/><path class="cls-16" d="M390.65,110.61a7.19,7.19,0,0,0,0-8.89"/><path class="cls-16" d="M365.39,75s11.47,2.86,7.56,21.7"/><path class="cls-16" d="M368.1,85.82S365.69,65.94,338,81.07"/><path class="cls-16" d="M332.36,88.78s-15.29,8.39-25.5-.83"/><path class="cls-16" d="M302.24,84s-2.24-4.43-1.4-6.62"/><path class="cls-16" d="M317.89,94.52s-14,6.85-19.43-9.65"/><path class="cls-16" d="M300.65,105.16s-.93,5.32,3.68,11.39"/><path class="cls-16" d="M301.4,132.13s-15.1,14-5.87,24.18"/><path class="cls-16" d="M293.85,138.81S282,153,287.28,160.51"/><path class="cls-16" d="M276.65,150.3s-4.61,8.46-1.26,13.11"/><path class="cls-16" d="M300.57,122.76a29.21,29.21,0,0,1-17.21,13.84c-12.16,3.49-15.24,20.25-15.24,20.25"/><path class="cls-16" d="M306.85,130.74s-7.13-15.11-8.53-16.23"/><path class="cls-16" d="M363.7,162s-10.29-2.37-11.27-11.6"/><path class="cls-16" d="M342,164.84s-3.8-.42-3.27-5.45"/><path class="cls-16" d="M345.76,163.41s10.68,6.59,2.45,11.28"/><path class="cls-16" d="M346.53,176.92s14.57,1.48,16.52-6.49"/><path class="cls-16" d="M357.34,166s3.78,6.5-3.51,8.73"/><path class="cls-16" d="M375.43,68s-5.63-10-12.68-13.47"/><path class="cls-16" d="M361.38,186.37s12.3-2.66,14.54-11.68"/><path class="cls-16" d="M347.26,189.59s-4.61-4.9-14.12,2.58"/><path class="cls-16" d="M340.31,184.41s-17.12,4.39-9.47,15.52"/></g></g></svg>