<svg id="Layer_1" data-name="Layer 1" xmlns="http://www.w3.org/2000/svg" viewBox="0 0 6090.39 2169.47"><defs><style>.cls-1,.cls-4{fill:#eb4595;}.cls-2,.cls-3{fill:#fff;}.cls-3{fill-rule:evenodd;}.cls-4,.cls-5{stroke:#c23a82;stroke-miterlimit:10;stroke-width:21.29px;}.cls-5{fill:none;}</style></defs><title>logo</title><path class="cls-1" d="M3351.74,643.12S3220.64,568,3201,662.39s26.65,162.86,26.65,162.86L3348,928.36,3485,820.43l44.33-149.37-69.39-67.45Z" transform="translate(-327.26 -574.53)"/><ellipse class="cls-1" cx="3006.39" cy="1381.25" rx="1470.59" ry="788.22"/><path class="cls-2" d="M2839.63,2381.44a244.83,244.83,0,0,0,1.23,27.75,69.24,69.24,0,0,0-12.37-1.07,65.8,65.8,0,0,0-12.2,1.07c.88-14.15,1.23-21,1.23-25.47l.35-43.31c0-7.78,0-23-.35-30.23l-.88-22.29a162.25,162.25,0,0,0,17.68.88c3.89,0,20.51-.88,24-.88,8.48,0,17.67.71,26,6.73,6.71,4.94,12,12,12,24.92,0,16.79-10.42,36.07-44.56,36.07a117.68,117.68,0,0,1-12.19-.71Zm0-35.2a86.69,86.69,0,0,0,9.37.71c19.8,0,24.58-17,24.58-26.35,0-14-6.9-24-21.58-24-4.42,0-8.3.33-12.37.7Z" transform="translate(-327.26 -574.53)"/><path class="cls-2" d="M2999.86,2356.15c2.66,3.7,6.53,9.55,9.19,13.26,14,19.63,18.75,25.8,29.9,39.78a130.67,130.67,0,0,0-15.75-1.07,83.8,83.8,0,0,0-14.32,1.07c-2.65-4.06-6.55-10.62-9.2-14.68-9-14-20-29.52-29.52-43h-4.24v25.11c0,5.12.71,27.94.71,32.54a105.4,105.4,0,0,0-11.86-1.07,90.54,90.54,0,0,0-12.2,1.07c1.42-34.84,1.59-38.73,1.59-72.86,0-23.15,0-25.63-1.23-48.44a162.41,162.41,0,0,0,17.68.88c4.59,0,25.11-.88,29.18-.88,11.48,0,20.15,1.41,27.75,8.68a27.42,27.42,0,0,1,8.13,19.78c0,19.65-14.67,29.72-30.76,32.71Zm-33.94-12.91c3.35.17,7.59.52,12.19.52,17.69,0,24.22-12.91,24.22-24.39,0-7.44-1.22-13.8-7.42-18.41-4.77-3.52-10.61-4.39-16.44-4.39-3.36,0-9.9.7-12.55.87Z" transform="translate(-327.26 -574.53)"/><path class="cls-2" d="M3079,2287.89c3.37.37,9.9,1.06,12.55,1.06a106.41,106.41,0,0,0,12.56-1.06c-1.95,13.07-1.95,43.68-1.95,61.53,0,26.35.36,45.43,1.77,59.77-4.07-.17-8.31-1.07-12.38-1.07-3.88,0-8.84.9-12.73,1.07,1.95-21,1.95-50.21,1.95-80.46A365,365,0,0,0,3079,2287.89Z" transform="translate(-327.26 -574.53)"/><path class="cls-2" d="M3160,2337.58c0-16.62-.18-33.26-.35-49.69a33.38,33.38,0,0,0,4.24.37,31.25,31.25,0,0,0,4.07-.37c16.79,18.57,32.52,35,53.93,55.87l20.86,20.52c3.36,3.19,5,4.42,8.84,7.6v-39.25c0-15-.88-30.25-2.12-44.74A29,29,0,0,0,3257,2289a27.64,27.64,0,0,0,7.43-1.06c-1.59,21.4-1.94,33.94-1.94,59.76,0,10.25.17,35.72.17,44.92,0,3.89.18,13.08.18,17.5a27.68,27.68,0,0,0-3.53-.35,27.23,27.23,0,0,0-3.71.35c-22.45-24.39-66-67.72-84.7-84.88,0,24,.17,37,.53,55.71.18,10.24.34,12,1.59,28.29-2-.17-5.48-1.07-8-1.07a27.86,27.86,0,0,0-7.08,1.07l1.41-24.58c.36-4.78.54-18,.54-23Z" transform="translate(-327.26 -574.53)"/><path class="cls-2" d="M3417.1,2312.65h-1.77c-2.12-4.25-8.31-16.63-33.76-16.63-29.53,0-45.27,19.45-45.27,52.86,0,6.2,0,22.65,10.78,37,6.37,8.3,15.92,16.08,32,16.08,21.75,0,32.9-10.79,40.85-20.16l2,1.25-2,17.5a91.73,91.73,0,0,1-44.74,11.15c-34.47,0-63.12-21.4-63.12-61.18,0-35.55,21.75-64,69-64a95.91,95.91,0,0,1,41.38,8.84Z" transform="translate(-327.26 -574.53)"/><path class="cls-2" d="M3490.35,2340.41c9,0,28.84-.18,38.2-1.23a22.11,22.11,0,0,0-.88,6.35,17.25,17.25,0,0,0,.88,6c-4.59-.35-9.19-.71-13.61-.88-8.14-.17-16.46-.36-24.59-.36v47.93c4.61,0,27.24-.54,42.26-1.24a14,14,0,0,0-.88,5.82,17.52,17.52,0,0,0,.88,6.38c-10.61-.7-21.21-1.07-32.53-1.07-10.61,0-21.74.37-33,1.07.34-7.43.7-14.68.87-22.1.35-10.26.71-31.84.71-40,0-7.43-.36-41.55-1.58-59.23,8.65.53,22.44,1.06,32,1.06,8.15,0,19.82-.69,32.54-1.06a21,21,0,0,0-.87,5.67,20.74,20.74,0,0,0,.87,6.52l-16.61-.87c-6.55-.36-8.31-.36-24.59-.36Z" transform="translate(-327.26 -574.53)"/><path class="cls-2" d="M3580.21,2382.66c8.15,17.68,17,20.34,27.41,20.34,14,0,23.17-9.38,23.17-22.1,0-14-11.15-18.91-14.51-20.32-4.94-2.15-13.26-5.33-18.2-7.45-17.17-7.6-22.28-16.61-22.28-31.3,0-15.56,9.19-35.35,41.19-35.35,12.9,0,20.69,3.36,29.36,7.25-3.54,8.65-3.88,10.06-5.48,16.8h-2.49c-2.64-10.1-12-15.38-23.16-15.38-13.95,0-20.87,8.64-20.87,19.09,0,12.89,9,16.44,24.59,22.46,13.62,5.31,18.91,7.23,24,12.9,7.42,8,8.66,18.38,8.66,23.33,0,18-12.56,38.74-44.91,38.74-15.21,0-26.7-5.83-33.06-9,3-9.2,3.17-11.51,4.07-20Z" transform="translate(-327.26 -574.53)"/><path class="cls-2" d="M3700,2382.66c8.14,17.68,17,20.34,27.41,20.34,14,0,23.16-9.38,23.16-22.1,0-14-11.14-18.91-14.5-20.32-4.94-2.15-13.27-5.33-18.21-7.45-17.15-7.6-22.29-16.61-22.29-31.3,0-15.56,9.21-35.35,41.21-35.35,12.9,0,20.68,3.36,29.35,7.25-3.53,8.65-3.89,10.06-5.48,16.8h-2.48c-2.65-10.1-12-15.38-23.17-15.38-14,0-20.85,8.64-20.85,19.09,0,12.89,9,16.44,24.57,22.46,13.61,5.31,18.92,7.23,24.05,12.9,7.43,8,8.67,18.38,8.67,23.33,0,18-12.55,38.74-44.92,38.74-15.21,0-26.69-5.83-33.05-9,3-9.2,3.17-11.51,4.06-20Z" transform="translate(-327.26 -574.53)"/><path class="cls-2" d="M3851.63,2341.82c9,0,28.84-.18,38.2-1.23a22.13,22.13,0,0,0-.88,6.36,17.29,17.29,0,0,0,.88,6c-4.59-.36-9.19-.71-13.61-.88-8.14-.18-16.46-.37-24.59-.37v47.93c4.61,0,27.24-.53,42.26-1.23a14,14,0,0,0-.88,5.82,17.46,17.46,0,0,0,.88,6.37c-10.61-.7-21.21-1.07-32.53-1.07-10.61,0-21.74.37-33.05,1.07.34-7.43.7-14.67.87-22.1.35-10.25.71-31.84.71-40,0-7.42-.36-41.55-1.58-59.23,8.65.54,22.44,1.06,32,1.06,8.15,0,19.82-.69,32.54-1.06a21,21,0,0,0-.87,5.68,20.74,20.74,0,0,0,.87,6.52l-16.61-.88c-6.55-.36-8.31-.36-24.59-.36Z" transform="translate(-327.26 -574.53)"/><path class="cls-2" d="M3941.49,2384.08c8.15,17.68,17,20.33,27.41,20.33,14,0,23.17-9.37,23.17-22.09,0-14-11.15-18.92-14.51-20.33-4.94-2.14-13.26-5.33-18.2-7.44-17.17-7.6-22.28-16.61-22.28-31.31,0-15.55,9.19-35.35,41.19-35.35,12.9,0,20.69,3.36,29.36,7.25-3.54,8.65-3.88,10.07-5.48,16.8h-2.49c-2.64-10.09-12-15.37-23.16-15.37-13.95,0-20.87,8.64-20.87,19.08,0,12.9,9,16.44,24.59,22.46,13.62,5.31,18.91,7.23,24.05,12.9,7.42,8,8.66,18.38,8.66,23.33,0,18-12.56,38.74-44.91,38.74-15.21,0-26.7-5.83-33.06-9,3-9.2,3.17-11.5,4.07-20Z" transform="translate(-327.26 -574.53)"/><path class="cls-2" d="M2743.8,2348.26c-34.81,0-63-42.32-63-110.15,0,67.83-28.22,110.15-63,110.15,34.82,0,63,57,63,124.88C2680.77,2405.3,2709,2348.26,2743.8,2348.26Z" transform="translate(-327.26 -574.53)"/><path class="cls-2" d="M2621.84,1851.43c-76,5.66-173.28,19.78-172.49,46.42.82,27.85,72.51,81.38,166.61,116.25C2620.33,1957.08,2621.43,1896.64,2621.84,1851.43Zm-278.33-287.08c-25,.74-43.94-10.19-44.4-25.49-.33-11.18,24.13-46.08,39.06-51.72,10.2-3.87,59.88-22.72,142.69-25.18,30.69-.92,82.8,2.84,126.8,9.36,256.16,38,525.05,233.3,530.19,406.52,3.51,117.87-98.31,228.44-297.09,234.34a510.67,510.67,0,0,1-145.4-16.54c-1,29,1.2,44.27-39.83,45.47-25.11.76-34.89-39.9-38.58-73-120-53.25-192.3-139.73-193.31-173.87-1.51-50.83,90.92-93.23,199-110,1.53-42.09,8.65-149.24,30.86-149.9,8.93-.27,27.42,20.44,34.4,52.13,6.35,28.79,7,81.27,7.08,90.62l8.16-.29c151.68-4.51,242.58,42.93,244.26,99.09,1.29,43.53-37.26,65.83-57.48,66.43s-43.93-10.91-44.11-17.16c-.35-12,43.15-14.79,42.58-34.17-.87-29.22-121.46-42-195.76-42.5-.11,25.19-.44,55.59.17,76,.59,19.62,1.81,70.34,2.41,112.65,33.71,7.14,68.43,11,102.47,10,80.11-2.37,263.09-31.58,259-169.05-5.72-192-385.44-368.46-588.82-362.41-80.11,2.38-128.18,11-127.94,18.83.15,5.23,39,7.27,39.31,17.63S2357.2,1563.94,2343.51,1564.35Z" transform="translate(-327.26 -574.53)"/><path class="cls-3" d="M3195.86,1774.22c13.08-.39,31.85,31,32.43,50.63s5.28,122.23,6.66,151.78.4,57.86-1.53,71-6.68,19.56-29.17,20.23-32.95-12.72-34.86-32.52-3.58-76-2.6-104.14,2.3-82,6-115.72S3185.48,1774.53,3195.86,1774.22Z" transform="translate(-327.26 -574.53)"/><path class="cls-3" d="M3326,1543.76c-3.72-9.32-16.25-28.16-60.93-26.83-97.34,2.89-172.22,75-170.54,131.8.55,18.47,9.46,34.65,22.55,47.9-3.41,9.29-3.76,15.49-3.65,19,.29,9.88,15.15,35.94,26.54,35.59,9.67-.28,16.25-9.31,25.54-23.94,15.87,6.12,31.69,9.24,44.22,8.87,91.53-2.71,174.58-88.49,172.94-143.35C3382,1567.55,3365.58,1543.14,3326,1543.76Zm-138.14,136.31c11.26-15.91,69.69-94.15,129.89-95.93,17.67-.53,22.35,10.4,22.7,22.49.55,18.81-33.53,73.79-110.26,76.07A221.7,221.7,0,0,1,3187.89,1680.07Zm-47.63-26c-1.39-2.3-2.71-6-2.87-11.68-.38-12.55,21.32-60.72,75.94-64.68a232,232,0,0,0-41.91,37.41Q3151.79,1637.21,3140.26,1654.11Z" transform="translate(-327.26 -574.53)"/><path class="cls-3" d="M3433.3,1769c53.6-1.59,120.72,5.35,121.21,22.49.31,10-4.94,31-33.52,33.85-33.73,3.41-203.85,10.64-203.22,31.65.32,11.09,51.44,13.55,98.33,16.39,48.17,2.92,125.53,4.73,127.85,82.69,1.81,61.55-21.45,74.55-31.94,79.46-13.3,6.22-58,23.23-92.3,24.24-103.31,3.08-145.91-56.29-146.81-86.46-.8-26.8,26.76-50.58,73.12-51.94s118.12,15.33,118.67,34.39c.47,15.45-31.18,23.4-45.19,23.82-63.25,1.88-60.14-23.83-96.59-22.75-20.76.62-49.9,44.73,54.14,41.65,92.68-2.76,120.78-33.31,120.31-49.72-.66-21.73-67.19-32.31-105.65-34.3s-96.21-1.75-115.9-14.2-16.93-40.64-10.11-64C3280,1787.52,3379.71,1770.55,3433.3,1769Z" transform="translate(-327.26 -574.53)"/><path class="cls-3" d="M3616.3,1789.12c36.21-1.09,112.11,163.11,124.91,162.73s3.29-38.35-4.78-80.3c-18.3-94.87-46.8-143.8-20-144.59,19.81-.59,84.72,62.22,88.34,183.87,1.67,56.48-6.27,130.38-57.44,131.91-48.52,1.45-103.83-151.76-116.38-151.4-6.74.21-7.31,94.93-9.14,123.48s-11.74,43.84-27.66,44.3c-24.15.73-34.72-22.39-36.1-68S3571.64,1790.44,3616.3,1789.12Z" transform="translate(-327.26 -574.53)"/><path class="cls-2" d="M3984.48,1878c17.15-.51,32.27-3.37,30.76,18.9s-2.45,31.23-20.3,31.77l-91.64,2.72c-3,10.18-10.85,36.45-14.4,47.53-4.39,13.9,9.53,10.84,27.49,5.71s66.74-14.31,86.75-14.9,35,31.33,23.51,42.31-73.51,63.3-138.19,65.21c-27.78.82-65.46-23.41-66.74-66.86-.68-23,8.54-53.87,17.39-77.85-2.16-1.35-3.8-4.51-5.08-11.42-2.86-15.62-9.88-32.79,16.11-35.76,2.09-.23,4.69-.47,7.76-.72l21.48-44.24c-8.72-1.27-16.25-3.19-22.05-6-15.8-7.53-28.12-27-28.37-35.63-.57-19.07,139.22-30.47,171.58-31.43,34.74-1,44.61,5.67,55.72,21.54s15.31,27.08,15.41,31.43-3.88,15.09-45.89,16.33c-21.49.64-56.22,4.27-89.56,5.5l-14.5,38.68C3954.13,1879.19,3984.48,1878,3984.48,1878Z" transform="translate(-327.26 -574.53)"/><path class="cls-3" d="M4079.2,2010.12c-37.54,74-62.79,152.5-61,211.55,2,66.56,42.85,91.38,55.26,91s13-20.07,15.28-34.73A986.85,986.85,0,0,1,4148,2059.32a105,105,0,0,0,28.61,3.36c76.1-2.25,164.31-93.19,161.42-190-1.5-51.12-21.05-87.38-53.82-86.4-47.91,1.42-116.82,73.85-172.13,164.79-4.94-36.91,24.15-93.71,49-133.43,17.42-27.9,14.37-61.06,7.14-60.85-10.16.31-108.34,83.42-105,197.44C4063.86,1976.36,4069.65,1995,4079.2,2010.12Zm101.56-23c45.81-89.6,93.07-140.68,109.68-141.19C4319.26,1845,4294.86,1975.36,4180.76,1987.08Z" transform="translate(-327.26 -574.53)"/><path class="cls-2" d="M3318.59,1167.57c-837.63,0-1516.67,352.89-1516.67,788.21S2481,2744,3318.59,2744s1516.66-352.9,1516.66-788.22S4156.21,1167.57,3318.59,1167.57Zm0,1511.61c-800.39,0-1449.22-323.87-1449.22-723.4s648.83-723.39,1449.22-723.39S4767.8,1556.25,4767.8,1955.78,4119,2679.18,3318.59,2679.18Z" transform="translate(-327.26 -574.53)"/><path class="cls-2" d="M4120.7,1105.55a101.34,101.34,0,0,0-10.6-20.74c-2-3.06-4.89-6.78-6.58-8.87-2.31-2.84-4.84-5.7-7.22-8.14-11.55-12-24.54-20.63-38.51-25.7a84.64,84.64,0,0,0-51.55-2,80.3,80.3,0,0,0-43.61,30.41,65.13,65.13,0,0,0-11.7,29.13,57.7,57.7,0,0,0,7.46,37.09l.83,1.38c9.5,14.78,30.68,19.48,45.51,10a32.94,32.94,0,0,0,12.42-40.91,16.58,16.58,0,0,1,7.34-4.32c7.52-2.38,17.05,1.57,25.38,10.18,1.32,1.33,2.39,2.53,3.38,3.73a46.74,46.74,0,0,1,3.17,4.1,37.65,37.65,0,0,1,3.95,7.52,42.89,42.89,0,0,1,2.49,17.87c-.83,13.17-7.14,27.36-16.91,38a61.89,61.89,0,0,1-36.62,19.84c-13.87,2.14-29-.61-44.3-7.74-12-5.22-22.52-14.81-35.08-32-11.36-15.73-21.32-33.9-30.37-51.12-6.23-12-12.35-24.18-18.52-36.44-12.95-25.71-26.32-52.31-41.2-78.11-25-43.54-50.63-79.28-78.36-109.15-29.71-32.68-70.08-59.49-116.81-77.59A422.36,422.36,0,0,0,3536.51,786c33.27-84.23,24.25-155.19-25.32-192-17.4-12.92-38.38-19.47-62.44-19.47-37.65,0-76.34,16.86-97,35.84-20.63-19-59.34-35.84-97-35.84-24,0-45,6.55-62.44,19.47-49.07,36.48-58.37,106.68-26,190.07-32.83,3.17-67.51,12-107.52,27.26-46.08,17.84-86.45,44.88-116.64,78.08-27.83,30-53.5,65.72-78.44,109.23-14.9,25.83-28.28,52.43-41.22,78.14-6.16,12.26-12.29,24.44-18.5,36.39-9.08,17.27-19,35.44-30.33,51.1-12.62,17.22-23.13,26.81-35.48,32.18-14.83,6.92-29.59,9.87-44.09,7.57a61.84,61.84,0,0,1-36.54-19.88c-9.73-10.6-16-24.79-16.87-37.89a43.33,43.33,0,0,1,2.5-17.91,36.87,36.87,0,0,1,3.94-7.53,46.62,46.62,0,0,1,3-4c1.12-1.34,2.2-2.54,3.6-4,6.61-6.85,14.15-10.78,20.71-10.78a16.34,16.34,0,0,1,4.86.76,15.3,15.3,0,0,1,7,4.38,33,33,0,0,0,13.72,41.54c15.19,8.81,36,3.64,45.57-12.91a57.06,57.06,0,0,0,7-36.11,65.87,65.87,0,0,0-11.81-29.4,80.31,80.31,0,0,0-43.53-30.3,84.92,84.92,0,0,0-51.49,2c-14.05,5.11-27,13.77-38.53,25.7-2.42,2.48-4.95,5.34-7.28,8.2-1.69,2.07-4.58,5.79-6.49,8.72a101.62,101.62,0,0,0-10.67,20.86,107.82,107.82,0,0,0-6.25,45.08c2.16,28.05,14.28,55.29,34.11,76.66,19.38,21.08,46.47,35.37,74.25,39.19,26.24,3.74,53.92-1,80-13.51a126.67,126.67,0,0,0,34.33-23.63,195.93,195.93,0,0,0,24.54-28.9c13.49-19.12,23.94-38.8,34.36-59,6.83-13.41,13.38-26.81,19.88-40.12,12.38-25.34,24.07-49.28,37.37-72.79,4.39-7.82,8.56-15.55,12.67-23.18,14.72-27.3,28.63-53.09,49.38-75.82,48.09-53.48,115.71-83.29,201-88.63l9.58-1.59,1.49,1.35a29.78,29.78,0,0,1,3.18,3c4.22,5.91,9.33,11.16,14.26,16.22,1.93,2,3.83,3.92,5.61,5.85a17.3,17.3,0,0,0,3.84,3.09c34.27,38.09,78.5,68.19,104.9,84.41a59.48,59.48,0,0,0,0,14.4,94.65,94.65,0,0,1-3.89,12.33,198.12,198.12,0,0,1-14,28.8c-12.4,20.86-26.06,38-40.63,50.89-31.94,28.42-76.05,40.7-109,28.79-17.46-6.13-32.38-18.45-38.84-32-7.69-16.71-9.72-36.71-5.08-51.21,3.58-12,12.67-19.22,24.31-19.22l.41,0c2.89.35,4.14.81,6.29,5,2.52,4.46,4.18,12.88,3.53,18.1a38.29,38.29,0,0,0,1.26,15.19c5.71,19.37,27.25,31.25,46.78,25.5a37.7,37.7,0,0,0,25.51-46.72l-.64-2.19a140.83,140.83,0,0,0-9.46-24.39c-3.57-7-7.9-15.09-14.08-22.6a86.15,86.15,0,0,0-23.84-20.07,69.29,69.29,0,0,0-33.25-8.43,93.93,93.93,0,0,0-26.59,4.36,84.9,84.9,0,0,0-25.64,12.93c-14.67,10.89-25.7,27.08-31.09,45.71-8.48,30.21-5.33,61.53,9.58,93.57,14.14,27.59,39.76,49,72.12,60.19,28.15,9.73,60.44,10.34,90.09,1.78a192.66,192.66,0,0,0,75.73-41.55,291.29,291.29,0,0,0,50.9-60.4,292.48,292.48,0,0,0,51,60.45,192.34,192.34,0,0,0,75.62,41.49c29.71,8.58,62,8,90.11-1.77,32.39-11.23,58-32.6,72.37-60.66,14.69-31.57,17.83-62.89,9.31-93.19-5.35-18.54-16.37-34.73-31.09-45.65-7.91-5.81-16-14.3-25.75-17.34-9.55-2.84-18.42-8.69-27.31-8.69h-.06c-11,0-22.5,7.41-32.52,12.91-9,5.18-17.2,14.28-23.6,22.12-6.22,7.55-10.55,16.75-14.2,23.88a145.57,145.57,0,0,0-9.36,24.8l-.71,2.6a37.7,37.7,0,1,0,73.58,6.06c-.64-5.16,1-13.55,3.88-18.6,1.81-3.59,3.07-4,5-4.31l1.4,0c11.62,0,20.73,7.19,24.38,19.49,4.56,14.23,2.52,34.23-5.08,50.75-6.55,13.69-21.45,26-39,32.18-32.47,11.79-76.93-.39-108.89-28.83-14.58-12.92-28.23-30-40.57-50.8a198.82,198.82,0,0,1-14.09-28.9,89.8,89.8,0,0,1-3.91-12.51A60.23,60.23,0,0,0,3382,953c20.87-12.86,53.56-34.89,83.27-62.87,9.94-8.82,17.75-16.3,24.6-23.59a228.52,228.52,0,0,0,18.18-21.91,17.37,17.37,0,0,0,1.53-2.42c85.27,8.44,157.78,39.88,200.44,87.33,31.58,34.61,56.44,67.89,73.89,99,18.83,33.32,37,69.11,54.65,103.74l4.69,9.21a489.93,489.93,0,0,0,35.4,59,202,202,0,0,0,24.89,28.75,127.51,127.51,0,0,0,34.42,23.6c20.33,9.75,42,14.9,62.7,14.9a122.72,122.72,0,0,0,17.67-1.25c27.9-3.82,55-18.11,74.35-39.14,19.89-21.45,32-48.69,34.19-76.8A107.76,107.76,0,0,0,4120.7,1105.55Zm-644.06-301.7c-33.3,64.85-124.89,112.63-124.89,112.63s-91.57-47.78-124.87-112.63c-27.94-54.41-42.41-128.73,5.19-164.09,42.32-31.44,109,.13,119.68,21.24,10.75-21.11,77.39-52.68,119.7-21.24C3519.06,675.12,3504.59,749.44,3476.64,803.85Z" transform="translate(-327.26 -574.53)"/><path class="cls-4" d="M1611.9,1591s-392.9-110.4-522.78,0v266.26s-647.43-352.2-736.26-259.82L750.81,1999s-264.34,1.62-397.95,341.32c0,0,153.68-131.9,282-65.05,0,0,134,29.61,366.69,175.7,0,0,270.58,137.06,451.29,125.35l9.17-359.91s134.34,4,149.92,10.87l4.84,1.63Z" transform="translate(-327.26 -574.53)"/><path class="cls-5" d="M1445.55,2566.88s-148.7-200.64-358.78-221.88h-21.25l23.6-487.71" transform="translate(-327.26 -574.53)"/><path class="cls-5" d="M1457.14,2216.35s-259.44,9.26-391.62,128.65" transform="translate(-327.26 -574.53)"/><path class="cls-4" d="M5133,1591s392.9-110.4,522.78,0v266.26s647.43-352.2,736.26-259.82L5994.1,1999s264.33,1.62,397.95,341.32c0,0-153.68-131.9-282-65.05,0,0-134,29.61-366.69,175.7,0,0-270.58,137.06-451.29,125.35l-9.17-359.91s-134.35,4-149.92,10.87l-4.84,1.63Z" transform="translate(-327.26 -574.53)"/><path class="cls-5" d="M5299.36,2566.88s148.7-200.64,358.78-221.88h21.24l-23.59-487.71" transform="translate(-327.26 -574.53)"/><path class="cls-5" d="M5287.77,2216.35s259.44,9.26,391.61,128.65" transform="translate(-327.26 -574.53)"/></svg>