<svg xmlns="http://www.w3.org/2000/svg" viewBox="0 0 565.36 792"><defs><style>.cls-1{fill:#b65734;}.cls-2{fill:#fbe9e1;}.cls-2,.cls-25{stroke:#dfc1b8;}.cls-10,.cls-11,.cls-12,.cls-13,.cls-14,.cls-15,.cls-17,.cls-18,.cls-2,.cls-21,.cls-22,.cls-23,.cls-25,.cls-6,.cls-7,.cls-8,.cls-9{stroke-miterlimit:10;}.cls-3{fill:#b46c43;}.cls-4{fill:#4e3522;}.cls-5{fill:#103444;}.cls-6{fill:#52308f;stroke:#103444;}.cls-7{fill:#f3dac1;}.cls-7,.cls-8{stroke:#c8ad8f;}.cls-10,.cls-17,.cls-21,.cls-25,.cls-8,.cls-9{fill:none;}.cls-9{stroke:#776349;}.cls-10{stroke:#054759;}.cls-11{fill:#875e47;}.cls-11,.cls-13{stroke:#4c2d22;}.cls-12,.cls-13{fill:#6d4636;}.cls-12,.cls-14{stroke:#333;}.cls-12,.cls-14,.cls-22{stroke-width:0.2px;}.cls-14{fill:#665e50;}.cls-15{fill:#fff;stroke:#d2a08c;}.cls-15,.cls-17,.cls-18{stroke-width:0.5px;}.cls-16{fill:#94554b;}.cls-17{stroke:#c18d7e;}.cls-18{fill:#89c2d6;stroke:#1c3136;}.cls-19{fill:#231f20;}.cls-20{fill:#653b24;}.cls-21{stroke:#171514;}.cls-22{fill:#c5806f;}.cls-22,.cls-23{stroke:#a2615a;}.cls-23{fill:#c1948b;stroke-width:0.3px;}.cls-24{fill:#eee8e4;}</style></defs><title>princesses</title><g id="Meridida"><path class="cls-1" d="M252,16.1S211.43,1.35,205.88,29.62c0,0-35,15.35-33.2,26.41,0,0-10.44,20.16,2.46,20.83,0,0-31.15,26.35-21.72,35.33,0,0,4.6,23.29,7.94,29.87,0,0-3.42,27.12,2.72,36.91,0,0-.94,50.76,6.14,52.78l96.3,11.47,52.17,69.4,27.93,6.63s8.05,6.64,12.83,6.38c0,0,7.7,3.45,12.74,1.85,0,0-9.56-1.57-8.23-5.16,0,0-13.45-2-10-5.45,0,0,1.81-2.66-3.76-2.92l-5-30,20.08-5.47s12.61,17.42,21.67,17.18c0,0,7.48.46,5.9-11.71l.22-29.83s4.12,13.73,8.06,13.73c0,0-3.94-8.94,0-13.73,0,0-4.92-20.12,0-20.12,0,0,8.63,17.63,19.78,15.19,0,0,17.53-23.35,8.77-27,0,0-20.45,22.75-22.58-.79s-2.91-4.67-2.91-4.67,9.82-9.85.79-18.87c0,0-1.59-51-20.18-59,0,0-20.18-9.54-20.18-17.78,0,0,7.18-21.74-3.32-26.67,0,0,8.05-9.37,8.05-4.1,0,0,4.74,3.62,3.16-6.75,0,0,4.48-16.68,7.37-5.89,0,0,14,18.91,19-2.14,0,0-9,9.52-11.86,2.14,0,0-16.85-12.68-17.12-4.1,0,0-6.84,17-7.63,8.32s-.79-2.08-.79-2.08-2.37-5.82-8.17-2.14c0,0-4.74-13.78-14.49-12.42,0,0-7.11,2.56-6.84-4.5,0,0,4.74-28.91-7.38-32.86,0,0-13.69,2.63-10.27-6.85,0,0-18.45-11.33-26.48-6.06,0,0-6.18,5.27-8,0,0,0-16.9-7.11-19.51,2.64l-3.14,4.74Z"/><g id="Skin"><path id="Skin-2" data-name="Skin" class="cls-2" d="M262.85,42.81l-17.39-2.43S211.9,65.86,215.94,87.69l-.34,13.85-4.78,3.54s1.77,3.54,7.29,3.54c0,0,8.18,11,17,17,0,0,14.81,16.58-4.86,41.33l-18.35,15.47,56.37,39.8h36.17l5.32-42-17.3-6.38s-20.23-1.33-15.17-25l2.13-14.38,3.24-5.85s16.81-5.62,20.6-18.68c0,0,4.63-13.06,3.79-21.06l-2.23-16.51s-6.7-31-24.26-29.12l-9.94.69Z"/><path class="cls-2" d="M313.38,320.82s4.2-2,5.31-1.68l6.54-.55s4.81-.63,4.88-1.89l1.61-2.51,7.94,7,.91,5.43-2.37,3.49-1.12.56s-8.22,16.73-10.1,16c0,0-8.23-17.54-10.2-17.54,0,0,1.62-3.24-.81-3.36Z"/></g><path class="cls-3" d="M231.21,59.79l11.53-5.55,3.91-.68,13.48,1.49s.27,5.12,0,5.79c0,0-10.27-1.93-11.6-3.33l-2-.31s-3.77-1.05-5.61,0Z"/><path class="cls-3" d="M278.88,56.7s-4,5.35,0,5.46c0,0,7.16-1.84,7.91-2.39,0,0,5-1.43,5.72-1.23l4,2-4.3-3.82a28,28,0,0,0-4.16-.41S279.65,55.5,278.88,56.7Z"/><g id="SHOES"><path class="cls-4" d="M181.63,762.27s-11,25.38,5.68,25.38c0,0,20.84,6.44,22.73-20.84l-3.79-19.7Z"/><path class="cls-4" d="M381.51,747.11s37,16.79,48.72,5.46c0,0-.42-8.76-4.7-9l-25.22-11.54-8.56-4.49Z"/></g><g id="Dress"><g id="Dress-2" data-name="Dress"><path class="cls-5" d="M181.47,764s-33.78,18-38.28-8.44l6.46-158.18L170,455.28l8.25-54.47s7.43-48.69,20.64-59c0,0,1.84-4.73-1.27-4.73,0,0-7.78.89-4.89-8.89l-28.46-29.35,5.32-37.24s14.08-54.45,19.71-58.52c0,0,5.71-17.92,15.29-17.37,0,0,31.12,2.58,37.2,5.34,0,0,23.57,5.16,28.73,3.13l6.63-.55,10.49,23.57a25.58,25.58,0,0,0,4.79-22.1s18.42-5,18.79-11.41V179s11.42,5.81,11.65,9.53L350,228l9.76,16s4.89,21.15,2.33,31.15l-18.36,47.41-3.58.24-2.59-3.27L336,317.33,332.61,316l-1.69-.67-1.57.78-3.27-2.36.23-19.48s.67-23.07-1.24-28.37l-7.2-23-3.66,18.13s-6,32.75-4.7,38.62c0,0,3,23.17,6,25.86l8.06,22.16,14.44,30.9s12.93,35.09,19,41,15.11,31.9,15.11,31.9l16.29,35.43,52.06,103,41,77.29s.48,9.48-4.66,11.28c0,0-12.61,22.37-34.72,20.31l11.06,23.15s2.56,6.7-6,9.13c0,0-10.35,11.66-38.12,3.78,0,0-22.06-2.76-25.4,12,0,0,.85,17.62-9.74,16.73,0,0-12.47,1.55-12.91-10.7,0,0-1.76-13.13-3.42-5.63l-1.43,4.42s7.36,15.51-3.2,19.68-22.34,5.41-23.85-.71L324,755.35s.35-2.3-4.52.89l-13.75,8.69s-19.85,7.89-33.65.61c0,0-24-2.22-29.92,9.28,0,0-12.54,25.56-31.23,10.38l-3-17.76S191.64,754.81,181.47,764Z"/><path class="cls-6" d="M213.82,267.52s-4.16,16.81-5.2,16.81l-.41,8.44s3.63,2.15,2.81,3.81l8.51,6.61a1.78,1.78,0,0,0,1.32-1.66s1.65-18.34.58-21.89l-6-14.3S213.4,263,213.82,267.52Z"/></g><g id="Light_Dress" data-name="Light Dress"><path class="cls-7" d="M177.4,295.67l-13,3.23s-7,11.33,0,22.82c0,0,13.27,24.77,26.87,9.88l4.37-12.3-1-2.11L192.77,316Z"/><path class="cls-7" d="M182.25,293.4s8.1,18,14.57,19.75l9.06-12s-1-9.23-6.79-8.74C199.09,292.43,185.33,293.24,182.25,293.4Z"/><path class="cls-8" d="M203.5,291.89s3.1,8.9,5.75,6.37c0,0,3.35-1.7,0-4.35C209.25,293.91,203.31,293,203.5,291.89Z"/><path class="cls-7" d="M273.59,360.85s12-14.07,11.43-17.92l2.65-.6s4-7.1,4,.6c0,0,1.61,3.64-.7,4.08,0,0,1,3.88-1.72,3.81,0,0-1.56,5.59-4.1,3.87,0,0-2.46,7.53-4.62,4.32,0,0-.22,4.55-2.91,3C277.59,362,273.84,365.9,273.59,360.85Z"/><path class="cls-7" d="M188,204s6.33-3.8,7.6-2.76l2.88-5.07s-6.8.46-9.33,3.91Z"/><path class="cls-7" d="M201.79,196.21l-3.34,5.87s15.32,13.83,16.24,19.36l3.69-4S203.86,195.86,201.79,196.21Z"/><path class="cls-7" d="M216.64,225.87s4.89,11.58,3.39,16.95l2.16-8.48-2.35-13.65Z"/><path class="cls-7" d="M203.86,185.72s-1-5,1.81-4.74c0,0,26.59.84,45.53,9.47,0,0,23.39-1.53,25.48,0,0,0,25.48,2,26.18-5.85,0,0,7.94-10.3-2.78-9.33,0,0-7.8-1.39-8.64-1.39s-3.9-3.48,2.09-3.2c0,0,18.24-3.2,15.74,6.68,0,0,7.79,11.84-15.46,17.27,0,0,.28,20.61-4.32,22,0,0-1.76.83-2.66-1.54l-8.48-18.88s-.57-2.38-4.41-1.93c0,0-18.88,1.81-21-.34l-18.66-4.52S206.14,184.05,203.86,185.72Z"/><polygon class="cls-9" points="292.67 208.95 282.17 203.41 293.82 198.44 278.21 198.01 293.82 203.19 284.85 210.29 292.99 210.29 292.67 208.95"/><path class="cls-7" d="M328.12,254.86h-3.28s-1.1,5.48,10.07,2.74l5.47-3.72,6.24-.55-3.17-2.3-7.73,2Z"/><path class="cls-7" d="M346.62,248.94s-.81,1.3,4,0c0,0,1,3.4,0,4.05,0,0,.92,3,6.28,2.49l4.32,2.23s-.52-5.89-.52-6.68-3.53-10.34-3.53-10.34Z"/><path class="cls-7" d="M324.16,317.51s-.15,1.72,4.94.83c0,0,1.95-2.4,2.92-.83,0,0,.75,1.05,2.85.75,0,0,.52,1.95,2.09,1.8,0,0,2.32-.23,1.35,1.87,0,0-1.42,2.25.9,2.1,0,0,1.12,2.09-.45,3.29,0,0-1.5,3.37-.67,3.37,0,0,5.61-2,5.54-3.82,0,0-.9-1.42-1.65-1.27,0,0,1.27-2.92-1.2-3.3,0,0-.37-2.84.3-3l-.67.15s1.72-1.27-.3-1.27c0,0-2.32.52-2.25-.75,0,0-1.65-2.62-2.92-1.35,0,0-2.62-1.35-2.62-1.95,0,0-2.81-1-3.44,1.65,0,0-2.48.82-2.85,0C326,315.79,323.56,315.12,324.16,317.51Z"/></g><path class="cls-10" d="M202.67,742s-6.85-225.62-12.53-242.09"/><path class="cls-10" d="M292,727.56C260.74,690.8,236.47,459.2,236.47,459.2s-3.23-36.4,13.12,0c0,0,39.76,255.71,69.23,276.51"/><path class="cls-10" d="M351.76,735.71s-86.68-229.7-65-282.57c0,0,10.4-26.88,17.33,9.53,0,0,45.94,249.64,58.94,273"/><path class="cls-10" d="M381.51,721s-60.1-267.88-58.36-277.39c0,0,6.07-38.42,19.07-.57l96.22,249.35"/></g><path class="cls-2" d="M289.89,345.72l8.55-1.32s4.87-.92,5.26,0l11.44,4.21-5.92,2.89s-4.6-1.31-3.42,1.32l6.45,9.2,5.91,8.55s1.19,5.52,0,7.62l-5.46,5.47s-2.39.35-3,0a.26.26,0,0,1-.14-.22c0-.72-2.73,4.49-5.85-.07a7,7,0,0,1-.62.7c-1.18,1.18-3.87,3.14-6.61,0,0,0-16.17-7.9-18.17-21.94Z"/><path id="Stchel" class="cls-11" d="M178.37,385.48s33-11.76,41-11.38l55.77-10.25s47.79-16.69,47.41-19.72l-5.86-14.66,9.09,16.64,1.89,5.32s0,12.53-14.76,10.81l-77.47,23.24-57,12.66Z"/><g id="Arrows"><path class="cls-12" d="M148.35,315.26c1.25.41,15.78,29.57,15.78,29.57v2.7l-1.79-.6-1.29-.44-14.57-31.23Z"/><polygon class="cls-12" points="173.57 371.36 175.89 369.18 164.44 346.01 162.47 345.2 162.34 346.93 173.57 371.36"/><path class="cls-12" d="M129.34,322.91c1.25.41,15.79,29.56,15.79,29.56v2.71l-1.8-.6-1.29-.44-14.57-31.23Z"/><polygon class="cls-12" points="154.56 379.01 156.88 376.83 145.43 353.66 143.46 352.85 143.34 354.58 154.56 379.01"/><path class="cls-12" d="M118.94,328.82c1.25.41,15.78,29.56,15.78,29.56v2.71l-1.79-.6-1.29-.44-14.57-31.23Z"/><polygon class="cls-12" points="144.16 384.92 146.48 382.74 135.03 359.57 133.05 358.76 132.93 360.49 144.16 384.92"/><path class="cls-12" d="M142.47,320.31c1.25.42,15.79,29.57,15.79,29.57v2.71l-1.79-.61-1.3-.43L140.6,320.31Z"/><polygon class="cls-12" points="167.69 376.42 170.01 374.24 158.56 351.07 156.59 350.25 156.47 351.98 167.69 376.42"/><path class="cls-12" d="M124.44,326.18c1.25.42,15.79,29.57,15.79,29.57v2.71l-1.79-.61-1.3-.43-14.57-31.24Z"/><polygon class="cls-12" points="149.66 382.29 151.98 380.11 140.53 356.94 138.56 356.12 138.44 357.85 149.66 382.29"/><path class="cls-12" d="M136.6,324.79c1.25.42,15.78,29.57,15.78,29.57v2.71l-1.79-.61L149.3,356l-14.58-31.24Z"/><polygon class="cls-12" points="161.82 380.9 164.13 378.72 152.69 355.55 150.71 354.73 150.59 356.46 161.82 380.9"/><path class="cls-13" d="M134.62,369.15s-6.75,3.28-3.47,7.52l12.72,24.87,3.47,2.89L174.14,448l12.34-2.5,1.35-43.19,2.31-26.22-8.1.77-7.52-15.23-12.72,10.8S127.29,388.24,134.62,369.15Z"/><path class="cls-14" d="M143.14,300.62l.51-5.73s10.26,21.26,9.75,25.34l-2.54,2.31h-5.34l-9.75-19.94,5,1Z"/><path class="cls-14" d="M138.16,306.82l.51-5.73s10.26,21.27,9.75,25.35l-2.54,2.31h-5.34l-9.76-19.94,5.06,1Z"/><path class="cls-14" d="M130.91,306.82l.51-5.73s10.26,21.27,9.75,25.35l-2.54,2.31h-5.35l-9.75-19.94,5.05,1Z"/><path class="cls-14" d="M126,308.26l.51-5.73s10.26,21.27,9.75,25.35l-2.54,2.31h-5.35l-9.75-19.94,5.05,1Z"/><path class="cls-14" d="M123.91,318.08l.51-5.73s10.26,21.27,9.75,25.35L131.63,340h-5.35l-9.75-19.94,5,1Z"/><path class="cls-14" d="M117.86,321l.51-5.73s10.26,21.27,9.75,25.34l-2.54,2.32h-5.34L110.48,323l5.06,1Z"/></g><g id="Bow_and_Arrow" data-name="Bow and Arrow"><g id="Face"><path class="cls-15" d="M282,74s3.83-5.54,9-3.42c0,0,6.36,3.63,6.42,5.54,0,0,.62,4.24-1.71,5.88,0,0-12,5.34-13.74-3.08C282,78.9,281.37,78.56,282,74Z"/><g id="Face-2" data-name="Face"><path class="cls-16" d="M266.61,94.6s.8-1.83,2.31-1c0,0,.32,2-.38,2C268.54,95.62,266,95.4,266.61,94.6Z"/><path class="cls-16" d="M273.57,95.6s-.47-1.94,1.21-2.22c0,0,1.5,1.43.94,1.85C275.72,95.23,273.59,96.59,273.57,95.6Z"/><path class="cls-17" d="M262.61,95.62s-2.34-4.28,3-7.45"/><path class="cls-17" d="M277.75,96s1.51-3.09,0-4.06"/><line class="cls-17" x1="262.89" y1="65.34" x2="265.64" y2="81.98"/><path class="cls-17" d="M254.92,99.2s-5.19,3.12-1.79,7.75"/><path class="cls-17" d="M284,100.62s3.4,4.92,1.89,6.33"/><path class="cls-17" d="M280.9,127.17s-10,9.65-27.45-6"/><circle class="cls-18" cx="287.78" cy="77.76" r="5.8"/><circle class="cls-19" cx="287.78" cy="77.76" r="2.14"/></g><g id="Left_eye" data-name="Left eye"><path class="cls-15" d="M235.28,75.25s2.27-4.84,9.08-5.68c0,0,8.86-1.13,10.37,8.9,0,0-8.1,8.06-16.19,1.17C238.54,79.64,235.43,76.61,235.28,75.25Z"/><circle class="cls-18" cx="245.73" cy="76.33" r="5.8"/><circle class="cls-19" cx="245.73" cy="76.33" r="2.14"/></g></g><path class="cls-20" d="M181,190.52,119.81,89.86l-29-41.07S82.37,37.92,82.37,33.9c0,0,13.18,2.55,12.52,8.78L124,86l69.64,107.18S372.93,424,399.22,432.5l4.93,5.58s17.74,3.62,14.46,19.72c0,0,4.5,1.49,4.5,4.83,0,0,8.13,5.37,6.24,11.47,0,0-8.71,2.36-9.73-7L408.15,454.5s-16-3.49-14.81-13.22c0,0-4.94-4.65-3.93-7.26l-6.68-5.67L362.11,408.6l-22.06-20.08S180.55,198.91,181,190.52Z"/><path class="cls-21" d="M95,48.36,162.71,107l49.2,42.31,61.27,54.63s28.37,26.56,28.37,37.43l22.34,40.14L370.07,369l34.08,69.09"/></g><g id="Mouth"><path class="cls-22" d="M253.45,102.36s11.7-1.78,15.07-1.11c0,0,15,2,15.23,2.83,0,0,.43,2.13-.49,2.87,0,0-7.31,5.48-13.39,5.23,0,0-13.12-1.72-13.87-4.61C256,107.57,252.13,104.63,253.45,102.36Z"/><path class="cls-23" d="M256.87,104.49s0,0,.14.32c1,2.32,12.21,8.61,22.85,2.46a1.11,1.11,0,0,0-.24-1.88c-1.51-.42-1.77-.26-6.21-.17Z"/><path class="cls-24" d="M257,104.49s0,1.15.73,1.11c0,0,3.26,1.7,3.68,1.18,0,0,3.08,1.11,3.5.63,0,0,3.37,1.59,4.51.48,0,0,4.3.35,4.34-.59,0,0,1.55.54,2.06.2a.33.33,0,0,0,.16-.3s3.33,1,3.8-.27a1,1,0,0,0,.05-.32c0-1.74-.24-1.22-.24-1.22h-3l-10.1-.18Z"/></g><path class="cls-10" d="M364,448.35s-6-35.88-19.49-25.51c0,0-5.4,1,8.29,36.3"/><line class="cls-25" x1="303.72" y1="383.33" x2="295.91" y2="375.17"/><line class="cls-25" x1="309.15" y1="382.28" x2="299.81" y2="372.23"/><line class="cls-25" x1="316.33" y1="380.02" x2="304.48" y2="369.29"/><line class="cls-25" x1="318.65" y1="376.27" x2="309.15" y2="366.01"/></g></svg>