<svg xmlns="http://www.w3.org/2000/svg" viewBox="0 0 565.36 792"><defs><style>.cls-1,.cls-22{fill:#231f20;}.cls-1{stroke:#0c0e0d;}.cls-1,.cls-10,.cls-11,.cls-13,.cls-14,.cls-16,.cls-18,.cls-19,.cls-2,.cls-20,.cls-3,.cls-5,.cls-7,.cls-8{stroke-miterlimit:10;}.cls-2{fill:#d07f4f;}.cls-14,.cls-2,.cls-3{stroke:#7b391a;}.cls-3{fill:#52308f;}.cls-4{fill:#0e1014;}.cls-5{fill:#d63b31;}.cls-11,.cls-13,.cls-5{stroke:#5b1610;}.cls-6{fill:#ad8464;}.cls-7{fill:#f6d6b2;}.cls-7,.cls-8{stroke:#ad8464;}.cls-8{fill:#f8e0c5;}.cls-9{fill:#ffd079;}.cls-10,.cls-13,.cls-17,.cls-20{fill:#fff;}.cls-10{stroke:#ffd079;}.cls-11,.cls-14,.cls-19{fill:none;}.cls-12{fill:#5b1610;}.cls-15{fill:#4f2d1e;}.cls-16{fill:#44b2c3;stroke:#4f2d1e;}.cls-18{fill:#d0706d;}.cls-18,.cls-19{stroke:#721813;stroke-width:0.5px;}.cls-20{stroke:#351414;}.cls-21{fill:#5f3e1b;}</style></defs><title>princesses</title><g id="Moana"><path class="cls-1" d="M236,284.73s-30.79-11-30.79-24.43c0,0-19.85-8.46-19.85-26.32,0,0-10.26-42.8-7-53.69,0,0-15.35-7-5.75-36.5,0,0-5.12-52.15,10.24-57.77,0,0,16.65-31.86,27.53-31.86,0,0,20.84-40.33,45-38.41,0,0,59.15,1.28,62.13,11.52,0,0,19.61,23.05,17.38,32.65,0,0,14.88,17.18,18.55,23.85a4.15,4.15,0,0,1,.79,2.3c-.78,2.91-2.34,8.79,4.29,7.22,0,0,8.58,2,8.58,7.26,0,0,10.14,6.77,9.75,10.28l.39-3.51s.78,7.8-7.41,5.46c0,0,37.83,28.47,40.95,46.41,0,0-9,15.31,3.12,25.6,0,0,15.81,18.26,15.81,22.57,0,0,7.9,9.34,6.71,13.17,0,0-2.4,6.85,1,7.62,0,0-2.88,4.49-6,0,0,0-5.75,11.29,1.67,12.5,0,0,2.64,7.29,14.37,7.84,0,0-11,10.37,4.08,9.89,0,0,6.46,3.83,8.14.48,0,0-8.38,8.86-14.61,4.31,0,0-9.1,5.51-11,1.19,0,0,1.92,12.22,10.78,8.63,0,0-16.53,14.85-22.51,8.14,0,0-8.39,11-13.66,0,0,0,12,18.92-15.57,14.85,0,0,11.78,14.42-18.93,17.66,0,0-54.71,1.34-68.09-9.15Z"/><g id="Skin"><path class="cls-2" d="M160.87,588.06S141.4,640.63,144,686.71l-2.23,32.68v7.22s-2.58,10-1.72,14.27L128.7,770.27s-2.75,13.07,1.38,13.41c0,0,5.33,1.55,5.67-.69,0,0,3.25,5.35,8.59,1.21,0,0,2.41,6,8.09.69,0,0,6,5.32,10.65-.18,0,0,12.38,7.74,18.4-4.64,0,0,3.61-6.36-2.41-16.33,0,0-1.2-22-.51-22.86l4-29.74,16.12-41.78s14.44-32.49,14.1-44.18v-28l32.09-27.11,59.34,10,1.16,23.77s-1.16,29.28,4.93,39.72l15.37,31.31s13.75,23.15,11.74,43l.2,10.53s-7,20.31,11.33,21.31c0,0,32.69.63,35.74,3.86,0,0,9.68,6.1,24.21,3.59,0,0,15.06,7.35,19.37.72,0,0,6.27,1.43,6.27-2.51,0,0,3.41-.18,1.8-4L425,743.69l-20.27-14.35s-19.18-12.55-21-15.42c0,0-11.11-7.71-12-28.51,0,0-4.15-70.06-6.69-70.29l-6.45-23.27L316.2,359.44l10.71-1.78s11.25-.64,23.34-22.91l28.63-43.49s18-35.85,11.88-49.85c0,0-9.12-17.81-15.06-23.54,0,0-21.42-21-21.42-22.06v1.06S336,171.42,325.85,168.23c0,0-17-8.69-33.09-6.78,0,0-5.81-6.77-5.81-9.81,0,0,21.63-17.62,23-20.64,0,0,13.6-11.49,15-26.61,0,0,1.87-28.17.81-34.54,0,0,.19-18.92-12.44-18.82l-52.28-6.62s-17.34,9.94-16.7,12.2c0,0-15,21.93-15,24,0,0-11.94-5.11-14,9,0,0,.14,16.65,12.84,13.54,0,0,3.64,21.5,11.51,28.86l.76,23.61s-6.65,11-22.41,9.57c0,0-13.58,2.42-23.81,11.91l-15.5,14.62-31.87,15.68s-34.14,19.47-41.23,34.4c0,0,0,4,1,5.67l9.84,18.4s9.37,17.33,13.75,19.72l29.89,26.91S180.3,326.61,180.3,329c0,0,11,11.53,22,10,0,0,7.31,9.93,12.27.42l-6.13,185.42Z"/><path class="cls-3" d="M219.7,221.07l-14.51,9.07s-32.65,15.6-38.82,16.69c0,0-12,2-7,10.94,0,0,21.51,35.31,30.83,42.12,0,0,1.08,1.62,4.13,1.79l22.22,1.26s11.9,1.17,13.16,10.13l5.29.75,2.78-9.58s2.52-8.58,0-11.85l-10.89-32.94s-6.78-15.56-4.27-26.85l12.8-11.53S229.32,212.55,219.7,221.07Z"/><path class="cls-3" d="M321.49,317l6.93-29.18,7.29-45.94,4.75-1.83s16.77,9.12,12,13.5c0,0-9.48,17.13-10.58,28.08,0,0-9.22,31.47-10.81,31.47C331.1,313.07,323.78,320.27,321.49,317Z"/></g><g id="Brows"><path class="cls-4" d="M244.37,76.36s8.56-10.27,16.09-7.87l13.19,5.13s7.28,2.57,9,1.72l-1.16,5a4.19,4.19,0,0,1-5.14,1S261,72.6,254.13,74.14C254.13,74.14,245.23,74.31,244.37,76.36Z"/><path class="cls-4" d="M305.49,79.81s-4.75-1.43-4.75,2c0,0-1.62,5.13,1.61,5.13,0,0,18.16-2.76,19.4,0l1.62,1s2.66.66,1.14-2.76l-1.71-3.61s-1.34-2.3-5.71-2.1Z"/></g><path class="cls-5" d="M222.22,245s-1.81-12.65,2.41-15.06c0,0,30.43-19,40.07-22.3,0,0,31.33-8.13,52.42-7.83,0,0,18.24-1,18.85,7.26a5.69,5.69,0,0,0,3.63,4.84s11.23,12.87,0,23.72c0,0,1.84,12-1.51,22.64L337,287.88s-2.48,3.27-5.17,0c0,0-4.34-3.25-9,1.45,0,0-6.88,7.25-15.56,2.17S295,293.31,295,293.31a18.06,18.06,0,0,1-12.3,0c-6.7-2.41-10.14,1.07-10.14,1.07s-8.38,3.78-14.82,0-10,1.68-10,1.68-7,3.82-9.73-2.32c0,0-4.25-21.64-7.64-25.88C230.33,267.86,222.54,248.57,222.22,245Z"/><path class="cls-6" d="M162.23,548.65l-9.09,40.22S335.53,623.8,410.33,563.1c0,0,3.4-1.3,0-4.78L376,517.81,304.85,416.14l-90.68,24.35Z"/><path class="cls-7" d="M161.57,532s52.69,15.3,53.11,6l19.13-81.58,21.24,103.68s119.4-31.87,127.05-48.87l-30.59-54.81L329,403.72l-96.88-12.33H182Z"/><path class="cls-8" d="M229,316.66s-1.5-15.51,7-11.51c0,0,65.56,30,88.08,11.51,0,0,4.5,10,0,14.51l2,46.07s15.33,16.25,10.58,32.72c0,0-29.21,32.59-75.67,35.34,0,0-23.62-37-30.31-73.61l-14.17,31.88-38.19,2.37s11-43.7,26-55.51C204.28,350.43,232.4,322.66,229,316.66Z"/><path class="cls-9" d="M195.32,466.75s27,15.6,23.6-15.61-21.7,2.67-21.7,2.67,11.8-19.8-.38-21.7S185,449.24,185,449.24l-9.89,5.33-5,22.83,8.37-8.37S168.3,482,170.2,483.49c0,0,12.56,14.09,15.22,3.81l.76-14.46s.83,26.15,8.41,18.21c0,0,16.15-9,13.67-14.79Z"/><polygon class="cls-10" points="180.24 467.38 180.24 478.73 186.41 470.83 194.89 474.71 193.45 464.94 204.66 461.06 192.45 455.89 194.32 445.54 189.14 451.58 186.27 446.84 184.12 456.75 177.79 459.34 181.24 464.37 180.24 467.38"/><path class="cls-9" d="M185,461.34s-.73,4.62,3.73,3.25S188,456.24,185,461.34Z"/><path class="cls-9" d="M273.12,460.3s-11.87-10.79-17.69,0c0,0-9.71,27.4,1.51,23.52l13.81-5s-6.91,9.92-10.79,9.92c0,0-9.07,3-4.53,7.12,0,0,24.29,18.13,27.25,0l1-4.31,3,10.36s2.15,8.63,10.78,3.45c0,0,10.15-3.67,7.13-8.2l-11.87-14s20.28,11,20.93,1.94c0,0,3-17.26-3.24-17.69l-9.06.86,9.93-7.12s-8.42-11.87-14.89-3.88l-11,8.2S281.5,439.58,273.12,460.3Z"/><path class="cls-9" d="M325.34,444.55s-24.17-6.14-11.87,7.72c0,0-2.8,11.7,15.54,9.75,0,0-10.39.65-9.51,8.2,0,0,13.61,25,17.93,8.42,0,0,8.84,15.54,16.4,0,0,0,1.07-8.63-5.18-9.06,0,0,6.9,1.51,6.9-2.38l-3.45-8.63s-2.81-14.89-6.91-12.08c0,0-6.69,2.92-6.69,5.78,0,0-.43-14.75-4.53-9.08,0,0-5.39-1.67-4.53,5.89Z"/><polygon class="cls-9" points="342.4 518.58 342.72 530.73 353.41 526.59 342.4 518.58"/><polygon class="cls-9" points="332.78 522.74 332.27 534.89 343.22 531.49 332.78 522.74"/><polygon class="cls-9" points="321.83 526.14 321.32 538.28 332.27 534.89 321.83 526.14"/><polygon class="cls-9" points="369.97 505.03 372.19 516.99 382.1 511.23 369.97 505.03"/><polygon class="cls-9" points="361.36 509.32 362.33 521.43 372.79 516.73 361.36 509.32"/><polygon class="cls-9" points="350.91 514.02 351.88 526.14 362.33 521.43 350.91 514.02"/><polygon class="cls-9" points="280.34 539.28 279.83 551.43 290.78 548.03 280.34 539.28"/><polygon class="cls-9" points="269.39 542.68 268.88 554.83 279.83 551.43 269.39 542.68"/><polygon class="cls-9" points="258.44 546.08 257.93 558.22 268.88 554.83 258.44 546.08"/><polygon class="cls-9" points="313.19 528.81 312.68 540.96 323.63 537.56 313.19 528.81"/><polygon class="cls-9" points="302.24 532.21 301.73 544.36 312.68 540.96 302.24 532.21"/><polygon class="cls-9" points="291.29 535.61 290.78 547.75 301.73 544.36 291.29 535.61"/><polygon class="cls-9" points="188.19 525.34 182.25 535.79 192.46 537.89 188.19 525.34"/><polygon class="cls-9" points="177.99 523.24 172.04 533.69 182.25 535.79 177.99 523.24"/><polygon class="cls-9" points="167.78 521.14 161.83 531.59 172.04 533.69 167.78 521.14"/><polygon class="cls-9" points="207.72 528.42 202.79 539.39 213.15 540.51 207.72 528.42"/><polygon class="cls-9" points="198.53 527.2 192.58 537.65 202.79 539.75 198.53 527.2"/><path class="cls-5" d="M228,314.88s3-2.8,3,0v4.67s10.5,6.3,9.34,10.26l36.41,4s45,2.54,46.08,0c0,0,2.7.18,1.44,6.12,0,0,6.3,7.38,1.8,13.49l-.36,18.9s1.08,3.87-4.5,4.9c0,0-37.43,7.52-55.07-6.52,0,0-32.11-17.09-32.11-21,0,0,5.36,31.51,8.63,38.65l5.5,16s6.77,13.54-14.51,13.54l-1.77-3.86s-14,3.7-14.35-4.52l-.8-6s-23.05,11.28-22.25-2.26,4-32.41,6.45-35.55c0,0,12.73-19.9,14.35-20.22,0,0-2.42-10,.64-15,0,0,5.16-9.83,8.06-9.83A5.56,5.56,0,0,0,228,314.88Z"/><path class="cls-11" d="M219.22,399s-6.33-33.82,0-40.27"/><path class="cls-11" d="M236,399s-9.22-26.75-6.45-50.11"/><line class="cls-11" x1="224.62" y1="404.5" x2="224.62" y2="410.96"/><line class="cls-11" x1="222.41" y1="405.47" x2="222.41" y2="410.1"/><line class="cls-11" x1="219.78" y1="405.47" x2="220.2" y2="410.1"/><path class="cls-11" d="M241.25,408.41s7.37-2,5.37,1.69"/><line class="cls-11" x1="202.73" y1="393.57" x2="202.73" y2="398.97"/><line class="cls-11" x1="205.05" y1="394.1" x2="205.05" y2="398.31"/><line class="cls-11" x1="199.16" y1="393.57" x2="199.16" y2="397.89"/><path class="cls-11" d="M232.51,338.34s6.87-6.95,5.78-8.86c0,0-6.41-8.72-16.63-1.5"/><path class="cls-11" d="M227.11,342.3s-7.78,7.22-10.71,0"/><path class="cls-11" d="M217.81,339.3s1.8,2.59,3.85,2"/><path class="cls-11" d="M224.93,335.75s-3.79-7.09-5.71-5.86"/><line class="cls-11" x1="235.99" y1="345.51" x2="238.4" y2="342.3"/><line class="cls-11" x1="238.4" y1="348.86" x2="240.1" y2="343.9"/><line class="cls-11" x1="240.1" y1="349.94" x2="243.06" y2="346.38"/><line class="cls-11" x1="258.6" y1="361.23" x2="260.27" y2="356.6"/><line class="cls-11" x1="261.56" y1="364.19" x2="264.52" y2="357.9"/><line class="cls-11" x1="264.52" y1="364.93" x2="266.74" y2="361.04"/><line class="cls-11" x1="273.22" y1="362.99" x2="274.33" y2="364.93"/><line class="cls-11" x1="278.77" y1="362.99" x2="278.77" y2="365.67"/><line class="cls-11" x1="281.73" y1="366.41" x2="283.95" y2="366.41"/><line class="cls-11" x1="278.77" y1="372.33" x2="278.77" y2="368.63"/><line class="cls-11" x1="274.33" y1="370.48" x2="276.18" y2="367.71"/><line class="cls-11" x1="269.33" y1="368.63" x2="272.48" y2="367.71"/><line class="cls-11" x1="290.24" y1="367.71" x2="287.65" y2="373.91"/><line class="cls-11" x1="294.5" y1="368.17" x2="290.24" y2="375.11"/><line class="cls-11" x1="297.65" y1="369.09" x2="293.76" y2="375.11"/><line class="cls-11" x1="314.48" y1="370.81" x2="314.48" y2="376.22"/><line class="cls-11" x1="317.44" y1="370.48" x2="317.44" y2="375.11"/><line class="cls-11" x1="320.4" y1="370.48" x2="320.4" y2="373.91"/><line class="cls-11" x1="301.72" y1="370.48" x2="301.72" y2="372.79"/><line class="cls-11" x1="305.97" y1="370.48" x2="305.05" y2="372.33"/><line class="cls-11" x1="307.64" y1="372.79" x2="310.97" y2="370.81"/><line class="cls-11" x1="301.72" y1="376.22" x2="299.87" y2="377.24"/><line class="cls-11" x1="304.16" y1="376.73" x2="304.16" y2="378.47"/><line class="cls-11" x1="307.64" y1="376.22" x2="308.23" y2="377.6"/><path class="cls-11" d="M325.94,348.86s-11.57,6.41-25.15,4.94S257,342.3,257,342.3"/><path class="cls-12" d="M229,260.88s105.79-17.66,110.65-15.45l-2.21,24.28s-80.07,19-104.95,10.16C232.51,279.87,231,266.62,229,260.88Z"/><path class="cls-11" d="M232.51,243.22s44-20.76,48-20.76c0,0,54.76-10.6,59.18-9.27"/><path class="cls-11" d="M334.82,204S269,190.69,223.93,234"/><polyline class="cls-11" points="241.58 286.76 241.58 291.8 245.57 286.76 250.61 289.28 254.47 285.28 258.6 290.32 262.77 285.28 266.33 290.32 269 285.28 273.74 291.8 277.6 285.28 280.56 288.54 286.09 282.21 291.6 287.01 295.68 282.21 298.35 284.98 302.21 282.21 304.88 285.28 309.32 280.83 309.32 286.32 313.47 280.83 316.44 283.5 320.59 278.16 322.67 283.5 325.94 278.16 327.7 282.21 331.41 276.47 331.41 282.21 334.82 274.88 334.82 283.34 336.58 274.88"/><polyline class="cls-11" points="227.11 236.98 231.52 232.13 229.02 238.37 233.5 236.23 230.3 240.65 237.91 236.39 258.45 227.26 248.87 228.15 254.5 224.52 247.34 226.19 254.19 220.26 273.21 213.87 269.56 217.21 274.89 217.37 270.02 220.26 277.02 220.26 298.78 215.39 294.51 213.07 298.78 211.13 292.23 211.13 299.54 207.48 316.73 205.95 314.14 210.06 319.93 209.76 315.82 212.34 322.21 212.34 330.27 211.58 326.32 209 330.27 208.39 326.17 207.48 334.82 207.02 333.93 209.61 336.58 209.91 333.62 211.58 337.73 211.58"/><path class="cls-13" d="M223.93,245.23s-4.22,5-.52,5.71c0,0-3,5,1.24,4.82,0,0,74.56-7.29,87.17-18.16l33.91-14.3s.87-4-1.08-4c0,0,4.61-5.66-5-4.13,0,0-42.2,20.95-51.77,20.15,0,0-31.46,5.5-47.8,6.37Z"/><path class="cls-11" d="M223.41,250.94a599.5,599.5,0,0,0,62.68-10.29c26.76-6.13,48.73-17.35,58.56-21.31"/><g id="Toes"><line class="cls-14" x1="136.03" y1="779.32" x2="136.03" y2="773.83"/><line class="cls-14" x1="143.91" y1="773.83" x2="143.91" y2="779.32"/><line class="cls-14" x1="153.69" y1="773.83" x2="153.69" y2="779.32"/><line class="cls-14" x1="164.44" y1="773.83" x2="163.24" y2="780.99"/><line class="cls-14" x1="414.63" y1="745.52" x2="423.72" y2="751.46"/><line class="cls-14" x1="419.18" y1="742.37" x2="427.39" y2="749.19"/></g><g id="Necklacke"><path class="cls-15" d="M238.24,156.3s44.55,33.78,57.28,31.33c0,0,13.22-11-1.22-26.19l5.14-.74s17.17,19.84,1.61,27.06c0,0-19.08,8.26-38.33-9.68L237,159.24Z"/><path class="cls-16" d="M295.52,187.63s-5.88,12,2,18.11c0,0,15.91,14.69,14.93-4.4C312.41,201.34,307.76,184.2,295.52,187.63Z"/><circle class="cls-17" cx="265.17" cy="175.39" r="4.9"/><circle class="cls-17" cx="280.81" cy="184.79" r="2.39"/><circle class="cls-17" cx="304.28" cy="180.14" r="3.29"/><circle class="cls-17" cx="304.28" cy="169.62" r="3.29"/><circle class="cls-17" cx="245.59" cy="164.13" r="2.45"/><circle class="cls-17" cx="255.31" cy="167.98" r="1.64"/></g><g id="Face"><path class="cls-18" d="M258.63,122.8s10,6.45,14.86,6.27c0,0,16.16-.9,18.11,1.43,0,0,6.28,0,9.39-2.86,0,0-11.57,12.53-16.4,12.35,0,0-16.29.89-20.23-8.59Z"/><path class="cls-19" d="M263.53,127.28s12.64,13.07,30.72,5"/><path class="cls-19" d="M274.74,122.8s4.36-2.32,4.15,0"/><path class="cls-19" d="M288.52,125.31s1.67-2,3.08-.9"/><g id="Leftg_Eye" data-name="Leftg Eye"><path class="cls-20" d="M248,90.46s16.13-13.62,22.79,6.88c0,0,.74,3.55-2,3.18C268.82,100.52,249.73,99.47,248,90.46Z"/><circle class="cls-21" cx="260.31" cy="92.17" r="6.1"/><circle class="cls-22" cx="261.88" cy="91.78" r="4.2"/><circle class="cls-17" cx="263.74" cy="90.27" r="1.02"/><path class="cls-22" d="M245.47,86s-2.77,5.42,1.38,5c0,0,16.78-14.26,24,6.32,0,0,1.18,0,.09-4,0,0-3.43-12.91-16.08-9.93C254.83,83.36,246,84.65,245.47,86Z"/></g><g id="Leftg_Eye-2" data-name="Leftg Eye"><path class="cls-20" d="M320,99.49s-13.18-15.39-22.21,3.72c0,0-1.18,3.36,1.43,3.36C299.2,106.57,317.15,108.05,320,99.49Z"/><ellipse class="cls-21" cx="307.29" cy="99.55" rx="6" ry="5.74" transform="translate(17.93 243.11) rotate(-44.34)"/><ellipse class="cls-22" cx="306.53" cy="98.22" rx="4.14" ry="3.96" transform="translate(18.65 242.2) rotate(-44.34)"/><ellipse class="cls-17" cx="306.36" cy="95.93" rx="1.01" ry="0.96" transform="translate(20.2 241.43) rotate(-44.34)"/><path class="cls-22" d="M323,95.51s1.84,5.64-2,4.68c0,0-13.7-16.1-23.23,3,0,0-1.11-.13.47-4,0,0,5-12.13,16.37-7.57C314.61,91.68,322.64,94.09,323,95.51Z"/></g></g><path class="cls-1" d="M186.15,240s2,21,19,20.28c0,0-1.4,33.76,32,36.93h1.7l-6.39-18.5-6.89-22.57s-4.63,1.67-3.73-4.45a4.22,4.22,0,0,1,.47-5.53s-2.17-13.07,1-16.33l4.34-2.76,6.56-5.73a.44.44,0,0,0,0-.67l-1.94-1.58-1.86-.85a2.37,2.37,0,0,0-1.17-.19l-4.53.27-5.1,2.73S188.8,238.3,186.15,240Z"/></g></svg>