<svg id="Layer_1" data-name="Layer 1" xmlns="http://www.w3.org/2000/svg" viewBox="0 0 3379 3379"><defs><style>.cls-1{fill:#fff;}.cls-2{fill:#e94795;}</style></defs><title>movie</title><g id="Movie"><circle class="cls-1" cx="1689.5" cy="1689.5" r="1689.5"/><path class="cls-2" d="M1883.5,2979.5s900,242,1403-444c0,0,11-38-27-53-37.55-14.82-62.4-3.28-89,25-.66.7-1.34,1.38-2,2C3147.12,2529.12,2805,2790,2623,2851c-4,1.33-9,1.81-13,3-37,11-210.24,76.06-280.5,8.5l-59-51Z" transform="translate(-240 -135)"/><circle class="cls-2" cx="1521" cy="1646" r="1212.5"/><circle class="cls-1" cx="1527" cy="953" r="309"/><circle class="cls-1" cx="2246" cy="1656" r="309"/><circle class="cls-1" cx="825" cy="1656" r="309"/><circle class="cls-1" cx="1526" cy="2360" r="309"/><circle class="cls-1" cx="1527.5" cy="1655.5" r="135.5"/></g></svg>