<svg id="Layer_1" data-name="Layer 1" xmlns="http://www.w3.org/2000/svg" viewBox="0 0 150 150"><defs><style>.cls-1{fill:#fff;}.cls-2{fill:#e94795;}</style></defs><title>movie</title><g id="Movie"><circle class="cls-1" cx="75" cy="75" r="72.5"/><path class="cls-2" d="M73,124.56s38.62,10.39,60.2-19a1.87,1.87,0,0,0-1.16-2.27c-1.61-.64-2.67-.14-3.82,1.07l-.09.08c-.91.85-15.59,12-23.4,14.66-.17.06-.39.08-.56.13-1.59.47-9,3.26-12,.36l-2.53-2.19Z"/><circle class="cls-2" cx="67.77" cy="73.13" r="52.03"/><circle class="cls-1" cx="68.03" cy="43.4" r="13.26"/><circle class="cls-1" cx="98.88" cy="73.56" r="13.26"/><circle class="cls-1" cx="37.9" cy="73.56" r="13.26"/><circle class="cls-1" cx="67.98" cy="103.77" r="13.26"/><circle class="cls-1" cx="68.05" cy="73.54" r="5.81"/></g></svg>