<svg xmlns="http://www.w3.org/2000/svg" viewBox="0 0 565.36 792"><defs><style>.cls-1{fill:#0f1620;stroke:#346b7a;stroke-width:2px;}.cls-1,.cls-10,.cls-11,.cls-12,.cls-13,.cls-17,.cls-2,.cls-3,.cls-4,.cls-5,.cls-6,.cls-7,.cls-8,.cls-9{stroke-miterlimit:10;}.cls-2,.cls-4,.cls-8{fill:none;}.cls-12,.cls-2{stroke:#366b7a;}.cls-11,.cls-12,.cls-2{stroke-width:0.5px;}.cls-3{fill:#cd7929;}.cls-3,.cls-4,.cls-5{stroke:#74241b;}.cls-5{fill:#52308f;}.cls-6{fill:#f6d89c;}.cls-6,.cls-8{stroke:#b77732;}.cls-7{fill:#e7af56;stroke:#dd9d4d;}.cls-9{fill:#e1a44d;stroke:#c6762e;}.cls-10{fill:#b89055;stroke:#9b7541;}.cls-11{fill:#cb452b;stroke:#b73426;}.cls-12{fill:#6fa9aa;}.cls-13{fill:#8c8589;stroke:#5e5b5d;}.cls-14{fill:#5e5b5d;}.cls-15{fill:#74241b;}.cls-16{fill:#471e12;}.cls-17{fill:#d13a29;stroke:#891d20;stroke-width:0.3px;}.cls-18{fill:#891d20;}.cls-19{fill:#fff;}.cls-20{fill:#2b1210;}.cls-21{fill:#231f20;}</style></defs><title>princesses</title><g id="Pocahontas"><path id="Hair" class="cls-1" d="M277.06,10.47s-2.42-14-21.77-7.26l-29,13.55s-29.52,35.81-33.88,84.69c0,0-3.87,44.53,0,52.75L265,147.91l75.47,51.47s7,20-11,32.45c0,0-33.8,36.45-16.94,67,0,0,2-17.43,18.59-14.24,0,0-10.17,13.37-7,20.63,0,0,16-11.44,30.89-8.36,0,0,67.92,9.45,75.31-48.45,0,0-.83-46.76-31.4-74.88,0,0-80.31-66.85-81.53-74.6L301.28,76.51l1.84-21S306,14.4,277.06,10.47Z"/><path class="cls-2" d="M273.32,12s-20.07-6-26.14-4"/><path class="cls-2" d="M235.86,12s-18.42,17.7-21.68,35.48c0,0-7.4,21.22-8.59,34.17v36.68l2.59,19.93"/><path class="cls-2" d="M240.49,27.91S217.41,43,218,69.76s.07,45.63,11.22,62.2"/><path class="cls-2" d="M249.74,112.78S212.81,79.89,226.65,53.9L238,38.62"/><path class="cls-2" d="M279.68,14.38s1-1.82,0-2.35"/><path class="cls-2" d="M291.75,98.11s34.37,29.85,47,37.09c0,0,31.66,15.51,31.66,49.81,0,0,1.5,28.88-20.51,47.43,0,0-33.74,24.27-38.13,39.05"/><path class="cls-2" d="M287.78,128.57s35.93,13,45.88,19.64c0,0,41.5,19.14,34.57,54.43"/><path class="cls-2" d="M392,168.44s31.4,60.91-7.72,85.62c0,0-9.23,13.55-52.16,17.43,0,0-17-.36-20.27,15.16"/><path class="cls-2" d="M403.88,181s27.92,42.12,8.77,76.58c0,0-10.44,27.87-53.26,29.07,0,0-32.28-7-38.09-2.89"/><path id="Body" class="cls-3" d="M218,213.46s-2-8.42-5.54,0l-29.58,55.87s-4.56,48.46-13.65,60l-8.87,22.22s-3.1,13.53,0,18.62l6.22,9.44s3.45,8.91,1,15.36l-2,13.12s.89,8.79-1.44,8.9c0,0-5-1-4.68-9.23,0,0,.15-8.57-.48-10.68,0,0-4.52,2.78-5.08,16.69,0,0-1.11,8.59.56,10.69l3.89,5.78s5,4.22-.78,10.68c0,0-4.45-5.12-5.67-7.57L137.3,410.46s-3.67-4.67-1.78-8.46c0,0,8.68-30.82,8.57-34.6,0,0,2.11-26.71,1.67-29.16l.22-36.38s-1-20.59,5.9-34.28l13.35-27.92s9.57-22.48,9.79-25.15l7.84-32.83s8.18-26.81,10.85-29.26c0,0,4.47-18.44,37.32-17.52,0,0,16.7-1.73,17.87-17.24v-18l21.77,2.17,17.11-3.39-2.85,40.66,23.69,5.64s31.37,8.33,29.88,30l-1.24,21.92-7.57,51.62,5.71,58.07,7.56,46s4.15,18.3,5,29.87c0,0,5.92,23.88,0,33.61,0,0-7.05,10.12-9.26,12.48,0,0-7.41,4.42-4.89-1.57,0,0,6.15-6.68,6.63-10.91,0,0-11,9.17-14.36,8.07,0,0-2.83-.32,3-5.36,0,0-6.31.89-3.94-2.71,0,0,7.88-6.13,7.1-12.12l-.79-10.56s-5.84-7.57-3.16-14.35c0,0,7.73-17.51,1.26-24l-16.24-31.38s-11.2-24.6-11.2-33.12l.31-28.35-36.9-66.66Z"/><path class="cls-4" d="M144,404.29s-.29,8.56,1.77,12.68"/><path class="cls-4" d="M330.4,417s8.81-3,8.63-9.16"/><g id="Legs"><path class="cls-3" d="M200.72,429.39l30.37,73.2s3.29,24.29-6.24,29.95L206.34,562s-12,20.91-11.57,73.39c0,0-5.87,68.06-10.27,71.61l-6.06,17.6s-9.06,15.48,8.76,16.06l25.1-1.4s19.2-3.36,23.68-.38c0,0,8.94,2.81,10.43,1.78,0,0-1.49,10.53,2.43,13.51l27.77,19.38,15.84,9.88s8.77,2.53,8.77.6c0,0,6,3.73,9.13.73,0,0,6,3.48,7.69-1.21,0,0,8.77,3.13,10-1.32v-1.44s8.17.84,9-5.53c0,0-1.32-2.52-2.28-2.52,0,0-34.12-18.58-42.25-33.46,0,0-19.25-28-19.25-30.95a20.68,20.68,0,0,1-2.18-8.33l-1.19-43.45V603l1.39-41.07.79-27.38s9.89-5.35,11.89-16.86c0,0,4.18-13.29,4.18-26.79s.84-38.09.84-38.09Z"/><path class="cls-5" d="M229,640.57s-20,52.32-15.21,62.34c0,0,22.42,19.58,35.64,16,0,0-1.2-17.3-2.16-20.42C247.22,698.47,231.59,640.09,229,640.57Z"/><g id="Leg_Lines" data-name="Leg Lines"><path class="cls-4" d="M257.33,515s4.22-.55,2.38,9.72"/><path class="cls-4" d="M276,493.74s3.85,20.1,1.65,26.07c0,0-5.32,11.83-5.87,14.77"/><path class="cls-4" d="M234.39,511.28s5.42,11.19,1.39,23c-.07.18-.14.36-.23.54C234,538,219.21,568.68,219.9,581.73c0,0,.7,38.5,8.24,54.51a4.3,4.3,0,0,1,.43,1.86v2.08"/><path class="cls-4" d="M204.1,711.63s6.66-1.45,5.21-18"/><path class="cls-4" d="M254.38,735.39s-4.38-1.46-5-5"/><line class="cls-4" x1="314.43" y1="770.84" x2="327.99" y2="781.06"/><line class="cls-4" x1="310.47" y1="773.97" x2="317.77" y2="783.14"/><line class="cls-4" x1="302.75" y1="775.95" x2="310.47" y2="783.98"/><line class="cls-4" x1="295.46" y1="775.95" x2="301.3" y2="783.98"/></g></g><g id="Dress"><path class="cls-6" d="M326.71,151.68l3,11.62-5.06,20.84-18.39,23.52-49.95,1.2-28.44,12.2-12.24,2.09L218.32,247l.24,1.39h29.17L302.38,246l2.73-.33s29.2-31,29.2-52.31l-5.94-8.57s8.82-11.23,5.07-16.37l-1.36-2.77s6.63-2.23,1.17-10Z"/><path class="cls-7" d="M310.12,144.79s10.26,13.35,7.18,29.09c0,0,3.08,3.84-5.13,13l-11.29,10.23-21.22-10.23a18.58,18.58,0,0,0-20.19,0l-43.86,24.6v13.34l36.34-11s23.76-7.87,35.83-3.42c0,0,18.57,4.11,24.39-5.13,0,0,13.69-13.37,15.05-20.55,0,0,2.06-27.36,0-32.49,0,0-5.42-7.29-12.22-6.92Z"/><g id="Dress-2" data-name="Dress"><g id="Bottom_Lines" data-name="Bottom Lines"><path class="cls-6" d="M192.67,386.47,184.5,400l4.55,39.86s.78,8.16,4.55,10.36c0,0,15.38,13.81,19.77,13.81l-14.44-39.55s36.95,50.57,79.64,69.25c0,0,23.72-19.59,33.88-61.73L307,395c-1.33-9.14-2.17-.87-2.17-.87s-8.79,38.28-26.45,62c0,0-34-13.86-83.6-69.83A1.33,1.33,0,0,0,192.67,386.47Z"/><path class="cls-8" d="M191.92,388s6.3,67.18,9.79,69"/><line class="cls-8" x1="198.93" y1="424.49" x2="195.98" y2="388"/><line class="cls-8" x1="211.56" y1="404.29" x2="211.56" y2="439.98"/><line class="cls-8" x1="232.09" y1="423.59" x2="230.1" y2="459.94"/><line class="cls-8" x1="241.71" y1="431.64" x2="239.74" y2="468.17"/><line class="cls-8" x1="267.73" y1="450.45" x2="267.73" y2="488.28"/><line class="cls-8" x1="278.39" y1="456.12" x2="278.57" y2="493.74"/><line class="cls-8" x1="293.99" y1="475.32" x2="283.94" y2="447.77"/><line class="cls-8" x1="309.4" y1="442.84" x2="298.34" y2="415.94"/></g><path class="cls-9" d="M333.35,193.25l-31,47.31-70.17,6.95s8.68,12.33,7.13,18.11L200.8,304.69s-24.8,19.24-16.09,94.77l9.69-14s53,66,84,80.05c0,0,24.45-48.72,28.33-69.47l-5.6-35.26-1.67-6.31s-.89-46.67-2.24-51.83c0,0-3.81-15-4.71-15,0,0-3.11-10.24,4.39-18.52l22-27.94L329,229.72s20.44-14.49,11.9-29.75Z"/></g><path id="Belt" class="cls-10" d="M239.78,266.06s-3.69.93-4.84,5.77l38.89,18.75,5.87,2.84s3.41,3.79,5.49,0l8-7.22-.84-4.57s-11.31,4.05-20.38.14C272,281.77,243.75,271.72,239.78,266.06Z"/><g id="Top_lines" data-name="Top lines"><line class="cls-8" x1="224.71" y1="221.8" x2="224.71" y2="248.36"/><line class="cls-8" x1="234.94" y1="218.02" x2="237.17" y2="246.85"/><line class="cls-8" x1="296.68" y1="207.85" x2="294.21" y2="241.36"/><line class="cls-8" x1="306.34" y1="207.85" x2="302.38" y2="240.56"/><line class="cls-8" x1="313.73" y1="223.22" x2="309.9" y2="202.99"/><line class="cls-8" x1="319.48" y1="190.73" x2="323.11" y2="208.89"/><line class="cls-8" x1="329.69" y1="163.3" x2="332.08" y2="165.67"/><line class="cls-8" x1="324.99" y1="183.89" x2="328.35" y2="185.01"/></g></g><path id="Arm_Patch" data-name="Arm Patch" class="cls-11" d="M181.89,186.92s29.83-.48,33.65,20.76c0,0,.72,4.53-2.39,5.73a3.87,3.87,0,0,0-5.29,0l-9.11,13.89s6.57-14.28,5-20.69c0,0-.72-5.69-5.81-1.82l-9.79,16.94s5-20.08,3.26-22.38c0,0-3.39-3.14-6.65,1.57l-6.17,12,2.66-15.12-2.06-.73Z"/><g id="Necklace"><path class="cls-12" d="M235.3,130.74,254,150s30.35,4.51,32.4,7.79l9.64-7-11.08-11.69v-4.92l5.8.17,2.16,1.37s13.46,14.83,13.35,16.2v5.84l-11.75,7.05-3.88.8H255.45s-7.59.5-9.62-4.18l-21.12-26.69S233.37,130.74,235.3,130.74Z"/><path class="cls-13" d="M290.07,165.27s-4.08,11.2-1.36,14.6c0,0,4.64,5.89,14.83,8.72,0,0,2-13.13,1.47-15.74,0,0-9.05-8.83-11.09-8.15Z"/><path class="cls-14" d="M292.08,168.85s-2.79,7.67-.93,10c0,0,3.18,4,10.15,6,0,0,1.4-9,1-10.77,0,0-6.2-6-7.59-5.58Z"/></g><path id="Face" class="cls-3" d="M275.51,14.32s-18.47-2.43-23.63,0c0,0-7.89,4.86-14.57,30.35,0,0-3.65,10.93-3.81,16.47,0,0-5.86-14.17-9.94-3.91,0,0-3.25,8,0,13.85,0,0,8.06,14.43,12,6l.49,8.93A17.32,17.32,0,0,0,241.55,94l6.24,4.47,10.39,7.44s5.21,4.22,9.18,4.47c0,0,7.57,1.13,10.75-3.75l14.27-11.94A17.81,17.81,0,0,0,298,85l1.56-9.32s2.55.45,3-3.3c0,0,3.75-14.24-1.2-18.74,0,0-3.6.45-3.45-1.65,0,0,1.35-16.19-2.4-19.94,0,0-10.93-16.14-15.44-16.94Z"/><g id="Nose"><path class="cls-15" d="M264.69,73.92a.67.67,0,0,1,1-.65l1.56.93a1.12,1.12,0,0,1,.33,1.62,2.23,2.23,0,0,1-.78.69S265,77.3,264.69,73.92Z"/><path class="cls-15" d="M274.69,73.92a.67.67,0,0,0-1-.65l-1.56.93a1.12,1.12,0,0,0-.33,1.62,2.23,2.23,0,0,0,.78.69S274.34,77.3,274.69,73.92Z"/></g><path id="Ear" class="cls-4" d="M231.79,71.64s-7.63-3.45-4.29-10.77c0,0,3.45-1,3.35,7.22"/><g id="Brows"><path class="cls-16" d="M240.49,42.76s10.44-3,13.42-1.27c0,0,5.33,1.27,5-1.94,0,0,2-2.09-14.84,0C244.07,39.55,242.58,39.63,240.49,42.76Z"/><path class="cls-16" d="M282.41,38.06s-4.09.13-3.57,2.15c0,0-.33,1.49,4.54,0,0,0,9.29-.91,10.46.06l1,.33s-1.49-2.34-3.51-2.54Z"/></g><g id="Mouth"><path class="cls-17" d="M269.23,78.77a4.74,4.74,0,0,0-3.44,1.46s-7,5.12-8,5.12L257,86l3.29,2.78s4.1,5.56,8,5.92c0,0,4,1.1,8.62-4.6l5-3.95-9.43-7S270,78,269.23,78.77Z"/><path class="cls-18" d="M264,85.41s10-.74,10.74,0c0,0,1.33,1.06-1,1.06C273.65,86.47,261.26,87.36,264,85.41Z"/></g><g id="right_eye" data-name="right eye"><path class="cls-19" d="M292.64,47.12l2.24,1.23a6.81,6.81,0,0,1-2.62,5.6c-2.13,1.6-6.35,2.17-9.25,2.58h-3.56a1.24,1.24,0,0,1-1-.55l0,0a1.24,1.24,0,0,1-.1-1.15,12.77,12.77,0,0,1,4.83-5.56S290.33,46.08,292.64,47.12Z"/><path class="cls-16" d="M278.79,54.31s-2.9,2.95,4.5,1.6c0,0,11.59.19,11.59-7.56l.64-.61s.47,4.48-3.22,6.56c0,0-6.79,3.21-13.51,2.23,0,0-1.27-.3-.31-2.34Z"/><path class="cls-20" d="M281.87,50.38s.2,5.46,6.38,2.78c0,0,3.09-1.75,1.85-4.63a2.3,2.3,0,0,0-3.26-1.75Z"/><path class="cls-21" d="M284,48.65s-1.93,2,.68,3.59c0,0,4.18.68,3.71-3.28C288.34,49,286.14,46.35,284,48.65Z"/><path class="cls-21" d="M278.07,55.41S282.89,47,290,46.78a6.79,6.79,0,0,1,4.86,1.57,1.06,1.06,0,0,0,.52-1.6s-6.19-3.46-11.38,0C284,46.75,277.57,53.1,278.07,55.41Z"/></g><g id="left_eye" data-name="left eye"><path class="cls-16" d="M239,50.31l1.57-.24s-7.68,6.65,15.4,6c0,0,.4-.08.3-1.27l1.1.59s-.16,2-7,1.43C250.36,56.77,235.6,57.57,239,50.31Z"/><path class="cls-19" d="M242.59,48.16l-2.77,2.18s-1.74,2.41.42,4.08c1,.76,4,1.19,6.19,1.49l5.19.42L256,56a1.55,1.55,0,0,0,.26-1.58,11.37,11.37,0,0,0-4.47-5S244.89,47.12,242.59,48.16Z"/><path class="cls-20" d="M244.16,48.74s-1.36,3.73,1.15,5.43c0,0,5.29,2.71,6.78-3.05C252.09,51.12,249.11,44.94,244.16,48.74Z"/><path class="cls-21" d="M245.32,49.27s-1.93,2,.67,3.59c0,0,4.19.68,3.71-3.28C249.7,49.58,247.51,47,245.32,49.27Z"/><path class="cls-21" d="M240.55,50.07s-3.77,3.08-2.16-.93c0,0,1-1.75,6.34-2.25,0,0,5.27-.7,8.29,2.67,0,0,4.33,5.36,4.33,5.78l-1.1-.59s-4.84-8.07-10.47-6.66C245.78,48.09,241.29,48.39,240.55,50.07Z"/></g></g></svg>