<svg xmlns="http://www.w3.org/2000/svg" viewBox="0 0 565.36 792"><defs><style>.cls-1,.cls-12{fill:#0c0c0c;}.cls-1,.cls-20{stroke:#590f16;}.cls-1,.cls-13,.cls-14,.cls-15,.cls-16,.cls-17,.cls-18,.cls-19,.cls-2,.cls-20,.cls-3,.cls-5,.cls-6{stroke-miterlimit:10;}.cls-2{fill:#f1b596;}.cls-2,.cls-3{stroke:#b57c52;}.cls-19,.cls-20,.cls-3,.cls-6{fill:none;}.cls-4{fill:#0c0f0d;}.cls-5{fill:#df697e;}.cls-5,.cls-6{stroke:#d03e4b;}.cls-7{fill:#b57c52;}.cls-8{fill:#fff;}.cls-9{fill:#3d1718;}.cls-10{fill:#0c0e0d;}.cls-11{fill:#231f20;}.cls-13{fill:#ece9a0;stroke:#c1aa32;}.cls-14{fill:#f0ed83;stroke:#efe748;}.cls-15{fill:#95c659;stroke:#164b57;}.cls-16{fill:#419a7a;stroke:#154b57;}.cls-17{fill:#272d68;stroke:#152045;}.cls-18{fill:#7b142b;}.cls-18,.cls-19{stroke:#4a181d;}</style></defs><title>princesses</title><g id="Mulan"><path id="Hair" class="cls-1" d="M264.4,160.82s-31.11-5.31-26.47-59.18c0,0-1.11-45.46,33-69.34s54.23,17.15,54.23,17.15,9.82,12.48,8.7,35l-3,45.58-5.27,41.61Z"/><g id="Hand"><path class="cls-2" d="M228.16,377.39s-1.75,18.94-4.52,22.81c0,0-3.65,8.77-1.11,16.65l9,23.47s1.32-6.74-2.27-16.1l6.55,6L238.15,408,240,375.32Z"/><path class="cls-3" d="M231.63,401s1.14,13.4-4.15,19.19c0,0-1.8,1.82,2.13.3,0,0,8.72-7.31,7.81-11.12"/></g><path id="Skin" class="cls-2" d="M298,32.3l-7.1,13.87L279,61.52,260.51,77.77l-12.39,15-1.24,2s.24,8.07,8.2,8.7c0,0,3.55,18.46,16.31,26.63a4.93,4.93,0,0,1,1.67,4.13l.84,21.28-6.7,5.64L253,191l7.38,8.53,16.14,3.87,33.85-49.65s-5.6-9.93-5.8-20.77c0,0,15.58-7.11,22.47-40.69S309.31,29.78,298,32.3Z"/><g id="Face"><g id="eyebrows"><path class="cls-4" d="M300.84,75.06s10.55-9.74,13.91-9.39c0,0,4.76-.24,8.12,6,0,0,.69-9.39-8.23-11.94,0,0-3.6.23-6.84,4.64Z"/><path class="cls-4" d="M275.46,64.84s8.88,6.7,8.82,9.15c0,0,.93-8.06-5.28-12.47Z"/></g><g id="mouth"><path class="cls-5" d="M291.42,118.29s1.81-2.79,7.67-1.15a6.56,6.56,0,0,0,3-.06.33.33,0,0,1,.41.47l-1.14,2.16s-4,9.26-10,9c0,0-6,1.7-10.85-8.82l-2.09-3.38a.27.27,0,0,1,.27-.41,15,15,0,0,1,2.21.5S290.27,114.73,291.42,118.29Z"/><path class="cls-6" d="M279.31,116.7s7.95,4.38,11.48,4.6c0,0,8.9,0,11.59-4"/></g><g id="Nose"><path class="cls-3" d="M284.6,109.77s-2.47-1.26,0-3.93"/><path class="cls-3" d="M297,110.53s1.81-.71.55-3.68"/><path class="cls-7" d="M294.53,109.77s-.81,1,0,1.36c0,0,1-.2.8-.68C295.33,110.45,295.23,109.27,294.53,109.77Z"/><path class="cls-7" d="M286.72,109.15s-.81,1,0,1.36c0,0,1-.2.8-.68C287.52,109.83,287.42,108.65,286.72,109.15Z"/></g><path id="ear" class="cls-3" d="M253,95.84s-2.81-1-2.36-3.26"/><g id="right_eye" data-name="right eye"><path class="cls-3" d="M304.12,85.53s5-8.08,14.76-5.73"/><polygon class="cls-8" points="319.49 82.86 314.58 82.18 310.73 82.86 306.76 85.53 303.06 90.83 304.12 91.81 310.5 91.81 315.68 89.17 318.28 86.18 319.49 82.86"/><path class="cls-7" d="M303.73,91.16l-.33.72s12.33,3.34,16.66-8.21h-1.18S315.8,93.48,303.73,91.16Z"/><path class="cls-9" d="M305.66,87.06s.65,3.85,5.84,2.63c0,0,5.87-2.17,3.16-6.91l-.33-.57-4.92,1.27Z"/><path class="cls-10" d="M306.9,85.78a2.81,2.81,0,0,0,3.46,3.12s4.78-1.17,3.24-5.89A8,8,0,0,0,306.9,85.78Z"/><path class="cls-8" d="M307,86.9a1,1,0,0,0,1.13.79,1.27,1.27,0,0,0,1.1-1.51,1.38,1.38,0,0,0-1.85-.49S306.73,86,307,86.9Z"/><path class="cls-11" d="M303.4,92.33s2.91-12.36,15.48-8.66c0,0,2.72.57,4-1.63,0,0-3.51.54-5.75-.62,0,0-10-1.33-14.75,9.61C302.38,91,302.59,93.77,303.4,92.33Z"/></g><g id="Left_eye" data-name="Left eye"><path class="cls-3" d="M281.18,83a17.24,17.24,0,0,0-13.44-6.49"/><path class="cls-7" d="M265.54,80.63l-1.14-.24s3.48,5.79,7.77,8.28c0,0,.91,1.43,9,1.68l-.4-1s-8.4,0-10.26-2.92C270.52,86.43,266.55,83.63,265.54,80.63Z"/><polygon class="cls-8" points="268.84 79.14 265.14 79.14 265.14 81.22 270.6 87.15 275.46 89.24 280.5 89.76 280.93 87.63 279.7 84.73 276.9 81.27 273.25 79.14 268.84 79.14"/><path class="cls-11" d="M280.88,89.19S278,76.82,265.4,80.52c0,0-2.72.57-4-1.62,0,0,3.51.54,5.75-.63,0,0,10-1.32,14.75,9.61C281.9,87.88,281.69,90.62,280.88,89.19Z"/><path class="cls-9" d="M269.54,79.46s-1.23,4,1.22,5.91c0,0,4.43,3.89,7.63-1.11L278.2,83l-5.41-3.54Z"/><path class="cls-12" d="M270.43,79.51s-1.65,4.28,1.09,5.51c0,0,4.57,2.26,6.26-2.22C277.78,82.8,274.53,79,270.43,79.51Z"/><path class="cls-8" d="M270.06,82.55s.11.43,1.25.24A1.06,1.06,0,0,0,272,81.6a1.07,1.07,0,1,0-1.91,1Z"/></g></g><g id="face_detials" data-name="face detials"><path class="cls-3" d="M274.46,166.87s.59-33-2.15-36.84"/><path class="cls-3" d="M228.16,416.85a8.22,8.22,0,0,1,0-6.43"/><line class="cls-3" x1="235.82" y1="422.82" x2="232.75" y2="419.15"/><line class="cls-3" x1="235.82" y1="418.23" x2="234.28" y2="416.85"/></g><g id="Dress"><path class="cls-13" d="M239.57,385s-17,297.74-43.55,356.12c0,0,16.1,1.07,23.8,7.72,0,0,37.53,19.6,69.17,15.75,0,0,31.63,2.45,56.48-10.5v-8.05s34.66-1.75,36.06-8.4c0,0-20.78-86.8-19.89-98.29L351.47,516S346.61,370.61,344,368.4c0,0-19.68-4.57-43.1,4.84,0,0-35,15.76-42.46,13.13C258.39,386.37,244.6,385.83,239.57,385Z"/><path class="cls-14" d="M254.54,191.63s12-.22,21.42,4.33l-16.75,40.16h-6L244.86,218,253,191Z"/><path class="cls-15" d="M259.07,166.21S234.63,185,232.35,195.63c0,0-4.89,8.49-4.46,25.88l.76,29.9L230,277.27,231,296.85l-5.32,24.57s-4.57,24.68-4.68,28.71c0,0-2.61,26.63-1.3,32.61,0,0,15.45-7.25,20.61-5.09"/><path class="cls-16" d="M308.51,151.49s-19.69,29.15-22.29,32.33l-12.81,17.52s-16,25-14.2,34.78h21.23s4.52-19.77,6.84-22.45c0,0,7.2-18.31,10-20.5,0,0,16.48-30.36,17.21-34.39Z"/><path class="cls-16" d="M259.07,166.21s10.71-8.77,12.09-8.77l-6.05,10.44-10,21.18s-7.19,13-6.79,25.42c0,0-.2,17.27,4.92,21.64l-11.33-1.25s-5.32-10.94-3.64-20.59a95.54,95.54,0,0,1,11.13-29.06Z"/><path class="cls-15" d="M276.55,238.36l36.72-80.92s27.78,30,30.78,42.92c0,0,4.95,7.29,10.13,39.52l6.32,27.7,6,22.84s3.24,6,0,9.4c0,0-8.05,13.75-20.89,19.92l-11.83,6.15-20.32-29.44S326,284.52,326,282.77c0,0-3.63-23.16-10.81-27.84l-14.3-26.55,2.23,4.73s-21,7.82-22.91,5.64Z"/><path class="cls-17" d="M235.51,234.69s43.32,6.33,67-1.58l12.65,21.82s-6.95,12.65-6.64,15.81l-.63,19s21.64,24.93,27.08,41.82c0,0,10.14,32.75,8.95,36.86,0,0-19.58-8-58.63,11.29,0,0-22.89,8.61-26.93,6.68L239.57,385l5.2-49.46L249,299.26s.2-25.45-.4-28.66Z"/><g id="red_belt" data-name="red belt"><path class="cls-18" d="M248.57,276.37V299s13.05,5.55,31.91,1.93c0,0,26.87-8.52,27.52-10.85,0,0-1.29-15.76.51-19.37,0,0-22.34,7.36-25.83,6.71C282.68,277.4,259.56,280.76,248.57,276.37Z"/><path class="cls-19" d="M251.16,277.27s15.24,11.5,32.42,11"/><path class="cls-19" d="M307,279.21s-37.72,18.47-56.83,12.27"/></g><path class="cls-15" d="M227.57,386.65s-8.27-2.17-7.83-3.91"/></g><g id="Hair-2" data-name="Hair"><path class="cls-20" d="M298,32.3s-8.3,24-33.6,41.69c0,0-22.17,20-22.83,35"/><path class="cls-20" d="M297,36c-7.51,32.58-35.6,47.12-35.6,47.12"/></g></g></svg>