<svg xmlns="http://www.w3.org/2000/svg" viewBox="0 0 565.36 792"><defs><style>.cls-1{fill:#f8e6d9;}.cls-1,.cls-12,.cls-16{stroke:#e1c2b8;}.cls-1,.cls-10,.cls-11,.cls-12,.cls-14,.cls-16,.cls-2,.cls-3,.cls-4,.cls-5,.cls-8,.cls-9{stroke-miterlimit:10;}.cls-2{fill:#fed867;}.cls-2,.cls-3{stroke:#e9c242;}.cls-10,.cls-12,.cls-3,.cls-8{fill:none;}.cls-4{fill:#8ccde2;stroke:#2e7db0;}.cls-5{fill:#b4d8eb;}.cls-11,.cls-5{stroke:#9dc2d6;}.cls-6{fill:#226d98;}.cls-16,.cls-7{fill:#fff;}.cls-8{stroke:#9ab7c3;}.cls-9{fill:#93caea;}.cls-10,.cls-9{stroke:#64a7d7;}.cls-11{fill:#d1eaf7;}.cls-13{fill:#e1c2b8;}.cls-14{fill:#e871a1;stroke:#d85591;stroke-width:0.5px;}.cls-15{fill:#9f6829;}.cls-16{stroke-width:0.75px;}.cls-17{fill:#569bbf;}.cls-18{fill:#231f20;}</style></defs><title>princesses</title><g id="Cinderella"><path id="Face" class="cls-1" d="M275.88,143.15s1.69,13.66,0,14.42c0,0-7.87,6-9.63,5.4,0,0-26.59,16.29-27.3,38,0,0,46.75.36,69.72-28.91l12.26-18.2s-10.59,2.25-13.44-15.18c0,0-2.25-19.09,2-29,0,0-2.51-16.75-2.92-17.35s-8.06-9.7-8.06-9.7-6.36-5.07-4.2-9.81l1.29-3.67-10.77,6L261,75l-25.84,3.35L239.8,81s0,7.61,2.5,10.73c0,0,6.77,9.79,5.63,16.67,0,0-1.62,8.11,3.47,13L267.29,139S270.54,144.51,275.88,143.15Z"/><path id="hair" class="cls-2" d="M274,14s-20.11-8.08-22,12.41c0,0-11.85,6.58-9.59,13,0,0-.75,10.15,6.39,8.83l-4.12,6.37S227,50.82,225,61.1c0,0-5.09,6.68,0,15.9,0,0,4.35,9.55,9,9.12,0,0,1.32,7.85,4.23,9.6l8.65,10.39.91-5.15s-9.14-14.13-7.4-19.45c0,0,5.49.91,5.49-.46,0,0,12.39,1.37,12.39-2.45,0,0,23.42,3.52,26.94-3.52,0,0,6.58,1.68,8.57-3.21,0,0,1.26,8.47,3.77,10.59,0,0,9.91,8.63,8.86,14l.08,1.87,6.37,2.26s12.76-20.51,9.61-35c0,0-3.45-12.62-10.62-21.23,0,0-8.46-15.64-9.47-18.22,0,0-8.93-16.09-19.67-13.71,0,0-8.21,1.8-8.35,2.47Z"/><g id="Hair_ines" data-name="Hair ,ines"><path class="cls-3" d="M248.73,71.65s4.83,6.53,11.21,6.83"/><path class="cls-3" d="M291.53,65.92S287.72,76.17,280,77.17"/><path class="cls-3" d="M296.57,64.92s.2,6.93-4.22,7.93"/><path class="cls-3" d="M244.58,79.5s-9.38-2.19-10.22-7.2"/><path class="cls-3" d="M229.77,72.3s2.92,7.93,10.33,8.45"/><path class="cls-3" d="M240.1,87.19s-8.24-.38-11.37-6.44"/><path class="cls-3" d="M249.73,58.68s10.71-2.11,14.64-7.47"/><path class="cls-3" d="M296.57,31.81s-13.1,21.3-30,2.39"/><path class="cls-3" d="M253.55,34.2s2.26,8,8.73,8.69"/><path class="cls-3" d="M267.79,22.78s4.94-7.5,8.18-7.84"/></g><g id="Headband"><path class="cls-4" d="M249.08,48l-4.5,6.43a25.69,25.69,0,0,0,19.79-3.22s18-12.19,30.7-1.88c0,0,14.44,10.44,13.59,27.06l0,19.3v1.58h2.64s5.7-19.9,3.76-30c0,0-5.22-26.21-22.93-28.51,0,0-6.8,6.43-19.06,2.66,0,0-5.34,4.25-11.77,2h-6.79Z"/><path class="cls-5" d="M308.69,97.27s-3.13-.38-4.11,6.33c0,0-.32,4.77,3,4.66,0,0,4,1.08,5-5C312.6,103.28,314,96.35,308.69,97.27Z"/></g><path id="necklace" class="cls-6" d="M275.88,145.18v5.48s16.65,5.16,31.61-12.65l-.74-10.54s-6,13.07-15.07,15c0,0-10,4.74-15.8,1.68Z"/><g id="Arms"><polygon class="cls-1" points="323.72 198.97 342.91 216.3 349.56 220.91 366.74 201.52 354.55 184.22 345.79 169.74 340.88 165.87 320.93 194.39 323.72 198.97"/><polygon class="cls-1" points="222.5 222.05 218.34 232.27 226.71 242.81 227.74 244.77 234.17 225.25 224.74 217.61 222.5 222.05"/></g><g id="shoulders"><path id="shoulder" class="cls-5" d="M348.25,154.22s1,6.52-2.71,14.72c-.21.46-.43.93-.67,1.4a40.1,40.1,0,0,1-11.37,13.38S322.56,198,323.72,199L336,208.91s-8.64,13.1-20.41,7.63c0,0-14.59-4.31-11.44-28.84,0,0,3-21,8-26,0,0,10.61-16.41,22-17.57,0,0,14.26-4.64,19.23,6.46,0,0,8.78,16.58,1.16,33.65l-8.76-14.48"/><path id="left_shoulder" data-name="left shoulder" class="cls-5" d="M265.53,161.92s-18-20.14-30.36-5.9c0,0-14.79,14.93-4,38.37l21-23.09s6.24-6.53,11.1-7.2C263.26,164.1,266.23,163.33,265.53,161.92Z"/></g><g id="Dress"><path class="cls-7" d="M246.43,579.12,43.68,638.52v31.72l14,28.44,46.11,33.21L102.67,762s89.82,49.14,99.59,9.93,74,6.36,74,6.36S508,813.59,514.93,756.6l-16.22-83.17V528.61Z"/><path class="cls-8" d="M100.19,713.4s-8,10.26-12.68-9.41c0,0-2.14,16.53-11.4-3.42,0,0,.43-6.27,0-7.12s-.29,18.81-12.54,0V685.9s-2.14,13.82-7.55,0c0,0-4.85-7.13-2.71-10"/><path class="cls-8" d="M57.73,671.63s8.23,10.72,10.52-1.15c0,0,.77,8.59,11.68,5.44a11.27,11.27,0,0,0,5.74-10.8s.19,4.21,9.37,2.49c0,0,4-2.49,3.07-9.19,0,0,4.4,3.45,8.8,1.53,0,0,4.59-3.82,3.83-8.42,0,0,2.29,6.89,7.84,0,0,0,2.49-3.63,2.49-5.55,0,0,5.93,4.6,7.46-1.91"/><path class="cls-8" d="M96.58,670.29l-1.54,27s12.64,3.06,6.51-17.6c0,0,7.46,22.17,9.76-3.75V665.31s5.73,18.16,8.8,0l1-10.91s1.53,16.08,6.7,3.64l.76-8.61s6.32,7.85,6.32,0"/><path class="cls-8" d="M115,747.39s-8.87,15.15-2,16.43c0,0,7.89,3.2,9.81-2.56,0,0-1.92,9,4.27,6.83,0,0,4.83,1.49,7.86-4.7,0,0,.68,6.41,4.74,6,0,0,5.33-2.13,5.54-5.33,0,0,1.29,9.81,6.83,7.25,0,0,6.19.22,7.69-5.55,0,0,2.35,5.76,4.91,6,0,0,5.76-2.78,5.76-5.12,0,0,2,3.6,4.68,4.86a3.66,3.66,0,0,0,2.79.26,13.41,13.41,0,0,0,6.19-4.91"/><path class="cls-8" d="M297.41,772.67s3.26,13.31,15.1-1.18c0,0,5,5.62,9.76,5.32,0,0,10.06-2.07,10.06-5.32,0,0,3.85,7.35,11.84,3.38,0,0,4.44-4.86,4.44-6.34,0,0,5.62,15.09,16.57,0,0,0,16,18.05,17.45-1.78,0,0,18.94,18,17.17-2.37,0,0,25.15,22.2,19.23,0,0,0,15.68,16.28,16.27,0,0,0,13.62,5.33,13-2.36,0,0-13.9-6.51-14.2-19.53"/><path class="cls-8" d="M437,748.79s11.24,17.57,10.26,0c0,0,10.12,15.74,10.26-2.53,0,0,13.49,11.1,13.35-5.76,0,0,16,8.57,13.07-4.78,0,0,10.4,2.95,8.85-5.48,0,0,7,.42,5.77-4.5L487,713.09"/><path class="cls-8" d="M497,725.6s-6.32,3.09-12.93-4.92c0,0,7.87,12.37-2.67,8.15l-5.9-6.6s5.9,13.77-3.66,8.85l-5.34-5.9s6.33,14.48-5.62,10.82l-7.73-10.68s4.08,19.39-7.31,14c0,0-11.66-7.73-11.52-16.16,0,0,4.36,15.42-2.3,15.51,0,0-12.69-10.71-12.78-17.09,0,0,8.28,16.37,2.34,17.9,0,0-10.44-.45-12.86-17.72,0,0,1.16,24-8,10.34,0,0-10.53-10.79-10.17-16.73,0,0-4.23,20.24-9.18-1.71"/><path class="cls-8" d="M346.06,643.56s10.67,20.6,12.14-1.47c0,0,9.75,23.91,16.55,10.21,0,0,.19-9.1-1.47-10.21,0,0,13.43,30.35,12.69,6.07,0,0,9.57,15.27,9.38-2,0,0-6.62-22.07-11.4-26.12"/><path class="cls-8" d="M382.11,670.23s3.73.48,3.68-7.72c0,0,9.56,10.3,10.48-3.13"/><path class="cls-8" d="M446.4,681.71s-1,14.44-11.94-1.93c0,0,2.31,22-12.33-1.35"/><path class="cls-8" d="M411.34,660.71s17,31.21,15,5.59L425,660.71s13.48,24.66,13.29-4.62L437,651.85s11.91,28.12,12.87-9.25c0,0,9.82,19.07,12.91-2.69l-1-9.25s9.63,20.23,10.6-8.28c0,0,9.85,4.25,7.8-13.55,0,0,6.33,11.11,8.31-5.48l-1.44-14.07s8.48,12.27,6.49-5.41"/><path class="cls-8" d="M389.78,596.39s8,11.25,9.82-10.64c0,0,7.57,12.89,9-14.32,0,0,4.5,15.34,8.59-6.35,0,0,9.21,18,8-7,0,0,13.71,28.23,12.28,1.22,0,0,4.5,12.48,14.32,8.19,0,0,2.46-7.16,2.05-11.46,0,0,12.89,28,14.11,6.55,0,0,11.05,26.19,9.21,4.7,0,0,13.5,21.28,10,.82,0,0-15.76-23.94-26.6-29.46"/><path id="Dress-2" data-name="Dress" class="cls-9" d="M265.53,161.92l1.2,1.73S242.19,179,240.45,200.06c0,0,34.67,1.19,68.22-31.91l19.24,48s3.16,1.82-2.35,9.84c0,0-18.86,27.18-30.94,37.44,0,0-7.1,9.17-3.73,16.91,0,0,.94,8.61-7.51,7.52a60.9,60.9,0,0,0-46,12.26s9.76,37,41.49,53.31c0,0-4.11-41.08,0-44.75,0,0,5.36-9.28,5.54-7.63,0,0-.92,8.43,3.12,10.63a134.24,134.24,0,0,0,31.78,28.16s67.94,44.46,67.1,36.35l1.4-15.66L410.07,380s8.57,5.29,1.35,18.72l13.67,44,58.12,59.41s36.24,44.46,34.31,63.79c0,0,11.37,24.42-26.26,66.94,0,0,21.46,46.18,55.71,69.52,0,0-41.6,57.22-97.92,63.79,0,0,3.74-2.7-6.17-8.71,0,0,8.26,1.8,4.5-8.56,0,0,10.36,15.17,9.16-3,0,0,5,8.11,11,4,0,0,6.31-1.35,3.46-9.31,0,0,10.66,6.16,12.91.3l-.6-5.4s7.21,4.2,9.46-1.05l-.45-5s9,1.35,6.31-3.6c0,0,1.73-2.85-2.23-3.7,0,0-9.61-7.78-9.61-9.11,0,0-28.25.34-40.39-29.85,0,0-7.37-19-7.37-21.4l-2.57-10.58s6.29,18.88,13.44,7c0,0,2-4.87.29-14,0,0,7.58,12.3,12.45-1.72l-.72-11.3s4.29,12.16,10.59,1.43c0,0,.71-9.44-1.58-12.44,0,0,6.87,11.73,10.16-1.15l-1.72-13.59s2,18.88,9,2l-1.86-18.59s9.3,9.15,6.16-6.87l-3.58-4.15s1.43-8.87-2.58-11.15L460,536.92s-37.08,6.89-46,22.74l-31.77,48.72s-34.41,32.7-38,37c0,0,13,18.84,13.35-1.2,0,0,14.22,18.67,16.27,10.79l5,11.57s16.74,14.52,13.35,26.72c0,0-4.84,16.49-13.53,24.43,0,0-58.72,66-111.26,56.59,0,0-3-8-15.71-.28,0,0-12.81,6.25-27.19,1.2,0,0-7.54-.66-8.61,1.26,0,0-24.59,8.24-23.88-5.71,0,0-14.81-10.87-26.57-10.87,0,0-48.21-8.82-50.27-14.11,0,0-8.67,16.46-1.93,18.92,0,0-24,.49-23.17-7.23,0,0,3.48-30.54,1.85-33.81,0,0-50.71-22.58-50.43-52.2,0,0-.56-88.45,7.08-113L87.4,430.79l25.77-99.92,3.65-6.87,7.33-7.84L130.8,325l-4.09,10.91s-.17,26.25,14.83,24.72c0,0,40.76-9.12,57.34-26.37,0,0,38.68-26.28,40.61-41.56,0,0,.12-24.92-5.32-35.06L228.26,241l.47-11.32s-13.32-11.29-8.36-24.83c0,0,10.18-10.6,14.8-13.54C235.17,191.33,254.4,165.91,265.53,161.92Z"/><g id="dress_lines" data-name="dress lines"><path class="cls-10" d="M115.19,345.41s-2.77,47.4,9.72,52.2"/><polyline class="cls-10" points="139.49 641.92 114.93 495.44 110.08 396"/><path class="cls-10" d="M321.24,518.53s5.44-99.49-23.92-141.9l-14.64-54.37"/><path class="cls-10" d="M258.17,756.94s-79.38-153.05-63.07-302c0,0,19.55-119.79,39.07-148.44"/><path class="cls-10" d="M192.9,765.56S157.83,601.8,166.82,555c0,0,6.8-112.85,12.3-115.86,0,0,23.44-72,33.7-95.84a40.59,40.59,0,0,1,3.48-6.93l15.5-26"/><path class="cls-10" d="M217.57,765.56s-34.95-127.42-34.2-168.32c0,0-4.27-99.48,0-110.69,0,0,3.9-71.84,13.72-93.22l29.73-74.58"/><path class="cls-10" d="M144.32,572.65c-2.53-35.41,21-129.91,21-129.91,1.91-20.67,72.05-142.57,72.05-142.57"/><path class="cls-10" d="M335.07,664.73s-30.92-43.8-25.77-87L297.06,458.61l-14.38-96s-5.4-28.24-3.72-37.19"/><line class="cls-10" x1="302.16" y1="333.49" x2="421.59" y2="440.39"/><path class="cls-10" d="M408.39,410.55s.41-11.49,3.73-15.79"/><path class="cls-10" d="M396.41,373.57s11.09,21.57-34.54-6.83"/><path class="cls-10" d="M139.49,361.54s-14.61,5-19.57-14.56"/><path class="cls-10" d="M92.23,641.92s25.7,33,8.35-140.49"/><path class="cls-10" d="M236.89,299.64c14.43-12.33,3.27-47.2,3.27-47.2l-6-30.3c-2.78-16.89,6-21.18,6-21.18"/><path class="cls-10" d="M239,226.43s10.6,18.24,28.83,13.14"/><path class="cls-10" d="M67.17,649.86s-6.43-68.75,0-74.53"/></g><path class="cls-11" d="M306.85,285.61s40.61.65,59,27.54c0,0,23.26,21.77,22,47.43,0,0,8,36.11-24.35,13.5,0,0-78.68-49-79.11-69.86S306.85,285.61,306.85,285.61Z"/><path class="cls-11" d="M177.13,347s13.61-27.61,21.45-34.17c0,0,14.14-21.49,40.91-20.09,0,0-18.43,44.28-58.63,58.4a3,3,0,0,1-3.78-4Z"/><path class="cls-11" d="M237.4,300.17s11.32,39.45,41.49,53.31c0,0-5.75-41.35.93-47l4.54-18.76S252.87,283.57,237.4,300.17Z"/></g><g id="arms-2" data-name="arms"><path id="right_arm" data-name="right arm" class="cls-5" d="M342.13,219.2s8.19-12.09,14.51-14.65l7.5-5.16,2.48-2.16s9.61,20.51,12.38,20.65l15.65,21.61a9.44,9.44,0,0,1,.72,9.76s-9.23,22.37-22.85,29.69L339,305.62l-7.3,6.11s-10.16,11.06-19.77,0c0,0-10.89-16.69-24.68-9.62,0,0-9.5,7.91-10.52,2.83,0,0-4.74,3.47-3.81-.26l6.69-6.1s-2.83-3.56,3.79-10.67c0,0,1.81-1.76,7.35-6.12,0,0,4.78-6.25,8.34-2.94,0,0,5.26-4.66,6.49-.13,0,0,10.08,19.9,19.65,20.54,0,0,15.31-11.7,17.65-20.2l18.93-30.83s.85-6.6-2.56-10.64C359.23,237.59,344.59,218.66,342.13,219.2Z"/><path id="left_arm" data-name="left arm" class="cls-5" d="M218.45,228.73,228.26,241l5.91,16.64s-11.36,15.25-11.83,19.61c0,0-8.24,23.8-26.76,31,0,0-40,31-40.6,32.52,0,0-5.14,3.26-8.25,2.95,0,0-7.78-.62-11.51,1.71,0,0-10.13-.85-13.66-7.65,0,0-3-4.55-11-3.29,0,0-2.16-1.62,2.61-3.6,0,0,4.41-3.33,7.29-.72,0,0,5.94,3.51,6.66.72,0,0-2.79-12-4.59-9.63,0,0-4,11.16-11.25,7.92,0,0-2.07-.63.81-2.88,0,0,7.65-6.66,7.38-9.45,0,0,1.44-5.49,4.5-4.68,0,0,2.61,1.71,2.7,3,0,0,5.67-.54,5.94-.18,0,0,2.87,1.78,2.6,3.34,0,0,3.55-2.63,4.46-.81,0,0,2.42.9,2.33,2.16,0,0,4.16-.18,4,2.53,0,0-.06,5.22,2.18,4a5.15,5.15,0,0,0,3.24-1.62l8.17-8,17.25-21,10-18.93s10.2-13,12.8-13.73c0,0,6.68-3.71,10-13.73Z"/></g><g id="Face-2" data-name="Face"><path class="cls-12" d="M298.44,123.37s-9,17.09-20.42,18.94"/><path class="cls-12" d="M262.28,98.64s1.94,4.15.76,6.69"/><path class="cls-12" d="M261.68,114.31a2.29,2.29,0,0,0,2.88,2.62"/><path class="cls-13" d="M271.54,114.82l-2.88.06s-.08.84.67,1C270.26,116,272,115.47,271.54,114.82Z"/><g id="Mouth"><path class="cls-14" d="M269.58,122.31s-5.25-.21-7.91,1.46a28.55,28.55,0,0,0,2.9,3.17s3.66,5.79,7.14,6.18,5.68-2.85,5.68-2.85,4.13-7.49,5.19-9a1.15,1.15,0,0,1,.22-.26c.43-.24-2.37.63-3.72.63C279.08,121.64,269.68,121.2,269.58,122.31Z"/><path class="cls-7" d="M266.67,125.22s2.3,3.58,5.83,3.18a6.92,6.92,0,0,0,4.77-3.54Z"/></g><g id="eyebrows"><path class="cls-15" d="M243.9,93.58s2-5.15,5.15-4.47c0,0,5.37,3.11,5.48,1.25,0,0-3.67-4.42-8.2-2.83a6.62,6.62,0,0,0-2.71,4.81S243.05,93.64,243.9,93.58Z"/><path class="cls-15" d="M276.87,84.25a5.89,5.89,0,0,1-2.71.72s-3.2,1.28,0,1.46c0,0,4.36.87,6.8-1.92a7,7,0,0,1,5.82-1.34,18.35,18.35,0,0,1,4.07,1.75.45.45,0,0,1,.18.29c0,.69,2.5-.64-3.67-3.32,0,0-4.52-1.22-7.32.81A9.23,9.23,0,0,1,276.87,84.25Z"/></g><path class="cls-16" d="M281.06,92.8s-2.9.12-3.53,6.28c0,0,11.84,2.47,13-4.17l.26-1.43Z"/><path class="cls-17" d="M280.93,92.16s-1.08,6,3.58,6c0,0,4.59.55,5.38-4.62C289.89,93.49,287.43,91.12,280.93,92.16Z"/><path class="cls-18" d="M282.81,92.21s-1,3.4,1.66,4c0,0,4,1.23,3.61-3.52C288.08,92.66,285.37,90.88,282.81,92.21Z"/><path class="cls-7" d="M285,92.68s.17,1.93,1.65.78C286.67,93.46,286.71,91.82,285,92.68Z"/><path class="cls-18" d="M290.81,95.9H295V94.53s-2.8,1.09-2.87-.51l2.46-.89-.27-.7-2.74.37,2.26-2-1.71-.61-1.85,1.49s-10.38-3.17-13.2,3l1,.75s2-3.74,5.79-3.19C283.82,92.23,290.83,91.68,290.81,95.9Z"/><path class="cls-16" d="M258.45,95.54s2.89,1,3.83,5.44c.11.52.16,1.27.23,1.91,0,0-12.34,2.43-13.52-4.21l-.26-1.44,2.49-1.7Z"/><path class="cls-17" d="M261.67,97.86s-1.53,5.86-5.76,3.89c0,0-4.38-1.44-2.92-6.46C253,95.29,256.22,94.18,261.67,97.86Z"/><path class="cls-18" d="M259.94,97.11s-.56,3.49-3.17,2.9c0,0-4.15-.57-1.79-4.71C255,95.3,258.19,94.83,259.94,97.11Z"/><path class="cls-7" d="M257.74,96.61s-1,1.68-1.82,0C255.92,96.62,256.58,95.12,257.74,96.61Z"/><path class="cls-18" d="M248.73,99.67h-4.15V98.3s2.81,1.09,2.88-.52L245,96.89l.27-.7,2.73.37-2.25-2,1.71-.62,1.84,1.49s10.38-3.17,13.21,3l-1,.75s-2-3.74-5.79-3.19C255.71,96,248.7,95.44,248.73,99.67Z"/><path class="cls-12" d="M277.28,164.69s2.59-5.27.74-13.77"/></g></g></svg>