<svg id="Jasmine" xmlns="http://www.w3.org/2000/svg" viewBox="0 0 433.03 792"><defs><style>.cls-1{fill:#0b1c23;stroke-width:3px;}.cls-1,.cls-15{stroke:#231f20;}.cls-1,.cls-12,.cls-13,.cls-15,.cls-16,.cls-19,.cls-2,.cls-20,.cls-21,.cls-22,.cls-23,.cls-4,.cls-5,.cls-8,.cls-9{stroke-miterlimit:10;}.cls-2{fill:#f7b787;stroke:#e48546;}.cls-3{fill:#090909;}.cls-4{fill:#e27328;}.cls-4,.cls-5{stroke:#c35129;}.cls-5,.cls-6{fill:#fff;}.cls-15,.cls-19,.cls-20,.cls-21,.cls-23,.cls-5{stroke-width:2px;}.cls-7{fill:#da7e46;}.cls-12,.cls-13,.cls-15,.cls-21,.cls-8{fill:none;}.cls-12,.cls-8{stroke:#da7e46;}.cls-9{fill:#ca6e2a;stroke:#600c0f;stroke-width:0.75px;}.cls-10{fill:#15100f;}.cls-11{fill:#0d0a0b;}.cls-12{stroke-width:1.5px;}.cls-13{stroke:#e48545;}.cls-14{fill:#e48545;}.cls-16{fill:#cdeaec;stroke:#7dbcbb;}.cls-17{fill:#4cbddd;}.cls-18{fill:#cda52c;}.cls-19{fill:#69b7b7;}.cls-19,.cls-20,.cls-21,.cls-22,.cls-23{stroke:#63b6b3;}.cls-20{fill:#97d0d2;}.cls-22{fill:#a0d2d1;}.cls-23{fill:#a0d1d0;}</style></defs><title>princesses</title><path id="Hair" class="cls-1" d="M276.05,54s-10.44-13.3-14-15.18c0,0-78.55-62.64-103.69,31.09,0,0,37.92-15.76,44.74-11.07,0,0-61.78-3-86.92,59.65,0,0-5.19,40.41,48.11,69.74L149.81,187s-69.63,44.13-17.07,75.67l5.82,11.41s-29.3,19.46-16.55,52.34c0,0,16.77,34.9,35.12,45.64a28.4,28.4,0,0,1,18.79,14.76s2.9,5.59,2.68,7.16c0,0-9.36-18-18.92-20.15,0,0,29.61,34.57,5.28,59.87,0,0-13.05,9.5-20.78,1.61,0,0-5.8-3.55-2.74-11.77a7.12,7.12,0,0,1,7.73-2.9s6.61,2.1.81,8.38c0,0,4.35,1.94,4.83-7.89,0,0-6.28-11.76-21.75-.16,0,0-12.24,17.72,7.25,29.48,0,0,20.63,16.92,42.7-4L236.5,281.13l-11.25-98.29s8.24-2.61,13.78-15.5c0,0,8.68-12.4,10.3-12.5,0,0,17.11-18.51,42.21-25.56,0,0,35.12-19,9.82-47.11a59.13,59.13,0,0,0-16.92-13Z"/><path class="cls-2" d="M252.46,78.53l-15.29,4.62-42.42,5.33c-3.48,1-.34,0-1.73,3.37l-8.4,7.64a57.32,57.32,0,0,0-.08,8.62s6.45,53-1.77,61.2c0,0-4.22,16.22-30.33,24.92,0,0-13.87,5-16.46,19.88v25.52l.64,8.3,1,44.32s-16.77,26.66-17.45,46.89c0,0-1.79,14.18-2.23,17.76,0,0-6,29.53-7.83,30.2,0,0-1.25,2-2.82-.48,0,0-4.48-7.64-8.82-7.64,0,0-5.15.7-5.74-.59,0,0-3.51-3.63-7.49-.7l-1.06.47s-4.57-7.85-8.55-5c0,0-1.76-1.05-2.34,8.79,0,0-.59,13.42-1.76,14.09,0,0-1.64,3.71,1.41,3.48,0,0-2.93,8,1.17,7.61,0,0,10-3.16,12.41-.93,0,0,4.57,4.92,20.74,1.75,0,0,9.49-.46,12-5.62l23.58-47.05s20.44-37.91,20.8-48.18l1.15-48.8,42.35,37s9.24,4.8,6.75,17.41l54.47,10,12.37-15.23,25,18.17s25.4,5.6,26.57,6.76c0,0,17.94,8.39,23.07-3,0,0,5-11.59,8.34-12.59,0,0,10.14-3,9.89-9.14,0,0,1.5-11.51-3.26-11.13,0,0-.37-8.88-6.38-9.26,0,0-5.88-16.64-14.38-13.39,0,0-2.88,1-3.63,5.26l-1.63,9.13s-7.38-4.38-6.26-.12c0,0,2.76,8.5.51,12.26,0,0-3.26,6.88-3,9.38l.5,9.13s-15.85-6.35-17.66-8.76c0,0-38.86-27.9-49.25-28.38l-1.1-.62s-6.29-21-5.39-28.92c0,0,1.11-53.69-7.15-55.11,0,0-6.5-3.44-8.24-4,0,0-24.8-3.65-28.1-13.79,0,0-2.08-9.54-1.47-12.75a13.92,13.92,0,0,0,12.64-5l17.54-17.24s9-7.37,8-16.07l-.34-13.1,9.18-11.73s3.7-6.4,1.62-10.94l-8.6-7Z"/><polygon class="cls-2" points="106.75 702.4 86.79 723.86 79.96 737.05 82.39 747.03 109.31 737.58 121.7 710.9 106.75 702.4"/><path class="cls-2" d="M215,711.56l-8.84,24.76,8.84,9.51,46.24,9.44,4-8.39-19.7-10.31s-19.92-18.84-16.68-22.74Z"/><g id="accents"><g id="Face"><g id="Eyebrows"><path class="cls-3" d="M220.13,86s9,8.91,11.46,8.15c0,0,1.91-1.86,1.15-4.05,0,0-2.42-6.13-3.82-6.13l-5.22-1.53L219,84Z"/><path class="cls-3" d="M266.92,92.21s-9.74-.86-11.91,1.43c0,0-5.34,3.06-3.69,4.58,0,0-1.4.64,5.48,0,0,0,8.22-2.08,10.38-1.31l.24,0,.09-1.68-.27-2.41Z"/></g><g id="Mouth"><path class="cls-4" d="M212.3,136.85s2,3.86,1.81,5.51c0,0,1.57,10.47,10.06,13.27,0,0,4.61.66,8.65-5.6l4-3.78,3.05-1.58s-1.65-2.31-10.31-2a16,16,0,0,0-11.78-3.38S212.3,137.85,212.3,136.85Z"/><path class="cls-5" d="M216.57,141.66c2,.42,10.47,2.24,11.85,3.54l3.7,0a.93.93,0,0,1,.7,1.54c-1.31,1.54-4,3.66-6.13,3.56,0,0-7.69-3.07-10.36-8.34A.23.23,0,0,1,216.57,141.66Z"/></g><g id="Left_Eye" data-name="Left Eye"><path class="cls-6" d="M204.28,96s-6.52,8.87.29,14.16c0,0,4.26,4.4,8.5,3.64,0,0,8.24,1,7.83,1.74,0,0,.67-6.6.67-7.26A14.7,14.7,0,0,0,213.4,96S204.37,94,204.28,96Z"/><path class="cls-7" d="M202.6,97.27s-3.12,3.63-1.1,10.13c0,0,4.31,6.75,10,7.26,0,0,7.68.67,9,1.6,0,0,.59-2.2-9-2.53,0,0-7.93-1.59-9.79-8.22,0,0-.25-6.55,2.19-8.24Z"/><path class="cls-8" d="M219.81,101a12.75,12.75,0,0,0-6.41-8.57"/><path class="cls-9" d="M213,97.4s-8.42-1.52-8.48,6.07c0,0-1.23,6.73,5.5,7.91,0,0,5.15,1.41,7.58-4.69a7.28,7.28,0,0,0,.12-5.18C217,99.56,215.55,98.21,213,97.4Z"/><path class="cls-10" d="M213.15,97.85s-6.11-1.1-6.15,4.41c0,0-.89,4.89,4,5.75,0,0,3.74,1,5.5-3.41a5.24,5.24,0,0,0,.09-3.76A4.8,4.8,0,0,0,213.15,97.85Z"/><path class="cls-6" d="M215.64,101s-2.22-.4-2.24,1.61c0,0-.13,2,1.57,2.11,0,0,1.44.43,2-1.67a1.26,1.26,0,0,0,0-.61A1.87,1.87,0,0,0,215.64,101Z"/><path class="cls-11" d="M199.74,89.66s-.32,7.38,4.12,7.61c0,0,13.6-3.4,17,8.88,0,.2.18,1.31.23,1.52l-.16,7.88s2.77-5.67-.4-14a14,14,0,0,0-12.34-7.33S200.69,94.57,199.74,89.66Z"/></g><g id="Nose"><path id="circle" class="cls-12" d="M226.26,134.36s-3,1.39.5,2.5c0,0,4.16.55,3.55-.78C230.31,136.08,228.2,134,226.26,134.36Z"/><path id="Nose-2" data-name="Nose" class="cls-12" d="M233.56,137.91s7.27-.67,7-7.66c0,0-1.25-18.63,2.05-24.74"/></g><g id="Right_Eye" data-name="Right Eye"><path class="cls-6" d="M241.38,121.71s7.32,4,14.55-4.67l1.81-2.86s-4.11-9-9.64-3.82l-7.15,5Z"/><path class="cls-8" d="M257,104.77s-9.19-.5-12.93,4.44"/><path class="cls-9" d="M241,115.35s.41,4.21,4.26,4.52c0,0,8.76,1.09,7.35-7.87,0,0-.9-4.41-3.1-3.42Z"/><path class="cls-10" d="M242,113.71s.11,2.89,2.73,3.26c0,0,5.94,1.1,5.34-5.08,0,0-.43-3-2-2.45Z"/><path class="cls-6" d="M249.92,110.39s-1.8-.33-1.82,1.3c0,0-.1,1.61,1.28,1.71,0,0,1.16.35,1.63-1.35a.94.94,0,0,0,0-.5A1.52,1.52,0,0,0,249.92,110.39Z"/><path class="cls-11" d="M241.38,115.53s6.72-6.9,10.05-6.61a6.6,6.6,0,0,1,5.61,3.43l.42.58,1.7-2a8.92,8.92,0,0,0-9.84-3.43c-4.95,2.74-7.87,6.74-7.72,5.67Z"/><path class="cls-7" d="M241,121.17v1.37s.76.92,8.68.4c0,0,5.73-3.08,7.34-5.53l.77-3.23s-3.7,5.91-7.62,7.25C250.12,121.43,244.18,123.46,241,121.17Z"/></g></g><path class="cls-13" d="M78.18,396a25.85,25.85,0,0,0,0-8.13l6.34,7.6s2.15,1.27,0,1.27c0,0-8.56-1.41-11.32,3.26"/><line class="cls-13" x1="89.13" y1="383.43" x2="85.07" y2="377.6"/><path class="cls-13" d="M104.54,396s7.61-8.56,5.62-8.9"/><path class="cls-13" d="M229,229.63s-3.22-6.86-5.83-8.09"/><path class="cls-13" d="M248.88,213.88s-3.15-4-2.94-6.56"/><path class="cls-13" d="M194.52,141.66s11.27,24.42,25.35,25"/><path class="cls-14" d="M250.48,295.05s-1.56-.4-1.21,1.5c0,0,3.81,4.34,3.58,1.91Z"/><line class="cls-13" x1="336.43" y1="322.15" x2="335.85" y2="314.55"/><path class="cls-13" d="M349.91,323s3.55-7.6,1-13"/><path class="cls-13" d="M346.6,307s-1.35-4.77,0-6.86c0,0,2.28-8.78-2.25-11.84"/><path class="cls-13" d="M352.36,291.27s-.12-4.41,2-4.41c0,0,7.37,7.6,9.08,3.25"/><polyline class="cls-13" points="354.32 286.86 349.91 279.87 349.49 288.76"/><path class="cls-13" d="M356,293.47s2.94,1.23,1.83,5.52c0,0-4.53,8.45-2.69,11.52,0,0,1.84,4.41,4.29-.49L364,302.9s1-1,1-3.91l-1.59-9.19"/><path class="cls-13" d="M370,296.78s1,7.85-2.08,10.17l-8.06,7.6s-3.95,2.79-3.09-2.22"/><path class="cls-13" d="M360.55,314.17s.12,3.32,3.19,2.61"/><path class="cls-8" d="M257,259.19s-5.93,16.09-2.64,22.57c0,0,6,13,16.17,17.44"/><line class="cls-8" x1="137.25" y1="300.49" x2="137.91" y2="292.93"/><path class="cls-8" d="M166.47,241.63s-.83-12,5.6-18.45"/></g><path class="cls-15" d="M260.77,66.16s0,15.41-33.13,17.65c0,0-29.81,4.34-31.64,4.34s-1.25.33-1.25.33-22.94,6.9-30,20.7"/><path class="cls-15" d="M194.75,88.48s-34.3,30.24-36.54,50.34,13.61,25.51,13.61,25.51"/><path class="cls-15" d="M142.9,356.68s36.77,28.28,35.2,36.77"/><path class="cls-15" d="M281.19,121.59s8.17-16.66-11-27c-14.12-7.64-17.73-16.79-17.73-16.79"/><path class="cls-15" d="M156.14,72.3s32.27-14.64,47.08-13.64"/><path class="cls-15" d="M289.05,71.8c-1.45,2.44-23.64-13.63-23.3-15.64"/><g id="Headband"><path class="cls-16" d="M162,67.89s19.69-29,68.92-31.75c0,0,1.51,10.09,5.56,12.06,0,0-37.06-1.72-54.29,13.54Z"/><path class="cls-16" d="M264.28,46.85v3.72a10.22,10.22,0,0,1,1.47,5.59s15.29,9,17.82,12.77c0,0-.93-8.12-6.25-12.24C277.32,56.69,266.94,46.58,264.28,46.85Z"/><path class="cls-17" d="M239.07,28s-7.38,7.07,3.16,16.07c0,0,13.1,16.3,22,6.46,0,0,.45-12.19-5.78-15.9C258.5,34.67,249.71,23.78,239.07,28Z"/><path class="cls-18" d="M239.07,28s-8.16.28-8.13,8.1S246.5,62,258.3,61.46c0,0,8.12.74,6-9.44l-.82-.94s-5.62,5.79-13.06-.14c0,0-12.93-8.07-13.38-17C237,33.93,236.73,29.67,239.07,28Z"/></g><path id="Hairelastic" class="cls-19" d="M149.19,177.82s-2.85,6.74.94,8.64c0,0,3.69,4.85,5.27,5.37l8.85-3.58S149.67,176.41,149.19,177.82Z"/><g id="Jewlery"><path id="Earring" class="cls-18" d="M177.27,106.61s1.79-4.62,4.88,0c0,0,13.87,6.94,13.87,23,0,0,5.91,19.91-10,16.19,0,0-26.33-2.83-22.22-19.53A49.63,49.63,0,0,1,177.27,106.61Z"/><path id="Earring-2" data-name="Earring" class="cls-18" d="M255.61,133.82s5.78,13.31,1.58,18.57c0,0-1.49,3.42-8.5,2.19,0,0-10.6-.26-7.62-3.77Z"/><path id="necklace" class="cls-18" d="M183.56,165.64a3.29,3.29,0,0,0,0,4.84s10,13,21.76,16.27c0,0,5.94,2,9.68,1.32,0,0,6.26,1.32,5.49-7.8l-2.31-5-.11-2.09s10.67,2.86,9.46,19.24c0,0-1.1,11.76-4.73,12.2,0,0-8.46,3.19-21.66-7.7,0,0-23.41-16.05-24.4-23.19C176.74,173.78,176.52,165.86,183.56,165.64Z"/></g><g id="Shirt"><path class="cls-19" d="M163.64,279.31s11.08,2.12,14.33-5.86l-4.56-5.54s-6.35,5.7-9.12,4.56Z"/><path class="cls-20" d="M135,240l.93.55s-1.48,6.66,0,7.77c0,0,6.28,6.93,30-6.75l6.22-3.33s13.56-18.38,30-18.79c0,0,16.2,3.2,30,12.11,0,0,5.44-11.58,8-12.11,0,0,6.83-5.32,8.51-5.32,0,0,17,18.69,23,18.86a7,7,0,0,1-1.06,6.47s-6,8.06-4.43,13.11c0,0-4.88.26-6.12-2,0,0-3.36,1.51-3.1,8.59,0,0-53.39-1.12-68.52,21.51l-.68,1.06s-19.36-16.48-20.69-25.5c0,0-21.92,20.44-34.47,11.65,0,0-.41,0-.52-2,0,0,.31-11.18-2.61-15.35,0,0-1.35-3.2.27-4.93Z"/><path class="cls-21" d="M167.89,254.93s14.44-12.58,14.44-15.3"/><path class="cls-21" d="M193.49,259.93s19.87,3.43,27.3-6.86"/><path class="cls-21" d="M266.4,232.34s-1.14,17.44-10.86,20.73"/><path class="cls-21" d="M173.08,237.05s7-3.85,8-3.71"/></g><g id="shoes"><path class="cls-22" d="M94.6,712.9s-15.28,15.28-8.28,26c0,0,12.22,9.16,26.1-9.93,0,0-2.93,17.56-20.11,24,0,0-11.59,5.22-15.4-.63,0,0-6.24-4.2-2.93-14.51C74,737.85,75.89,725.5,94.6,712.9Z"/><path class="cls-21" d="M75,739.32A6.27,6.27,0,0,0,84.18,741s-1.15,8.79,5.6,8"/><path class="cls-23" d="M271.28,746.27s-6.86,1.31-9.62.09a.67.67,0,0,0-.93.53c-.3,2.31-3,6.24-18.93,2.27,0,0-28.83-8.55-33.76-20.88,0,0-10.88,16.1,0,21.46,0,0-.73,1.89,19.72,3.48,0,0,12.33,1.89,13.63,4.35a28.64,28.64,0,0,0,23.06,5.23s17.7-1.89,15.81-14.36c0,0-1.16-14.36-14.79-10.3,0,0-2.6.55-2.89,4,0,0,15.51-1.85,5.21,10.18"/></g><g id="Pants"><path class="cls-20" d="M127.24,710.9s-3.91,5-12.44,0c0,0-9.66-1.35-11.92-15.64,0,0-13.14-15.86-13.1-31.71,0,0-6.17-36.37,8.17-59.81,0,0,.83-10.75,43.58-52.67,0,0,36.4-35,36.4-49.1,0,0,7.17-37,5-56.53,0,0-.56-64,4.41-72,0,0,20.2-47.92,22.94-50.3s8.36-9.15,8.36-9.15l31.85,5.05,25.16,11.47,2.8-24.93,13.13,7.77s28,20.92,30.94,36.69c0,0,14.49,43,4.17,95.13L312.58,513.7l2.35,62.88S331.82,647,282.55,690.15c0,0-22.88,22-40.75,20.42,0,0-2,10.21-16.26,9.91,0,0-17.64-1-17.2-12,0,0-19.24-11.36-19.39-19.53C189,689,152.33,720,127.24,710.9Z"/><path class="cls-21" d="M102.75,679.48a41.21,41.21,0,0,0,24.49,31.42"/><path class="cls-21" d="M109.79,699.45s-6.09-3.56-6.09-4.26"/><path class="cls-21" d="M210.13,708s30.74,11.19,57.14-16"/><path class="cls-21" d="M189,689s58.25-56.69,72.39-142.35c0,0,13.68-58.42,13.68-82.95,0,0,0-54.55-2.54-60,0,0-3-25-7.61-34.68"/><path class="cls-21" d="M273.59,404.63s1.89-18.52,8.6-21.81"/><path class="cls-21" d="M170,518.9s18.27-19.15,25.93-50.15"/><path class="cls-21" d="M312.58,513.7s-6.23,18.51-7.37,26.48"/></g><path id="Belt" class="cls-16" d="M213.45,313.16l-3.2,10s9.8-11.59,28-3.2L261,332.15s11.66,9.4,16.45,6.4c0,0,2,2.8,5.4-15.2V309.16L270.23,299s2.8,15.8-1.4,18.2c0,0-3.4,1.79-30.39-6.4C238.44,310.76,218.25,307.56,213.45,313.16Z"/></svg>