<svg xmlns="http://www.w3.org/2000/svg" viewBox="0 0 565.36 792"><defs><style>.cls-1{fill:#fee8d1;}.cls-1,.cls-20,.cls-22,.cls-6{stroke:#dcb6a3;}.cls-1,.cls-10,.cls-11,.cls-13,.cls-14,.cls-15,.cls-17,.cls-18,.cls-2,.cls-20,.cls-22,.cls-25,.cls-26,.cls-3,.cls-4,.cls-6,.cls-8,.cls-9{stroke-miterlimit:10;}.cls-2,.cls-22,.cls-27{fill:#fff;}.cls-11,.cls-2{stroke:#82b7e3;}.cls-3{fill:#faed9c;}.cls-3,.cls-4{stroke:#ebd572;stroke-width:2px;}.cls-11,.cls-18,.cls-20,.cls-25,.cls-4,.cls-9{fill:none;}.cls-5,.cls-6{fill:#fee8d2;}.cls-7{fill:#0a0a0d;}.cls-8{fill:#e03d5a;stroke:#aa2241;}.cls-9{stroke:#aa2240;}.cls-10{fill:#1565a6;}.cls-10,.cls-13,.cls-14{stroke:#0e6aa9;}.cls-12{fill:#cea377;}.cls-13{fill:#82b7e3;}.cls-14,.cls-15{fill:#aa2240;}.cls-15{stroke:#0d6aaa;}.cls-16{fill:#cd9b2c;}.cls-17{fill:#f9db96;}.cls-17,.cls-18{stroke:#cc9b2c;}.cls-19{fill:#cc9b2c;}.cls-21{fill:#050606;}.cls-23{fill:#421c12;}.cls-24{fill:#dbb6a3;}.cls-25{stroke:#dbb6a3;}.cls-26{fill:#e55162;stroke:#be2434;}</style></defs><title>princesses</title><g id="Snow_White" data-name="Snow White"><g id="Feet"><path class="cls-1" d="M176.13,737.11l-5,9.54,21.23,7.8s6.82-9.31,6.47-16.7Z"/><path class="cls-1" d="M289.56,735.22l-16.3,4.9.8,25s17-3.18,27.23-10.48Z"/></g><path id="white_back" data-name="white back" class="cls-2" d="M213.88,148.44l20.57,30.2L200.72,158.5s-17.52-21.58-23.94-22.32c0,0-12.78-6.67-17.45-14.53-1.55-2.62-2.21-5.38-1.19-8.06,0,0,3.55-17.78,27.33-24.44,0,0,140.88-17.41,143.8,30,0,0,6.25,5.93-14.86,20.74a41.7,41.7,0,0,0-15.73,27.35l-84.8-18.79s-14.24-9.52-21.88-9"/><g id="Skirt"><path class="cls-3" d="M288.29,295.38H281.4s-10-7.21-14.28-5.39c0,0-35.56,6.69-38.6,16.71,0,0-30.21,55.1-29.15,94.67,0,0-11.31,119.77-25.8,128.25,0,0-34.62,85.86-71.36,115.53,0,0-7.07,42.05,29,37.45,0,0-10.6,24,13.78,32.16,0,0,18,34.27,53.35,25.43,0,0,9.89-7.06,14.48-6s-2.12-1.77-2.12-1.77,17.67,3.53,15.55-11.3c0,0,10.6-.71,10.24,5.3,0,0-4.59,22.61,23.32,21.19,0,0,44.52.36,59.36-14.48,0,0,36.39,2.47,36-13.78,0,0,2.48-21.55,14.14-21.55l6,2.12s1.06,13.07,20.14,12.36c0,0,29.33-4.24,26.5-23.32l-2.47-13.07s28.26,1.06,22.61-24c0,0-41.34-64-39.57-110.59,0,0,1.41-137.44-20.49-161.81,0,0-15.9-90.8-52.65-92.22Z"/><path class="cls-4" d="M169.06,558.4s7.19,3,14.37-44.3"/><path class="cls-4" d="M130.24,690.69s14.11-44.26,21.17-46.18c0,0,24.7-42.31,24.84-69.91"/><path class="cls-4" d="M291.87,484.17s1.92,59.64-30.15,100.69-35.27,93.64-35.27,93.64v41"/><path class="cls-4" d="M259.17,636.81s-23.1,71.84-21.82,85.3"/><path class="cls-4" d="M357.93,702.23s3.84-76.32-7.7-94.92c0,0-1.28-71.83,13.47-102.62"/><path class="cls-4" d="M376.53,702.23S365.62,628.48,372,590"/><path class="cls-4" d="M418.22,673.37c0-3.85-6.42-44.89-6.42-44.89"/><line class="cls-4" x1="404.1" y1="640.66" x2="404.1" y2="541.25"/><path class="cls-4" d="M380.37,383.47S386,464.93,370,484.17"/><line class="cls-4" x1="317.07" y1="317.76" x2="327.5" y2="347.12"/><path class="cls-4" d="M354.54,332.44s-17.39-35.93-27-38.63"/><line class="cls-4" x1="282.68" y1="298.06" x2="286.94" y2="306.94"/><path class="cls-4" d="M238.26,311.58s-13.13,27.81-9.65,39.79"/></g><g id="Skin"><path id="Skin-2" data-name="Skin" class="cls-5" d="M292.15,48.14l-49.49-3.85L220.45,74.34,224.93,98l-11.05,11.57,3.65,2.48s5.17,31.18-3.65,35.34c0,0,17.6,43.15,44.3,41.77,0,0,46.43,8.75,38.34-21.21,0,0-17.78-16.17-33.49-17.79l-.46-2.56s37.63-16.31,37.58-32.87l3.25-15.39L319.9,81.4l-1.61-16.78Z"/><path class="cls-6" d="M194.83,242.74l8-18.85,21-2.23,7.07,4v4.49l11.2,33.4,22.72,27,20.33,26.18s11.82-57,20.41-59.15c0,0,2.76-37.47,6.56-39l1.56-8.92,18.73,13.68-1.61,14.28.22,36.85s-.43,15.63-4.46,23.07L303.5,339.7l7,7s4.23,7.63,4.23,11.87l-.21,30.74s-.82,12.35-8.24,10.29l-3.57.23s.55,6.77-7,4.71c0,0-3.16,5.59-8.65.39,0,0-5.77,2.08-7.69-1.63a17.37,17.37,0,0,1-3.71-11s.69-3.16,2.06-3c0,0,.41-3.57,1.92-2.75,0,0-1-19.91-2.47-23.07,0,0-1.1-19.5.27-21.29,0,0-54.74-36.28-58-51.11C219.44,291.07,196.27,248.47,194.83,242.74Z"/></g><path id="Hair" class="cls-7" d="M219.67,132.34s-23.75-6.14-24.47-22.5c0,0-14.22-11.73-11-35.2,0,0,7.11-21.33,18.49-16.35,0,0,3.2-32.71,34.13-43.37,0,0,13.16-9.6,48.71,0,0,0,15.81,10.44,16,12.35l9,20.06s26.06,17.41,16.72,34c0,0-.84,6.4-9.61,11.42l-10.73,6L309,111.28s.7,17-7.39,21.6c0,0-8.22,8.22-22.71,3.9,0,0,26-9.72,19.84-33.15l1.37-5.45s18.42-13.79,15.69-23.84c0,0-20.7-16-23.65-26.2,0,0-3.19,8.64-20.7,5.69,0,0-23-3.87-30.25,3.64,0,0-9.55,9.41-9.32,16.87,0,0,2,33.61-5.69,38.16,0,0-6.13,4-8.21,2.71Z"/><g id="Headband"><path class="cls-8" d="M240.66,33.33s11.15-6.56,35.65,0c0,0-1.42,12,7.41,12.31,0,0,9.37-2.5,9.48-5.34,0,0-.33,2.51,3.81,2,0,0,3.81,11.22,8.94,9,0,0,4.25-3.27,4.57-5.23l8.39,9.37,1-7.63s-6.11-8-9.49-9.15c0,0,2.51-13.73-8.82-10.57,0,0-3.27,2.72-3.16,4.68,0,0-1.42-5.23-5.45-2.18,0,0-6-17-12.7-9.48,0,0-2.34,2.07-1.79,3.71C278.49,24.83,242.81,15.68,240.66,33.33Z"/><line class="cls-9" x1="290.81" y1="34.14" x2="285.93" y2="29.26"/><line class="cls-9" x1="299.2" y1="35.9" x2="304.48" y2="35.9"/><line class="cls-9" x1="303.4" y1="44.29" x2="300.15" y2="39.56"/><line class="cls-9" x1="289.45" y1="38.2" x2="281.87" y2="38.88"/></g><g id="Shirt"><g id="Middle"><path class="cls-10" d="M210.42,164.84a7.1,7.1,0,0,1,3.46.6l27.24,19.83s10.08,9,37.81,3.9c0,0,21.46-2.46,18.8-18.22l.95-3.72s11.34,12.93,12.33,26c0,0,2.87,18.45,1.15,25.29l-5.22,20.52-1.34,18.5L296,273.64s-6.7,19.56-5.89,23.85l-7.38-1.07s-12.19-9.11-17.82-5.9l-22.2-25.46-11.72-34.95"/><path class="cls-11" d="M281.42,191.9s8.09,19.37,7.52,34.11l0,35.84s-2.58,19.08,0,21.4"/></g><g id="left"><path class="cls-12" d="M195.79,245.32s13.76-33.9,35.15-15.21v-4.49s-.36-15.16-18.63-7.52c0,0-22.67,7.13-18.92,18.92C193.39,237,192.56,245.11,195.79,245.32Z"/><path class="cls-13" d="M189.85,159.68s-19.46,14.59-21,29.49c0,0-4,38,4,47.07,0,0,8.74,13.73,22,6.5,0,0-4.32-11,1.43-15.48,0,0,14.62-13.78,29.42-10.42,0,0,6.76,3.42,5.26,13.27l1.37-4.76s17.47-14.75,7-30.22c0,0-9.17-14.18-11.89-15.47C227.44,179.66,202.68,152.6,189.85,159.68Z"/><path class="cls-14" d="M203.11,173s-1.4,7.34,2,11c0,0,19.12,14.8,17.13,21.44,0,0,6-9.09.15-18.18Z"/><path class="cls-14" d="M179.16,180.73l13.45,17.4s5.28,14.86-3.68,18.06c0,0-12-.16-12.15-15.67Z"/><path class="cls-14" d="M168.85,224.75s6.92,11.53,7.93.77l-7.93-12.3Z"/></g><g id="right"><path class="cls-12" d="M312.16,210v8.54s14.19,1.81,16.84,9.87c0,0,.27-6.51.1-9.2a6.53,6.53,0,0,0-.1-.91C328.64,216.73,320.1,206.62,312.16,210Z"/><path class="cls-13" d="M298.68,169.29s.45-18.59,12.59-10.79l14.13,17.57s21.93,11.36,18.94,29.31c0,0-6.63,32.9-15.18,26.12L329,218.29s-7.15-11.46-16.84-8.3c0,0-.64-15.67-.89-16.21l-.26-.54s-5.13-14.87-5.68-14.74Z"/><path class="cls-15" d="M311.27,172.31s8.29,30.94,16.75,30.09c0,0,7.43-1.86,3-11.66Z"/></g></g><g id="shoes"><g id="right_shoe" data-name="right shoe"><path class="cls-16" d="M254.15,748.69s9.2,16.27,9.31,17.39h7.29l-1.91-8.7,4.27,6.57s9,14,16.23,14.6c0,0,30.1,4.65,30.1-4.95,0,0-.58-4.65-6.83-8.14a8.27,8.27,0,0,1-8,.87s-.29,11.78-3.35,10.62c0,0-11.05-5.82-12.5-14.11l-19.49-14.15Z"/><path class="cls-17" d="M298.52,758.18s-11-8.62-10.29,2.6c0,0,.09,10.82,13,16.17,0,0,6.4,1,4.43-9.2,0,0,9.14,2.43,7.48-3.57,0,0-3.68-22.29-11.54-15.49,0,0-1.8,3.67-.85,6.48C300.78,755.17,297.27,754.34,298.52,758.18Z"/><path class="cls-16" d="M298.52,758.18s1.38,9.35,7.17,9.57-4.91-12.58-4.91-12.58S296.86,755.18,298.52,758.18Z"/><line class="cls-18" x1="297.25" y1="761.46" x2="293.51" y2="761.46"/><line class="cls-18" x1="301.8" y1="767.75" x2="300.78" y2="771.6"/><line class="cls-18" x1="299.03" y1="764.18" x2="295.38" y2="766.55"/><line class="cls-18" x1="307.4" y1="762.19" x2="310.42" y2="762.19"/><line class="cls-18" x1="305.21" y1="759.56" x2="307.4" y2="758.1"/><path class="cls-18" d="M304.08,753.22v0Z"/></g><g id="Left_shoe" data-name="Left shoe"><path class="cls-19" d="M204.15,737.75s-.41,29.33-25.4,39c0,0-10.74.52-10.84-13.11V760l15.07.83s16.29-11,15.33-20.59Z"/><path class="cls-17" d="M179.1,761.57s1.69,13.89,9.11,5.44c0,0,7.59-7.71,2.21-20.65,0,0-3.82-5.22-9.63,3.38,0,0-4.74-8.19-7.81-2.77,0,0-13.16,18.37-2.8,19.11,0,0,3.88-1.32,5.19-4C175.37,762.1,177.26,765.18,179.1,761.57Z"/><path class="cls-16" d="M179.1,761.57s5.62-7.58,1.69-11.83-5.42,12.36-5.42,12.36S178.15,764.87,179.1,761.57Z"/><line class="cls-18" x1="183.54" y1="752.49" x2="186.98" y2="750.49"/><line class="cls-18" x1="182.97" y1="756.97" x2="187.24" y2="757.88"/><line class="cls-18" x1="173.73" y1="759.08" x2="171.66" y2="761.15"/><line class="cls-18" x1="175.34" y1="755.86" x2="172.75" y2="755.35"/><line class="cls-18" x1="175.64" y1="752.46" x2="173.51" y2="750.33"/></g></g><g id="hands"><path class="cls-20" d="M306.4,384.45s1.71,6.83,0,6.83c0,0-10.36-8-11.72-5.35,0,0-.91,5.12.8,8.42,0,0-6.26-15-7.4-8.76a20.39,20.39,0,0,0,.68,10.92s-1.82-17.63-4.21-11.26A10.37,10.37,0,0,0,282.16,396l-.11-10.52s-6.37,3.3-5.69,9.67"/><line class="cls-20" x1="302.9" y1="399.89" x2="298.48" y2="396.51"/><line class="cls-20" x1="294.37" y1="403.37" x2="291.73" y2="399.89"/><line class="cls-20" x1="286.95" y1="405.1" x2="285.21" y2="401.63"/></g><g id="Face"><g id="Eyebrows"><path class="cls-21" d="M248.29,67.89s-3.57,5,1.94,3.47c0,0,3-3.27,8.87-2.35,0,0,5.51,1.19,6.74,2.64,0,0,5.2,3.48,3.77-.6,0,0-5.2-5.82-11.83-5.61C257.78,65.44,250.53,65.44,248.29,67.89Z"/><path class="cls-21" d="M299,79.88s-3.4,1.28-2,3.07c0,0,4.42-.68,4.85,1.44a11.7,11.7,0,0,1,2,5.37s2.3,2.3,1.87-2.22c0,0-.93-5.44-3.23-6.64C302.56,80.9,300.34,79.14,299,79.88Z"/></g><g id="Left-2" data-name="Left"><path class="cls-22" d="M261.29,92.85h-.53s-14.47,2.23-15.35-9.64c0,0,12.26-2.44,14.39.79A4.64,4.64,0,0,1,261,86.72Z"/><path class="cls-23" d="M246.6,81.67s-1.28,5.33,3.26,7.43c0,0,7.92,2.85,8.51-4.26,0,0-.08-3.55-1.07-3.72C257.3,81.12,249.55,79.4,246.6,81.67Z"/><path class="cls-21" d="M250.45,83.05s-.92,3.19,1.69,3.53c0,0,2.52,1.06,2.77-2.58A2.65,2.65,0,0,0,250.45,83.05Z"/><path class="cls-21" d="M260.7,93.35s1.85-12.87-9.6-12.35c0,0-5.35,1.07-5.69,2.21l-4.54-1.36,1.59-2.39,3.29,1.82,1.4-1-2.65-3,2.65-.79,2,3.18h2.38l-.68-4.54h2.61l.34,4.2s8.2,1.86,8.11,7.88v6.12Z"/></g><g id="right-2" data-name="right"><path class="cls-22" d="M283,98.52c2.28.93,2.71,11.28,15.6-.49,0,0,1.79-6.35-3.57-5.58s-5.09.38-5.09.38L282.82,98C282.6,98.12,282.88,98.46,283,98.52Z"/><path class="cls-23" d="M286.89,93.78s-4.48,2.45-.42,6.66c0,0,4.7,3.29,7.79-3.33,0,0,.42-4.6-1.19-4.67l-1.62-.07Z"/><path class="cls-21" d="M287.49,96.05s0,3.1,2.86,2.59c0,0,3.15-.36,1.79-3.31a2.21,2.21,0,0,0-3.1-.87S287.65,95.33,287.49,96.05Z"/><path class="cls-21" d="M282.68,98.92s5.26-6.21,10.59-5.57c0,0,5.12-.34,4.63,3.21l0,1.38,5.41-2.43-.71-2.16-3.15,2-.5-1,3.26-2.07-1-2L298.39,93l-1.72-.59,2.81-4.75h-2.81l-1.43,4.16a13.05,13.05,0,0,0-12.13,4.33l-1.3,1.72Z"/></g><g id="Face_Features" data-name="Face Features"><path class="cls-24" d="M267.66,113.2s6.09-1.89,4.2.73C271.86,113.93,268.71,114.14,267.66,113.2Z"/><path class="cls-25" d="M275,115s5.77,1.15,5.77-5.69"/><path class="cls-25" d="M231.77,127.25s13.94,20.49,29.52,20.49"/><path class="cls-25" d="M266.4,156.43s-6-2.52-5.11-5.29"/></g><g id="Mouth"><path class="cls-26" d="M271.38,121.29s9.24.51,6.46,3.86c0,0-1,2.06-4.73,1.3,0,0-1.4,9.43-7.8,8.24,0,0-12.67-4.73-13.15-17.18,0,0,18-2.57,17.25,3.33v.6Z"/><path class="cls-27" d="M266.21,123.07s-5.85-2.2-9.13-2.26c0,0,3.54,6.17,8.16,7.19,0,0,5.42.7,6-2.52A31.75,31.75,0,0,0,266.21,123.07Z"/></g></g></g></svg>