<svg xmlns="http://www.w3.org/2000/svg" viewBox="0 0 565.36 792"><defs><style>.cls-1{fill:#f6c64e;stroke-width:1.5px;}.cls-1,.cls-2,.cls-3{stroke:#fde372;}.cls-1,.cls-11,.cls-12,.cls-13,.cls-14,.cls-17,.cls-18,.cls-19,.cls-2,.cls-20,.cls-26,.cls-3,.cls-4,.cls-6,.cls-7,.cls-8,.cls-9{stroke-miterlimit:10;}.cls-2{fill:#52308f;}.cls-11,.cls-12,.cls-2,.cls-3{stroke-width:2px;}.cls-12,.cls-13,.cls-17,.cls-19,.cls-26,.cls-3{fill:none;}.cls-4{fill:#f3d5ba;}.cls-26,.cls-4{stroke:#e5bb93;}.cls-5{fill:#7968a7;}.cls-15,.cls-6{fill:#98b;}.cls-6{stroke:#524469;}.cls-7{fill:#bd88b6;stroke:#52456a;}.cls-8{fill:#fff6f5;stroke:#eed8ea;}.cls-18,.cls-19,.cls-20,.cls-8{stroke-width:0.5px;}.cls-10,.cls-9{fill:#e7accb;}.cls-9{stroke:#bd88b5;}.cls-11{fill:#9964a6;}.cls-11,.cls-12{stroke:#7c408f;}.cls-13{stroke:#54488b;}.cls-14{fill:#e1a6c5;stroke:#534469;}.cls-16{fill:#af7b4b;}.cls-17,.cls-20{stroke:#e0bca7;}.cls-18{fill:#f597b0;}.cls-18,.cls-19{stroke:#c35771;}.cls-20,.cls-24{fill:#fff;}.cls-21{fill:#6db1a2;}.cls-22{fill:#073631;}.cls-23{fill:#0d0c10;}.cls-25{fill:#231f20;}</style></defs><title>princesses</title><g id="Rupunzel"><g id="Hair"><path class="cls-1" d="M240.38,79.94s8.06,2.68,9.87,2.68h1.38l-.55-4.26s12.71-3.3,16.66,7.39c0,0,7.24,9.8,3.17,20.39l-6.71,15.34-40,43.68L190.07,403.25l130.66,25.17V408.06l21.92-46.31s41.56-51.88,22.57-106c0,0-23-55.05-40-67.58,0,0-51.22-40-45.07-64.75,0,0,19.31-60.08-21.05-73.06,0,0-12.16-5.89-18.7,3.27,0,0-28.17-12.72-48,5.85,0,0-31.81,22.74-47.07,49.79,0,0-29,42.32-27.48,83.79,0,0,6.62,75.06,28.75,91L158,304.26,137.89,293s-42.11-17.64-53.33,4.4c0,0-12.79,32.38-12.79,51.85,0,0-4.6,75.41,7.43,98.78,0,0,20.58,71.82,69.06,97.87l-11.32,51.62S24.81,595.38,19.36,633c0,0-30.56,21.88-7.41,33.67,0,0,23.15,14.61,69.45,4.78l31-7.33L193,651.77l44.81,8.35,70.41,33.68s261,58.84,215.14-31.15c0,0,71.15-14.39,14.37-83,0,0-72.8-66.07-97.3-77.25L174.26,432.89l-.16-93.42,21.13-152.75,1.65-56.6L183,118.43l7-3.9s3.35,6.37,5.83,6.13l3.64-10.27S238.4,87,240.38,79.94Z"/><path class="cls-2" d="M334.14,592.25l6,7.36,20.33,25.24s135.49,9.46,108.74-32.6C469.21,592.25,333.28,579.51,334.14,592.25Z"/><path class="cls-2" d="M288.81,651s146,84,151.13,11.62C439.94,662.65,353.5,618.18,288.81,651Z"/><path class="cls-2" d="M162.91,637.18l-33-14.35s-27.16-10.64-31.19,11.74c0,0-1.84,8.07,27.15,7.7Z"/></g><g id="Hair-2" data-name="Hair"><path class="cls-3" d="M242,75s-12-16.63,8.23-23.53"/><path class="cls-3" d="M209,53.57s19.18,3.33,23.5,15.21"/><path class="cls-3" d="M237.18,76.86S214.11,70,207.74,70c0,0-16.58-2.85-17.53-1.19"/><path class="cls-3" d="M157.65,97.8s46.28,2.83,59.86-4.3"/><path class="cls-3" d="M187.58,104.41s-45.14,9.53-52.27,28.54"/><path class="cls-3" d="M145.06,137s41.82-27.36,61.07-32.57"/><path class="cls-3" d="M178.8,132s-23.57,23-21.15,40.64"/><path class="cls-3" d="M155.51,161s-39.88,67.78-10.45,110.56"/><path class="cls-3" d="M121.87,217.84S128,160,153.41,146"/><path class="cls-3" d="M250.25,68.26S262,49.51,270.79,75"/><path class="cls-3" d="M267.28,148s5.86,28.15,10.55,33.08c0,0,14.36,18.07,9.08,32.74"/><path class="cls-3" d="M292.58,195.36s31.57,43.14,31.57,50.49"/><path class="cls-3" d="M332.74,284s0-26.41-5.21-28.3"/><path class="cls-3" d="M248.08,309.92s-.9-37.81,14.75-46.8"/><path class="cls-3" d="M281.54,237.89s12-15.25,11-17.29"/><path class="cls-3" d="M281.54,156s15.64,35,33.42,42.65c0,0,31,26.79,31,34.24"/><path class="cls-3" d="M327.53,196.22s30.34,45.23,28.2,66.9c0,0,0,40.38-6.44,51.56"/><path class="cls-3" d="M330.13,223s37.25,26.3-2.6,103.21"/><line class="cls-3" x1="298.42" y1="389.56" x2="318.61" y2="355.79"/><line class="cls-3" x1="133.01" y1="295.72" x2="157.58" y2="312.8"/><line class="cls-3" x1="152.72" y1="324.34" x2="136.75" y2="304.26"/><path class="cls-3" d="M84.83,347.72s1,59.49,3.9,61.45"/><path class="cls-3" d="M117.06,355.79s12,93.41,29,98.24"/><path class="cls-3" d="M96.55,324.34s14,133.24,55.1,160.31"/><path class="cls-3" d="M102.41,389.56S105,448.11,153,521.67"/><path class="cls-3" d="M74.08,389.56s15.63,95.79,43,122.65"/><path class="cls-3" d="M131.56,604.5s-51.13,2-51.62,6.64"/><path class="cls-3" d="M99.48,600.59S63.83,607,63.83,611.14"/><path class="cls-3" d="M38,627.26,18.9,637.18S5.72,670.91,38,667.5"/><path class="cls-3" d="M67.25,625s-39.07,26.44-9.77,37.64"/><path class="cls-3" d="M70.18,637.18S83.85,661.54,98,660.12"/><path class="cls-3" d="M86.78,629.89s-3.42,15.18,30.28,13.94"/><path class="cls-3" d="M282.68,652.79s85.42,59.4,112.75,56.87"/><line class="cls-3" x1="279.11" y1="662.65" x2="316.41" y2="688.97"/><line class="cls-3" x1="277.63" y1="678.32" x2="248.44" y2="659.32"/><line class="cls-3" x1="451.05" y1="699.15" x2="505.18" y2="699.15"/><path class="cls-3" d="M511.26,662.65s19.33,22.76-6.08,26.32"/><path class="cls-3" d="M484.74,659.32s21.55,14,17.13,21.94"/><path class="cls-3" d="M461.55,652.79S488.06,671,451.05,689"/><path class="cls-3" d="M451.05,646.68s-69.59-11.56-77.87-7.71"/><line class="cls-3" x1="326.25" y1="630.1" x2="300.87" y2="635.16"/><path class="cls-3" d="M328.93,638.18s-27.21,6.46-31.17,4.25"/><path class="cls-3" d="M511.74,655.7s27.19-6.59,28.06-25.6"/><path class="cls-3" d="M502.46,547.23s43.9,40.24,19.85,63.86c0,0-20.24,28-61.41,29.45"/><path class="cls-3" d="M511.74,579.6S448,508.74,425.65,512.68"/><path class="cls-3" d="M443.3,553.41s38.33,23.71,31.33,40.48"/><path class="cls-3" d="M470.74,558.17s40.63,33.62-15.35,64"/><line class="cls-3" x1="548.11" y1="611.09" x2="548.11" y2="597.53"/></g><g id="feet"><path class="cls-4" d="M330.38,585.11l-14,18.63,7,10.41S344,659.54,353,659.32c0,0,21.1-4.24-4.52-50.93,0,0-4-8.55-9.7-7.31Z"/><path class="cls-4" d="M200.62,646.19s-1.68,17.89-12.65,22.59c0,0,15.39,20.24,31.4-11.29C219.37,657.49,209.54,641.28,200.62,646.19Z"/></g><g id="Shoes"><path class="cls-5" d="M340.14,601.72s13.26-8.53,14.91,8.76c0,0,2.14,11.6,6.4,18.47l6.16,9.24s5.44,9.7.94,23c0,0-11.13,26.05-17.05,14,0,0-3.08-11.84-3.55-19,0,0,10.41,12.32,11.13-9,0,0-2.13-21.78-7.1-30.78C352,616.4,343.92,599.82,340.14,601.72Z"/><path class="cls-5" d="M185.76,669.64s8,8.35,30.92-7.82l2.08-1.7,7.31,1.31-12.28,14.48s-6.34,7.18-16.16,6.65c0,0-24.29,2-19.54-5.6A18.23,18.23,0,0,1,185.76,669.64Z"/></g><path id="Skin" class="cls-4" d="M241.33,79.85a.12.12,0,0,1,.15,0c.82.48,7.88,4.56,9.24,2a11.75,11.75,0,0,0,.57-1.59,3.3,3.3,0,0,1,2.8-2.4c2.56-.32,5.94-.41,6.57,1.09,0,0,14.08,8.49,10.36,23.81h0c-.1.26-6.87,18-6.73,24,0,0-2,21.19-10,24.74l-.07,0c-.78.71-18.67,16.85-25.26,15.1,0,0-4.67-.92-5.52-1.59a.13.13,0,0,0-.21.07c-.39,1.36-2.07,7.46-.87,8.67l76.79,100.49,0,0,5.26,11.47h0l16.46,41.55a.14.14,0,0,0,.11.09c1.59.19,28.34,3.52,30.69,6.76a.12.12,0,0,0,.07.05c.64.12,7.95,1.46,8.88,0,0,0,13.81-4.16,12.14,2.52,0,0-.17,1.19-3.84,1.49h0l-9.28,1.8h0c-.08,0-8.37,1.06-9.63,1.06,0,0,13.34,1.06,16.09.53,0,0,4.55-.95,4.55-2a6.85,6.85,0,0,1,4.76-1.27s10.16-.11,6,3.91c0,0-12.38,12.81-19.89,11.75l-9.93-.6a.14.14,0,0,0-.08.26c2.07,1.28,10.42,6.36,12.55,6.27,0,0,11.22,3.28,10.69,6,0,0,2.16,5-3,3.39l-15-2.52a15.81,15.81,0,0,1-8.06-5.16l0,0-23.74-12h0c-.21-.14-12.8-9.11-14.52-12.53h0c-.32-.38-23.87-28-27.68-38.66v0l-49.91-85.64a.15.15,0,0,0-.24,0l-70.85,92.71s0,0,0,0l-42.5,14.62s3-1-9.66,0c-11.92,1-14-3.14-20.17.94l-.06,0c-.65.06-10.73.86-9.86-2.26,0,0,2.19-3.23.77-3.48,0,0-8.58,1.61-8-1.39a.14.14,0,0,0-.12-.17c-1,0-6.5-.43-2.16-3.6,0,0,9.8-6.19,11.86-5.41,0,0,15.18-.9.3-2.32h-.08c-.66.36-10.68,5.65-13.71,2.32l0,0c-.13-.26-1-2.52,6-4.22l0,0c.43-.29,9.25-6.22,19.06-3,0,0,8.82,2.42,11.82,5a.17.17,0,0,0,.1,0L140,299.36a.14.14,0,0,0,.1-.05L162,270.77a.16.16,0,0,0,0-.09l1.25-87.14a.2.2,0,0,1,0-.08l10.45-12.54a.16.16,0,0,1,.22,0l1.89,2.34a.14.14,0,0,0,.17,0c1.26-.67,14.48-7.74,14.94-10,0,0,6.56-19.84,5-24.95,0,0-1.57-5.75-1.88-7.29a.14.14,0,0,0-.25,0c-.79,1.12-4,4.86-9,.42,0,0-3.46-2.28-3.67-8.84a.15.15,0,0,1,0-.07c.29-.63,5-10.7,10.85-6.56l3.13,3.12a.13.13,0,0,0,.23-.06l1.93-6.85a.14.14,0,0,1,.08-.09l8.69-4a0,0,0,0,0,0,0Z"/><path class="cls-6" d="M165.29,185.53l-12.56,11.41s-5.54,3.57-3.45,15.27c0,0,2.84,8.25,5.05,11.46l1.36.49s-.67,19.45,1.36,28.09l5.56,21.59s-.2,20.81-2,23.56c0,0-1.37,3.54-.19,4.13l5.89,8.24s2.55,4.71,5.69,4.91c0,0,6.73-.58,8.28-2.78L200,299.75l12-9.7s12.28-9.44,16.94-5.17c0,0,2.84-3.62-.65-4.78,0,0-22.62-9.57-14.74-20.17l22-27.8S211,220,214.2,196.51l-19.33-.1-13.13,4-8.12-3.25-5.31-9.73-1.61-2.62-2.09.75"/><path class="cls-7" d="M169.09,169.54s-19.36.63-15.06,25.82l13.59-9.12,4.64-16.07Z"/><path class="cls-8" d="M239.79,175.2s3.75-15.68-7.72-4.68c0,0-8.25-2.24-10.45,7.78,0,0-10,.28-8.78,10.43,0,0-7.14-5.9-9.75,2.61,0,0-6.45-5.9-10.43,2.2,0,0-6.31-6.45-10.43,2.47,0,0-2.17-4.51-4.79-1.8,0,0-.34-5-6.1-4.82,0,0,.86-5.24-2-5.24,0,0,4.93-1.3,3.77-4.78,0,0,4.34-.43,2.89-5.36,0,0,2.76-1.88,2.18-3.47,0,0,6.66-2.22,7.53-3.93,0,0,.43-9.57-5.7-5.75,0,0-2.05,3.83-1.87,4.71,0,0-6-4.35-8.09,1.07l-.09,5.34s-6.84,2.22-6.22,5.33c0,0-4,2.84-3.47,4.62,0,0-2.58,3.82,2.49,3.65l4.89-.09.09,5.95,5.27,8.33s8.15-.65,7.64,2.33c0,0,12.55-4.79,17.09-4.66,0,0,16.58-1.35,16.5-.93s.46-2.07.46-2.07S229.25,171.23,239.79,175.2Z"/><g id="right_arm" data-name="right arm"><path class="cls-8" d="M274.43,282s-8.39,5.24-5.4,11.09c0,0,.75,4.35,8.4,2.55,0,0,1.5,4.49,7.19,4a10.49,10.49,0,0,0,8.39-9.44s3.3-.15,3.15,2.1c0,0,.6,7.38,6.45-1.48,0,0,1.8-4.45,1.05-6.88,0,0,9,1.17,8.24-8,0,0-.15-4.19-4.35-2.55,0,0-.45-10.49-11.09-2.39Z"/><path class="cls-9" d="M236.15,231.32s31.22,35.54,31,38.47l8.11,18.29s23.84,4.39,25.06-16.09c0,0-22-39.8-25.17-40.64L258.39,223l-22.24,3.76Z"/><path class="cls-7" d="M239.79,175.2s22.68,13,23.54,24.61c0,0,13.09,27.89,11.8,31.54,0,0,1.05,1.13-3.27,1.44,0,0-31.74.92-40.84-3.08,0,0-18.92-10.19-16.82-33.2C214.2,196.51,228.11,172.46,239.79,175.2Z"/><path class="cls-10" d="M220.69,188.06s19.18,38.76,29.86,44l7.84.8s-8.55-9.06-10.09-12.83c0,0-12.14-25.14-13.85-25.31l-10.17-11-3.59,4.35Z"/><path class="cls-10" d="M228.44,180.74s13.28,5.12,18,13.41c0,0,9.08,13.95,10.78,22.6,0,0,3.54,13.65,6.8,15.41a21.71,21.71,0,0,0,6.81.62S266,226,266,221c0,0-4-13.89-6.27-20.39a15.16,15.16,0,0,0-3-5.08c-3.69-4.13-12.21-13.46-14.09-13.68l-9.49-5.34-3.3,2.13-2.11,1.74Z"/><path class="cls-10" d="M214.93,196.22s8.19,23.37,27.66,35.1c0,0-21.38.67-28.05-25.66C214.54,205.66,213.12,198.81,214.93,196.22Z"/></g><g id="Dress"><path class="cls-8" d="M427.09,454s9.77,4.7,7,11.83c0,0,10.7,11.27,3.76,16.53,0,0,11.45,12,1.31,17.27,0,0,9.76,17.65-1.13,20.66,0,0,6.26,17.46-2.78,15.58,0,0,6.91,14.84-6.23,13,0,0,8.07,19.34-7,12.39,0,0,.19,25.73-14.27,9,0,0-.75,28.17-16,7.51,0,0-6,17.09-13.52,1.31,0,0-4.79,12.77-7.94.94,0,0-3.7,18.82-12.53,5.75,0,0-1.5,18-10.7,4.62,0,0-6.23,4.66-7-2.48,0,0-5.81-2.07-5.81-5.07,0,0,.48,23.66-12.59,16.76,0,0,.53,27.34-12.28,19,0,0-1,28.23-12.54,12.55l-5.2,7s2.45,19.91-13.05,13.38S427.09,454,427.09,454Z"/><path class="cls-8" d="M179.28,635.3s-5.27,5.4-5.14-2.11c0,0-10,4.48-8.69-7,0,0-10.94,2.63-8.7-8.17,0,0-10.53,2-8-8.69,0,0-10.14,2.63-6.72-8.83,0,0-8.69-.13-3.29-9.62l8.69-5.79,37,26,.65,12,2.9,6.32Z"/><path class="cls-11" d="M159.66,301.27s5.83,12.61,13.3,12.61c0,0,10.74-1.87,18.68-8.87,0,0,16.81-16.81,27.79-19.85l7.42-1.14s49.18,37.5,52.88,62.74c0,0,7.39,19.86,9.08,29.95,0,0,9.1,34.33,59.57,37s49.81,2.69,71,26.58c0,0,29.75,49.26,10.66,94.54,0,0-17.19,41.53-42.08,38.57,0,0,20.15-35.56,6.81-34.08,0,0-13.92,4.15-26.37,25.78s-20.74,18.67-20.74,18.67,8.34-20.45-7.53-13.34c0,0-20.33,18.38-28,34.08,0,0-18.67,37-31.71,43.27,0,0-22.44,22.19-68.25,12.32,0,0-37.22-14-34.67-21.49,0,0,5.8-9.66,2.69-11.13,0,0-45.35-25-45.87-50.41,0,0,27-38.14,17.35-92.44,0,0,3.23,2.38,2.09-4.08,0,0-7.26-19.21-4-35.51,0,0-4-12.55-3.52-24,0,0-3.36-44.81-.3-54l6.8-36.41S160.66,303.25,159.66,301.27Z"/><g id="Highlights"><path class="cls-12" d="M211.27,291.52s15.45,19.6,12.18,27.63"/><path class="cls-12" d="M217.59,289.44s30.87,30.95,30,50.35a17.58,17.58,0,0,0,.13,2.81c.52,4.69,1.34,16-5,0"/><path class="cls-12" d="M272.12,347.72s15.45,37.58,8.77,74.73c0,0-3.93,28.39,1.79,37.16"/><path class="cls-12" d="M285.9,382s2.92,65.54,19.62,77.65"/><path class="cls-12" d="M365.22,438.32s-58.87-16.59-66.8-42.32"/><path class="cls-12" d="M159.86,324.34s11.64,64.71,70.93,108.55"/><path class="cls-12" d="M179.83,382s11.92,34.23,31.44,42.58"/><path class="cls-12" d="M156.69,393.36s33.31,62.79,103,76.12"/><path class="cls-12" d="M235.39,469.48s61.33,29.66,88.11,30.71c0,0,68.25,22.05,71.93,35.18"/><path class="cls-12" d="M375,506.49s-92.78-36.23-102.83-33.6"/><path class="cls-12" d="M230.79,489.62s22.77,39.33,101,66.22"/><path class="cls-12" d="M200.62,487.85s84.25,66.76,88.19,100.37"/><path class="cls-12" d="M162.91,431.79s21.17,58.36,45.26,74.7c0,0,52.81,42.62,46.7,73.18"/><path class="cls-12" d="M146.07,418.45s14.75,37.09,19.64,45.64"/><path class="cls-12" d="M149.78,445.06s40.23,80.56,38,90.31c0,0,12.27,70.71-5.2,91.89"/><path class="cls-12" d="M153,485.06s34.38,53.37,21,121.76"/></g><path class="cls-13" d="M195.23,232.87s8.87,2.14,13.06-3.77"/><path class="cls-13" d="M208.29,263.12s6.17-3.21,6.91-5.18"/><path class="cls-13" d="M177.16,247s9.64,43.62,0,65.76"/><path class="cls-13" d="M159.86,231.32s15.43,67.91,7.71,80.46"/></g><g id="Bow"><path class="cls-14" d="M173,199.77a4,4,0,0,0-.6,1.91s-7.05-.41-9.85,8.08c0,0-4,8.19-2.17,15.75,0,0,.93,6.22,4.14,7.87l-4,4.77-.59,1.45L168.12,250l-4.25,4.25v3.63l5.59,10.36-3.05,4.45,2.12,3.52,9.64-10.87,1.24-7.88-6-7.15,4.87-4.35,9.65,10.79,4.47-6s-18-11.59-17.71-17.22c0,0,1.26-4.47.92-5.73l2.1-1.86s0,11,2.29,12c0,0,6.18,9.38,12.4,5,0,0,2,7.35,8.36,4.58,0,0,3.43-7.52-2.29-8l-3.72-.59s1.88-14.32.3-18.07c0,0-5.63-15.21-12.34-14.81l-2.37-.3s1.24-4.12.28-3.64C180.61,202.1,181.3,198.83,173,199.77Z"/><polygon class="cls-15" points="168.87 235.89 164.3 240.1 171.02 247.62 176.12 242.25 171.2 235.89 168.87 235.89"/><polygon class="cls-15" points="170.21 253.62 166.72 257.47 171.64 266.25 176.66 259.93 171.69 253.26 170.21 253.62"/><polygon class="cls-14" points="172.36 273.23 177.64 280.13 173.79 285.68 169.58 277.98 167.7 282.19 170.93 288.81 168.51 291.23 170.21 294.01 173.52 291.59 177.64 297.77 179.43 297.77 180.81 293.61 175.67 288.64 180.81 282.6 180.49 277.49 175.01 268.86 171.69 273.07 172.36 273.23"/><polygon class="cls-14" points="169.32 297.44 168.37 301.31 179.19 302.81 179.83 298.87 169.32 297.44"/><path class="cls-15" d="M172.39,209.39s3.07,2.45,4.27,1.34c0,0,1.3,11.72-.54,11.94,0,0-3.06.56-2.73-3.79C173.39,218.88,171.49,212.18,172.39,209.39Z"/><path class="cls-15" d="M168.93,205.93l2.76-1.56A20.23,20.23,0,0,0,168.37,220s3.46,12.95.22,11.16c0,0-4.13-7.14-3.46-11.94C165.13,219.21,165.69,208.5,168.93,205.93Z"/><path class="cls-15" d="M182.88,209.39s-1.23,11.16.89,14c0,0,4.91,9.93,6.25,10,0,0,.67-6.54-.56-10.7,0,0-2.45-8.95-3.79-9.62C185.67,213.07,183,208.38,182.88,209.39Z"/></g><g id="Face"><path class="cls-16" d="M215.12,99.68s10.91-4.91,19.09.54c0,0,5.59.41,3.13-4.22,0,0-13.36-3.41-18.94.68Z"/><path class="cls-16" d="M254.65,100.23s-2.72,2.31-1.77,3.26c0,0,1.5,1,3.82-1.63,0,0,6.4-3,8.31-1.63,0,0,3.56,2.3,3.69,4.18,0,0,1.71-.66.39-3.15,0,0-3.33-5.21-10.46-2.85Z"/><g id="Nose"><path class="cls-17" d="M232.47,139.66s5.46-.6,4.63,1.07A10.44,10.44,0,0,1,232.47,139.66Z"/><path class="cls-17" d="M240.38,124s2,8.32,4.26,8.67c0,0,7.42,5.23-1.61,9.26"/></g><g id="Mouth"><path class="cls-18" d="M219.16,144a23.11,23.11,0,0,0,15.5,4.49s9-.34,11.11-1.18c0,0-6.74,7.78-11.81,8.7,0,0-5.06-.49-5.62-1.53C228.34,154.46,219.7,149.06,219.16,144Z"/><path class="cls-19" d="M219.16,144s9.81,15.38,26.61,3.31"/></g><g id="Left_Eye" data-name="Left Eye"><path class="cls-20" d="M225.8,110.39s2.18,11.67-6.46,12.89a7.84,7.84,0,0,1-.86.08c-9.63.56-9.93-7.51-9.32-12.09Z"/><path class="cls-21" d="M209.16,111.27s-1,9.52,7.86,9.39c0,0,8.78.38,6.89-10.84C223.91,109.82,214.14,105.79,209.16,111.27Z"/><path class="cls-22" d="M213.05,111.61s-.31,6.47,4.18,6.82c0,0,7.21-1.17,4.24-6.82C221.47,111.61,217,105.68,213.05,111.61Z"/><path class="cls-23" d="M219.36,111s-3.76-2-4.76,1.32c0,0-.16,2.58,2.38,2.36C217,114.68,220,115.66,219.36,111Z"/><path class="cls-24" d="M219.36,111s-2.08,1-.9,2.26c0,0,2.28,1.46,2.1-1.33C220.56,111.93,220.65,111.26,219.36,111Z"/><path class="cls-25" d="M207.81,110s-.34,2.28.51,1.76c0,0,10.51-6.75,18,.53,0,0,5.55-.12,2.33-3.38,0,0-8.18-4.83-15.86-1.75C212.79,107.19,208.38,108.89,207.81,110Z"/></g><g id="right_eye" data-name="right eye"><path class="cls-20" d="M262.24,115.5c.86,4.46-3.79,13-14.73,8.61-1-.39,2.46-1.34,2.91-2.28,1.55-3.28,5.45-9.91,10.8-7.82A1.84,1.84,0,0,1,262.24,115.5Z"/><path class="cls-21" d="M247.12,119.38s-3.44,5.62,3.81,4.6c0,0,8.7,1.58,8.09-8.64,0,0,.91-4.21-4.5-3Z"/><path class="cls-22" d="M249,119s-.55,2.83,3.66,2.44c0,0,3.36-.15,3.13-4.27,0,0,.29-4.65-3.13-3.2C252.68,114,249.1,116.87,249,119Z"/><path class="cls-23" d="M255,115.73s-3.76-2-4.75,1.32c0,0-.16,2.58,2.38,2.36C252.64,119.41,255.64,120.38,255,115.73Z"/><path class="cls-24" d="M253.63,115.37s-1,1.92.39,2.51c0,0,2.41,0,1.82-1.68A1.45,1.45,0,0,0,253.63,115.37Z"/><path class="cls-25" d="M260.13,114.68s5.57,1.38,3.68-3.1c0,0-7.58-3.25-13,.53s-4.92,9-4.35,8.94a11.18,11.18,0,0,0,2-2.41S253.14,109.17,260.13,114.68Z"/></g></g><path class="cls-26" d="M200,140.73s11.36,20.71,24.2,24.43"/><path class="cls-4" d="M72,313.82s8.53-4.14,12.18-3.25"/><path class="cls-4" d="M80.16,315.38s11.1-2,11.1-3.9"/><path class="cls-26" d="M378,338.48S365.43,354,351.37,347"/></g></svg>