<svg xmlns="http://www.w3.org/2000/svg" viewBox="0 0 565.36 792"><defs><style>.cls-1{fill:#945c48;stroke:#8e6753;}.cls-1,.cls-10,.cls-11,.cls-12,.cls-14,.cls-16,.cls-17,.cls-18,.cls-2,.cls-20,.cls-23,.cls-25,.cls-26,.cls-3,.cls-4,.cls-5,.cls-6,.cls-7,.cls-8,.cls-9{stroke-miterlimit:10;}.cls-2,.cls-6,.cls-8{fill:#e0e7d0;}.cls-12,.cls-2,.cls-3,.cls-4,.cls-5,.cls-6,.cls-9{stroke:#9bad7f;}.cls-3{fill:#eceab6;}.cls-4{fill:#f9f4dc;}.cls-11,.cls-14,.cls-17,.cls-5{fill:none;}.cls-23,.cls-6{stroke-width:0.3px;}.cls-7{fill:#90aea4;stroke:#496b65;}.cls-8{stroke:#4a6b65;}.cls-9{fill:#dbd8a2;}.cls-10{fill:#251817;}.cls-10,.cls-11{stroke:#302625;}.cls-12{fill:#b1bfb2;}.cls-13{fill:#0e0c0c;}.cls-14{stroke:#86442c;}.cls-15{fill:#86442c;}.cls-16{fill:#a93c46;}.cls-16,.cls-17{stroke:#761516;stroke-width:0.5px;}.cls-18,.cls-22{fill:#fff;}.cls-18{stroke:#9d695a;}.cls-18,.cls-26{stroke-width:0.2px;}.cls-19{fill:#aa7c8e;}.cls-20{fill:#724c27;stroke:#352314;}.cls-21{fill:#231f20;}.cls-23,.cls-25{fill:#79b5c2;}.cls-23,.cls-25,.cls-26{stroke:#c7c2b3;}.cls-24{fill:#c0ad8d;}.cls-26{fill:#98cfd8;}</style></defs><title>princesses</title><g id="Tiana"><path id="Skin" class="cls-1" d="M279.46,92.23s-6.87,14.94-5.48,20.35c0,0,1.58,12,1.34,13.25,0,0,2,9.46-.66,13.78,0,0-2.92,4.68,2,14.32,0,0,14.73,18.35,19.15,21.32l2,1.4s-1.12,12.71-21.08,18c0,0-22-2.28-27.24,9.42,0,0-5.9,11-5.73,19.68,0,0-5,26.23-8.15,26.56l1.56,21.49,13.49-4.21,4-5.51,2.6-5.37,10.93-21.86,3.53,2.63,54.65,23.33,21.33,12.38,7.76-17V225.82s-2.1-20.73-11.12-21.7c0,0-22-8.35-21.52-16.13a16.05,16.05,0,0,1,.67-10l5-18.83s5.21-8.66,5.63-10.68c0,0,6.57,3.18,11.14-4.46,0,0,8.83-14.26,1.44-15.78l-5.8-34L309,82.07l-29.85,8.17Z"/><path id="Left_arm" data-name="Left arm" class="cls-2" d="M232.79,250.66s21.14-3.1,25.37,10.43l-12.68,29s-7.61,24.81-24.53,35.8l-14.66,14.38S198.23,348,198,350a21.37,21.37,0,0,1-19.78,9.34s-9.88,1.9-10.29,3.12c0,0-4.47,4.06-3.25-1.22A10.07,10.07,0,0,1,171,355.4s-7.59-.68-8.4.27L148,361.76s-5.56,2.44-4.34-.27c0,0-5.28,3.93-8.67,2.44,0,0-3.38-1.22-.67-3l12.32-9.48h-7.85s-6.1-.41-4.47-3.52c0,0,3.92-.82,6.09-1.49l10-3.93s2.57-1.63,7.85-1.09l22.49.27s4.47-2.57,7.45-2.43c0,0,11.92-15.18,12.19-16.94l12.73-24.11s5-11.11,8.13-12.46c0,0,7-12.19,7.45-16.66Z"/><path id="Right_Arm" data-name="Right Arm" class="cls-2" d="M347.31,253.22s3.39-6.28,10.18-5.43v8.14l.42,1.17,4.74-6.42s8.49-15.49,8.78-18.26l2.77-7.89s1.58-.5,0-2.57l-8.89-14a13.65,13.65,0,0,1-4.21-9.58V182.58s.07-3.26,1.25-4.44l7.9-10.17s2.66-4.83,2.66-1.87c0,0,1.09,5.53-.49,7.7a76.16,76.16,0,0,0-4,7.66,4.16,4.16,0,0,0-.26.92,4,4,0,0,0,.09,2.17s3.85-7.89,5.24-8.09c0,0,8-6.51,8-6.91s.92-1,.92-1,2.26-2.31,2.16.58c0,0,.43,1.58,0,2.11,0,0,2.84-1.58,1.05,3.16l-4.95,7.36-.52,1.58,4.26-3.15,4-2.69s3.27-2.58,3.11-.31A4.89,4.89,0,0,1,390,182l-6.16,5.64a13.81,13.81,0,0,0-1.32,5.79,10.8,10.8,0,0,0,1.16,4.47l4.79,9.32,1.42,3.73s1.53,6.95.37,10.79l-1.63,5.48L386.68,241s-9.39,35.76-11.91,38.5c0,0-7,14.3-9.83,16.7,0,0-5.72,8.81-13.16,3.2,0,0-13.72-11.43-15.44-20.81C336.34,278.55,351,264.84,347.31,253.22Z"/><g id="Dress"><path class="cls-3" d="M49.21,738.44s25.32,4.3,38.7,13.38H129s22.94,10,50.17,6.22c0,0,44,14.33,52.09,8.12L271.39,758s34.88,4.77,36.32,2.86c0,0,43-3.82,47.78-1.91l25.32,1s33-11.82,46.83-6.87c0,0,26.28,2.09,35.84-7.47,0,0,23.41-10,27.23-7.17L391.64,522H104Z"/><path id="Dress_2" data-name="Dress 2" class="cls-4" d="M73.63,557.27S52.35,668.13,52,675.49l-7,47s-4,20.82-6.27,23.78c0,0-3.88,6.35-2.25,7.77,0,0,2.74-.71,6.6-6,0,0,25.47-35.93,28.08-44.7L92,651.5l2.84-6.64s-5,81.37-4.06,89.19c0,0,.89,22.45-6.43,30.59L77,767.69s.61,4.07,16.27,3.25c0,0,22.2,1.36,43.13-29.66,0,0,43-74,44.11-79.24,0,0,19.81-46.35,22.05-60.93,0,0-6,53.45,3.37,86.72,0,0,25.41,72.14,25.41,77.37,0,0,4.86,19.06,0,22.8,0,0,14.58-.75,28.78-17.2,0,0,25.79-37.37,35.88-75.87,0,0,12-77.75,11.59-91.95,0,0,5.23,56.81,16.07,79.61,0,0,22.8,57.94,46.35,72.52,0,0,12,13.08,36.63,17.94a39.62,39.62,0,0,1-3-29.53s13.08-92.7,10.09-111c0,0,26.54,65.78,41.87,81.48,0,0,35.88,39.25,55.31,44.11,0,0-14.57-68.4-13.45-81.86l-9.35-86.34L381.65,480l-152.91-63L119,491.71Z"/><g id="teir_2" data-name="teir 2"><path class="cls-5" d="M111.78,726.54s19.71-53.43,28.65-97.37c.86-4.21.91-8.53,1.82-12.72,5.54-25.59,23.92-110.21,25.63-115.34"/><polyline class="cls-5" points="246.18 750.73 251.88 629.1 258.88 505.76"/><line class="cls-5" x1="390.53" y1="738.02" x2="367.91" y2="606.79"/><path class="cls-5" d="M492.93,714.39S455.18,564.93,445.34,562"/></g><path class="cls-4" d="M292.61,227.84s2.44-7.16,8.13-7.16c0,0,2.28-1.14,2.28,2.28,0,0,3.58,10.58,7.81,13.51,0,0,5.86-12.21,11.07-7.33,0,0,5.37,4.23,5.37,5.86,0,0,2.61-10.9,4.23-10.74,0,0,3.26-1.68,7.16,8.92,0,0,26.62,28.22-28.14,68.05L289.3,242.16Z"/><path id="dress_1" data-name="dress 1" class="cls-2" d="M263.65,245.83s.52-8.27,4.61-10.22c0,0,10.45-10.86,11-16.9,0,0,1.75-5.84,4-5.74,0,0,1.23-.51,2.15,3.9L292.44,229s32.45,26,18.16,67.92c0,0,27.83-20.39,32.59-35.83,0,0,.38-23.83-3.62-26.88,0,0,.17-10.26,3.63-12.54,0,0,3.58-3.21,4.38-2.86,0,0,1.83,1.83-.69,7.66,0,0-2.4,9.72-1,15.44l1.49,11.48s3.69,15.11-13.88,27.26c0,0-18.14,20.75-15.88,27.91,0,0,5.4,8.89,18.75,15.7,0,0,95.36,36.38,126.51,114.57l6.9,25.55s20.82,25.56,13.61,39c0,0-6.56,1.64-12.79-7.7,0,0,10.9,64.84,34.87,92.8l1.58,2.14s-45.63-5.12-59.85-11.31l-66.62-25.59s26.95,38.76,4.79,107.93l-1,.87s8.47-29.88-47.94-72.32c0,0-88.28-62.82-105.82-143.66,0,0-17.52,44-80.67,70.61,0,0-72.65,30.39-75,38.94L60.63,619.67S41.16,632.49,45,623c0,0,6.52-14.25,4.3-22.67,0,0-2.21-13.74,9.09-31.69,0,0,12-21.06,12-33.25,0,0,11.08-56.73,14-58.51,0,0,14.63-44.1,28.37-58.73,0,0,37.7-47.57,47.87-52.3,0,0,61.84-39.66,79.14-40.22,0,0,32.66-18,31-32.62l-2.31-16.9s-8.84-7.48-2.72-17.91Z"/></g><path class="cls-5" d="M248.56,313.5s11.21-1.88,14.7.68"/><path class="cls-5" d="M239,308.52s21.2.35,29,6.6"/><path class="cls-5" d="M240.58,302.87s23.41,3.5,29.4,11.72"/><path class="cls-5" d="M240.55,292.36s27,8.6,31.75,18.87"/><path class="cls-5" d="M251.37,292.54S270,301.31,274.05,310"/><path class="cls-5" d="M250.61,283.7s7.29,2.55,24.4,24.88"/><path class="cls-5" d="M266.68,292.76s8.15,10.16,10,14.81"/><path class="cls-5" d="M264.79,286.2s12.82,15.86,14.09,19.95"/><circle class="cls-6" cx="247.52" cy="313.87" r="1.75"/><circle class="cls-6" cx="237.8" cy="309.09" r="1.75"/><circle class="cls-6" cx="239.52" cy="302.52" r="1.75"/><circle class="cls-6" cx="240.39" cy="292.25" r="1.75"/><circle class="cls-6" cx="250.39" cy="292.05" r="1.75"/><circle class="cls-6" cx="265.71" cy="291.94" r="1.75"/><circle class="cls-6" cx="249.85" cy="282.92" r="1.75"/><circle class="cls-6" cx="264.03" cy="285.68" r="1.75"/><g id="Flower"><g id="Stem"><path class="cls-7" d="M292.33,314.08s18.73-1.66,33.88,10.46c0,0-17.08,1.93-18.73,3.86,0,0-16.26,4.61-20.66-7.2l-5.51.44s13.22,10.18,0,42.63c0,0-16.26-10.25-6.34-36.42l13.5-16.25Z"/><path class="cls-7" d="M258.16,316.25s-3.19-3.92-10.64.61c0,0-7.05,4.25-11.87,2.21,0,0-.51,6.34,16.6,7.25,0,0-23.22,10.7-35.27,26.19,0,0,9.64,4.13,25.82-2.76,0,0-5.45,7.72-5.23,10.1,0,0-24.91,11.87-23.52,26.12,0,0-1.12,9.26,2.28,13.7,0,0,17.07-16.45,17.07-17.37,0,0-1,7.19-13.06,18.4,0,0-11.48,8.86-8.55,26.17a36.19,36.19,0,0,0,5.41,13.76s7.27,12.52-4,17.92c0,0-13-4.92-18.43,1.71s1.45,8.33,1.45,8.33,10.13,1,17.13-4.47c0,0,5.48,4.28,5.33,7,0,0,4.53,11.3-2.41,14.47,0,0-5.27,4.22-11.3,3.31,0,0-3.17,2.12-.15,4.38,0,0,5.87-.46,4.67,3.46,0,0-3.92,5.58,2.56,11.16,0,0,9.65,5.58,2.26,13.41,0,0-2.18,6.54-.41,8.75,0,0,7.52,7.44,5,21.79,0,0-1.84,15.29-12.68,17.76,0,0-9.42-1.06-6.36-10.72s8.95-.71,5.77,1.42c0,0,3.42,2.23,3-6.72,0,0-7.07-7-12.26,3.53s4.13,16.5,8.49,16,14.49-2.12,18.38-20S218.06,529,218.06,529s-2.24-3.06.83-7.54c0,0,4.45-12.66-2.95-15.67s-2-7.07-2-7.07,1.41-4.24-1.53-6.13c0,0,23.66-8.08,4.58-30.29,0,0,12.14-8.67,5.38-21,0,0-13-25.76-.11-37.12,0,0-6.55,5.68.22,19.34,0,0,3.57,8.52,2.93,11,0,0,6-15.63,8-15.74,0,0,3.39-13.66.22-16.61L229.15,396s9-8.44,8.33-18.05c0,0,3.32,1.82,3.65,5.3,0,0,9-18.06,11.6-17.9,0,0,7-14.58,6.63-17.89,0,0,13.64-8.55,12.4-18.41Z"/><path class="cls-8" d="M258.16,340.4l1.49,3.6s7-5.32,7.65-11.18Z"/><path class="cls-8" d="M210,460.69s-8.33,7.25-12.94,3.52c0,0-1.22-1.71,2.4-2.59C199.49,461.62,202.53,460.05,210,460.69Z"/></g><g id="Flower-2" data-name="Flower"><path class="cls-4" d="M262.14,302.38s-1.32-14.74-.66-16.62c0,0,11.44,3.64,14.08,11,0,0,2.76,3.52,2.54,4.73,0,0,8.25-10.45,6.16-15.74,0,0,6.13-.1,8.25,8.37.08.32.15.65.22,1,1.87,9.46-2.53,11.66-2.53,11.66s4.47,3.54,3,7.16a5.08,5.08,0,0,1-1,1.54c-3.85,4.07-4.18,7.15-11.11,5.39a8.46,8.46,0,0,1-7.49,7c-6.71.88-9.35-1.54-9.35-1.54l-.77-1.43s-10.79-.55-14-6.6v-1l9.25-.11s-10.46-5.5-10.35-16.62a12.31,12.31,0,0,0,5.39,1.54s7.93.44,10.13,2.75Z"/><path class="cls-9" d="M268.51,318.33s-3.93-7.13,2.85-11c0,0,6.23-4.78,9.62,0,0,0-3.66.59-2.44,1.94,0,0,2.57,2.17,2.44,4.75,0,0,.4,5.55-.54,6.5C280.44,320.5,275.56,322.4,268.51,318.33Z"/></g></g><g id="Hair"><g id="Hair-2" data-name="Hair"><path id="Hair-3" data-name="Hair" class="cls-10" d="M282.68,81.11s-13.42,8.79-10.25,20.59c0,0-.78,3.25-3.63,4.27,0,0-7.17,1.52-4.95,4.82,0,0,5.52.25,2.66,1.52,0,0-1.3.23-.54.8,0,0,4.67,1.94,4.82-1.3a2.88,2.88,0,0,0-2.66-1.63s-2.09-.68.53-1.52a8.06,8.06,0,0,0,7.67-6.51s2.57-10,15.21-12.11,28.25.92,29.08,1.57,13.75,6.46,14.21,11.54l1.72,13s-3.43,3.9-1.95,6.36c0,0,3.95,3.13,2.36,3.69,0,0-2.77,1.44-2.36,1.85,0,0,0,2.41,4.21-.56l.82-.67s-.2,4.36-.72,4.52c0,0,3.62-5.11,8-3.52,0,0,5.9-5.65,5.28-12.16,0,0,1.48-19.28-4.91-24.07l-.47-.6s3.79-3.26.64-9.93c0,0,11.65-11.1,2.61-20.75s-21.56-15.52-30.46-7.53Z"/><path class="cls-10" d="M330.86,156.09s6.06,8,3.73,9.72c0,0-6.28,5-3.1,9.61,0,0,8.61,6.29,10.86-3.33,0,0-.93-4.19-3.8-.85,0,0,.15,3.1-3.26,2.4,0,0-2.4-.7-.15-4.57,0,0,5.94-2.68,5.24-7.41l-4-12.43H335c-.13-.28-.78.17-.92.45Z"/></g><path class="cls-11" d="M334,89.59s12.06,9.77,9.84,13.92"/><path class="cls-11" d="M337.84,111.35s7.76,8.73,10.28-2.51c0,0,1.33-3,2.37-1.58"/><path class="cls-11" d="M350.49,103.51s-3.54.07-3.77,3.44c0,0-1.21,8.25-6.56,2.48l-3.88-4.89"/></g><g id="Crown"><path class="cls-5" d="M288.9,40.69s11.63,12,11.46,18.33"/><path class="cls-5" d="M287,25s17.28,25.91,16.22,40.54"/><path class="cls-5" d="M295.09,22.18s15.31,31.2,10.38,45.3"/><path class="cls-5" d="M307.76,13.37s12.16,39.83,3.7,54.11"/><path class="cls-5" d="M316.57,26.59s4.93,29.79-2.11,42"/><path class="cls-5" d="M326.62,18.3s3,10.93-9.69,50.24"/><path class="cls-5" d="M329.09,45.27s-5.47,18.33-9.52,24.5"/><path class="cls-5" d="M335.43,37.52S327,66.25,323.1,71.18"/><circle class="cls-6" cx="287.59" cy="39.75" r="2.57"/><circle class="cls-6" cx="285.25" cy="24.01" r="2.57"/><circle class="cls-6" cx="294.63" cy="20.61" r="2.57"/><circle class="cls-6" cx="307.76" cy="13.09" r="2.57"/><circle class="cls-6" cx="316.35" cy="25" r="2.57"/><circle class="cls-6" cx="329.26" cy="43.42" r="2.57"/><circle class="cls-6" cx="326.93" cy="16.72" r="2.57"/><circle class="cls-6" cx="335.43" cy="36.16" r="2.57"/><path class="cls-4" d="M279.6,83.12s-9.83-3.12-4-19.66c0,0,3.89,5.45,8.08,6.23l.78,1s-2-8,0-11c0,0,2.43-5.84,1.75-7.79,0,0,6.13,2,6.81,3.5,0,0,5,5.36,5.26,7.79,0,0,2.59-12.3,7.27-16.64,0,0,3.82-5,4-7.1,0,0,9.7,11.61,9.7,14.38,0,0,3.12,6.59,1,10.22,0,0,4.72-6.06,8.95-7.3,0,0,8.57-5,8.83-7.41l.82,11s-.23,8.79-1.76,10.19c0,0,6.56-5.46,10.4-5.33,0,0-1.14,6.28-.52,7.35,0,0-.46,13.71-8.2,14.4l-1.46.85s-13.13-20.64-28-17.45C309.4,70.34,281.32,71.88,279.6,83.12Z"/><path class="cls-12" d="M280.79,82.35s21.59-13.69,35.06-6.63c0,0,14.54,2.78,24.38,20.31,0,0,2.07,1.23,0-5.22,0,0-11.08-24.25-34.1-22.72S280.79,82.35,280.79,82.35Z"/></g><g id="Face"><g id="Brows"><path class="cls-13" d="M274.83,114.36s2.35-6.08,6.2-5.21c0,0,10.92,4,9.18-.09,0,0-10.7-4.31-13-.62C277.23,108.44,273.89,112.74,274.83,114.36Z"/><path class="cls-13" d="M334,117.24s-6.95-10-12.6-9.57c0,0-10.88-1.64-10.31,1.64,0,0-1.22,1.22,3.85.9,0,0,9.16-1.15,11,1.22C325.89,111.43,334,120.35,334,117.24Z"/></g><g id="Nose"><path class="cls-14" d="M291.63,146.81s-1.21,2.89,0,3.72"/><path class="cls-14" d="M307.84,146.81s2.22,3.16.64,4.38"/><path class="cls-15" d="M302.81,152.12a2.17,2.17,0,0,1,2.51-.93C307.18,151.56,302.81,152.12,302.81,152.12Z"/><path class="cls-15" d="M296.58,152.39a2.19,2.19,0,0,1-2.44-1.12C293.09,149.69,296.58,152.39,296.58,152.39Z"/></g><g id="lips"><path class="cls-16" d="M287.56,156.52s2.58,1.3,3.54,1.24c0,0,4.82-2.16,6.73,0,0,0,2.68,1.44,4.18,0a3.64,3.64,0,0,1,3.41-.3s7.9,2,9.76,0c0,0-6.45,8.35-9.4,9.64s-8.57,1.08-11-.72C294.73,166.39,289,159.26,287.56,156.52Z"/><path class="cls-17" d="M292,159.16s4.38.63,5.52,1.6a3.67,3.67,0,0,0,1.83.75,6,6,0,0,0,3.16,0,16.14,16.14,0,0,1,2.16-.62c1.67-.33,4.23-.76,4.69-.49"/></g><g id="Left_Eye" data-name="Left Eye"><path class="cls-18" d="M277.75,125.47s-1.32,9.19,5.87,11c0,0,5.82,1.32,7.19.71,0,0-.19-6.72-.26-7.43C290.55,129.76,285.86,119.66,277.75,125.47Z"/><path class="cls-19" d="M277.58,123s-.22,1.89,1.14,1.36c0,0,4-3.43,6.16-1.36a10.13,10.13,0,0,1,4.22,5.06l1.56,6.49s0,.61.43-.4a9.22,9.22,0,0,0-.06-6.62c-1.28-3.28-3.83-7.82-8.13-7.48C282.9,120,277.49,122,277.58,123Z"/><path class="cls-20" d="M282.16,124s-2.29,4.16-.81,7.08c0,0,4.65,5.14,8.49,1.76C289.84,132.8,288.22,122.59,282.16,124Z"/><path class="cls-21" d="M285.37,124.8s-2.57,2.53-1.34,4.72c0,0,3.36,3.44,4.89.14C288.92,129.66,287.55,124.77,285.37,124.8Z"/><path class="cls-22" d="M283,125.83s-1.65.2-.94,2c0,0,2.39,1.57,2.51-.93A1.44,1.44,0,0,0,283,125.83Z"/><path class="cls-21" d="M277.65,124.44s-2.19-.08-2.48-1c0,0-1.66-.71-1.07,1.07,0,0,.71,2.66,4.79,1.18,0,0,2.78-2.6,4.55-1.71,0,0,5.32.94,6.2,9.09,0,0,2.39,1.89.2-6.26,0,0-4.32-7-9.22-4.37C280.62,122.41,278.48,123.91,277.65,124.44Z"/></g><path class="cls-19" d="M326.56,125.26s2.26.87.41-1c0,0-6.12-5.55-12.08,0,0,0-5.09,4.68-4.22,9.51,0,0,3.14-7.25,7.05-8.38C317.72,125.36,323.07,123.77,326.56,125.26Z"/><g id="Right_Eye" data-name="Right Eye"><path class="cls-18" d="M329.34,128.21s.3,14.47-17.79,9.14c0,0-1.43-11.71,10.15-12C321.7,125.38,329.09,126.12,329.34,128.21Z"/><path class="cls-20" d="M315.92,128.48s-1.49,7.44,7.05,7.13c0,0,6.42-2.2,2.51-8.62C325.48,127,318.74,122.84,315.92,128.48Z"/><path class="cls-21" d="M318.21,130.13s.58,3.39,4.6,2.59,0-5.28,0-5.28S318.85,125.75,318.21,130.13Z"/><path class="cls-22" d="M317,128.71s1.9,2.16,2.74-.64c0,0-1.05-1.69-2-.89A1.37,1.37,0,0,0,317,128.71Z"/><path class="cls-19" d="M328.45,126s-6.14-8.16-14.09-1.54a17,17,0,0,0-2.95,9.49S315.9,119.46,328.45,126Z"/><path class="cls-21" d="M327.07,125s2.21,1.6,4.1.65c0,0,4.66-2.26,2.3.42,0,0-3.17,3.84-6.55.87,0,0-7-2.74-10.6,1.12,0,0-4.16,2.87-4.85,7.21a9.29,9.29,0,0,1,1.19-5.69s3-4.92,6.34-5C319,124.59,324,122.85,327.07,125Z"/></g><path class="cls-14" d="M337.45,143.17s5.81-3.47,1.45-7c0,0,6.82-7.29,7.82-1.41"/><path class="cls-14" d="M326.74,160.45s-16,19.15-27.39,15.81"/></g><g id="Jewlery"><path class="cls-23" d="M337,145.93s-3,6.18-.54,7.74c0,0,4.41,2.23,3.58-3.46C340.05,150.21,338.41,144.77,337,145.93Z"/><g id="Necklace"><path class="cls-24" d="M289.05,188s7.69,17.72,25.3,19.6c0,0,8.12-2.25,10.24-16.86l1.49.17s-.14,12.71-10.9,19.18c0,0-23-5.72-27.62-20.61Z"/><g id="Jewls"><path class="cls-23" d="M288.12,192.53s.8-3.24,3.75-1.51c0,0,2.17,3.89-.43,4.47C291.44,195.49,287.69,196.14,288.12,192.53Z"/><path class="cls-23" d="M293.38,196.4s1.33-1.79,2.14-.41-.56,3.31-1.07,2.9A1.93,1.93,0,0,1,293.38,196.4Z"/><path class="cls-23" d="M296.64,200.27s-.61-2.14,2.14-1.58c0,0,2.91,3.82-.56,3.62C298.22,202.31,296.24,202.1,296.64,200.27Z"/><path class="cls-23" d="M300.41,203.94s2-4.64,4-1.84c0,0,.89,3.63,0,4.89,0,0-2.91,3.87-4,0C300.41,207,299.9,204.89,300.41,203.94Z"/><path class="cls-23" d="M307.12,206.32s1.41-2.23,2.75-.82c0,0,1.27,3.5-1.37,3.65C308.5,209.15,306.45,209.08,307.12,206.32Z"/><path class="cls-25" d="M313.82,203s-6,12.51.82,13.25c3.39.38,4.39-1.74,4.55-4a10.11,10.11,0,0,0-1.9-6.48l-2-2.81S314.42,201.59,313.82,203Z"/><path class="cls-23" d="M318.74,205.42s1.21-2.79,2.38-.19c0,0,1.77,2.72-.15,2.87C321,208.1,318,208.86,318.74,205.42Z"/><path class="cls-23" d="M320.24,199.49a7,7,0,0,0,3.24,6.66s3.16.66,1.37-3.33C324.85,202.82,322.57,197,320.24,199.49Z"/><path class="cls-23" d="M323.65,197.11s2.29-2.69,2.33.31c0,0,1.14,2.77-.58,3C325.4,200.38,322.76,199.62,323.65,197.11Z"/><path class="cls-23" d="M325.4,192.32s-1.26,3,.6,2.56c0,0,1.83-.86,1.55-1.63C327.55,193.25,325.79,190.88,325.4,192.32Z"/><path class="cls-26" d="M314.29,205.46s-4.09,8.57.56,9.08c2.32.26,3-1.2,3.12-2.71a6.9,6.9,0,0,0-1.31-4.45l-1.35-1.92S314.7,204.51,314.29,205.46Z"/></g></g></g><g id="Teir_1" data-name="Teir 1"><path class="cls-5" d="M286.3,322.65s23.87,34.21,54.89,45"/><path class="cls-5" d="M282.68,348.57s58.9,89.8,178,116.79"/><path class="cls-5" d="M341.19,465.36S259,434.46,263.42,345.12"/><path class="cls-5" d="M371.69,547s-106.2-42-119.8-182.76"/><path class="cls-5" d="M127.32,481.09s78.87,4.14,95.27-75.85"/><path class="cls-5" d="M276.68,299.31s4.94-17.53,0-40.61"/><path class="cls-5" d="M265.71,257.08s12-19.55,13.17-19.55c0,0,9.76,12.58,9.76,13.93,0,0,23.1,20.9,18.18,33v16.73"/><path class="cls-5" d="M296.5,307.31s39.95-27.31,44.69-39.67"/><path class="cls-5" d="M315.32,290.79s12.14-29.34,6.91-45"/><path class="cls-5" d="M333.36,264.82s-.67-23.72-5.39-27.29"/><path class="cls-5" d="M306.72,245.76s2.95-7.87,4.68-8.23"/><path class="cls-5" d="M282.68,305.89s4.12-4.81,3.62-9.09"/><path class="cls-5" d="M271.88,305s-3.61-8.16-4.95-8.16"/><path class="cls-5" d="M266.93,312.05s-8.18-2.95-8.77-4"/><path class="cls-5" d="M269.41,326.68s-3.54-2.28-3.7-3.47"/></g></g></svg>