<svg id="Layer_1" data-name="Layer 1" xmlns="http://www.w3.org/2000/svg" viewBox="0 0 3379 3379"><defs><style>.cls-1{fill:#fff;}.cls-2,.cls-3{fill:#e94795;}.cls-3{stroke:#fff;stroke-miterlimit:10;stroke-width:170px;}</style></defs><title>tickets</title><g id="tickets"><circle class="cls-1" cx="1689.5" cy="1689.5" r="1689.5"/><path class="cls-2" d="M1625.5,566.5s150-202,298-86l148,108s-172,263,26,370c0,0,185,141,340-78l163,99s173,105,77,237l-421,232s-61,15-24-31l53-67s35-63-7-93l-495-359s-53-35-94,17l-709,995S910,2004,988,2027v26l-24.5,5.5s-128,59-115,212c0,0,5,171-52,129l-208-162s-68-101,0-186Z" transform="translate(-261 -129)"/><path class="cls-3" d="M1205,1939l821-391,137-176s39-35,0-65l-388-274s-42-36-65,0l-620,874s-49,61,23,68Z" transform="translate(-261 -129)"/><path class="cls-2" d="M1010,2549,905.5,2330.5s-46-129,105-201l1597-770s191-110,268,0l115,229s-255,164-129,356c0,0,119,151,311,56l105,199s49,146-105,227l-1633,792s-170,67-244-60l-101-212s215-93,159-293C1353.5,2653.5,1294.5,2455.5,1010,2549Z" transform="translate(-261 -129)"/><path class="cls-2" d="M1201.5,2605.5s-46,58-26,74l76,53s47,45,39-16l1-40s-5-22-24-31C1267.5,2645.5,1208.5,2584.5,1201.5,2605.5Z" transform="translate(-261 -129)"/><path class="cls-3" d="M1485.5,2350.5s-54-75,19-103l936-450s69-44,89,11l199,433s17,33-27,52l-987,476s-25,17-41-17Z" transform="translate(-261 -129)"/></g></svg>