<svg id="Layer_1" data-name="Layer 1" xmlns="http://www.w3.org/2000/svg" viewBox="0 0 150 150"><defs><style>.cls-1{fill:#fff;}.cls-2,.cls-3{fill:#e94795;}.cls-3{stroke:#fff;stroke-miterlimit:10;stroke-width:7.19px;}</style></defs><title>tickets</title><g id="tickets"><circle class="cls-1" cx="75" cy="75" r="71.5"/><path class="cls-2" d="M61.25,22s6.34-8.55,12.61-3.64L80.12,23s-7.28,11.13,1.1,15.65c0,0,7.83,6,14.39-3.3l6.9,4.19s7.32,4.45,3.26,10L88,59.34s-2.58.64-1-1.31l2.25-2.84s1.48-2.66-.3-3.93L67.93,36.07a2.94,2.94,0,0,0-4,.71L34,78.89s-3,4,.32,4.93v1.1l-1,.24a9.07,9.07,0,0,0-4.87,9s.21,7.24-2.2,5.46l-8.8-6.86s-2.88-4.27,0-7.87Z"/><path class="cls-3" d="M43.45,80.1,78.2,63.55,84,56.1s1.65-1.48,0-2.75L67.57,41.76s-1.77-1.53-2.75,0l-26.24,37s-2.07,2.58,1,2.87Z"/><path class="cls-2" d="M35.2,105.91l-4.42-9.24s-2-5.46,4.44-8.51L102.8,55.58s8.09-4.66,11.35,0L119,65.27s-10.79,6.94-5.46,15.06a10.59,10.59,0,0,0,13.17,2.37l4.44,8.42s2.07,6.18-4.44,9.61L57.61,134.25s-7.2,2.83-10.33-2.54l-4.27-9s9.09-3.94,6.72-12.4C49.73,110.34,47.24,102,35.2,105.91Z"/><path class="cls-2" d="M43.3,108.31s-1.94,2.45-1.1,3.13l3.22,2.24s2,1.91,1.65-.68l0-1.69a2.08,2.08,0,0,0-1-1.31S43.6,107.42,43.3,108.31Z"/><path class="cls-3" d="M55.32,97.51s-2.28-3.17.81-4.35l39.61-19s2.92-1.86,3.76.47l8.43,18.32s.71,1.4-1.15,2.2L65,115.25s-1.06.72-1.73-.72Z"/></g></svg>