<svg id="Layer_1" data-name="Layer 1" xmlns="http://www.w3.org/2000/svg" viewBox="0 0 150 150"><defs><style>.cls-1{fill:#fff;}.cls-2{fill:#e94795;}</style></defs><title>voice</title><g id="Voice"><circle class="cls-1" cx="75" cy="75" r="73.5"/><path class="cls-2" d="M41.5,14.09S11.66,30,6.57,66.21,26,126.68,31.84,130.42c0,0,.53-18.09,3.92-21.31,0,0,2.31-4.83,11.27-4.83,0,0,15.75,3,16.66-4.31,0,0,.39-2.43-.44-3.65,0,0-.74-1.13,0-1.79,0,0,3-2.26,1.74-4.39L60,87s-1.21-1,.09-1.53c0,0,7.4-1.61,6.4-4.35,0,0-2.31-4.39.43-5.22l3.92-1s2.48-1,2.56-3a5.2,5.2,0,0,0-1.61-3.57s-7.61-7.65-7.52-11l-.09-7.83a36.27,36.27,0,0,0-12-28.45S43.59,13.66,41.5,14.09Z"/><path class="cls-2" d="M96.75,56.34s-4,3.43-1.65,6.91,5.13,5.14,5.26,12.32a15.88,15.88,0,0,1-4.87,11.52S93,92.1,96.36,94a5.35,5.35,0,0,0,7.18-1.52s6.7-7.57,6.44-17.58-7.09-17.4-8.75-18.57C101.23,56.34,98.67,55,96.75,56.34Z"/><path class="cls-2" d="M108.28,45.07s-3.87,2.57-1.44,6.22c0,0,10.66,9.92,10.23,24.32,0,0,.22,13.09-6.22,19.18L108,98.45s-3.79,3.09-.35,6.65,8-.87,9.44-3.08c0,0,11.18-12.88,9.09-30.2,0,0-1.35-18.31-14.23-27.32C111.93,44.5,109.67,43.94,108.28,45.07Z"/><path class="cls-2" d="M120.16,33a5,5,0,0,0-.92,7.13s9.4,8.31,12.49,20.62c0,0,6,12.53-1.39,34.06,0,0-5.57,12.4-10.53,15.45,0,0-3.48,4.52.3,7.52s7.18-.65,7.18-.65,14.58-14.62,16.14-32.71c0,0,3.09-17.54-3.83-31.8s-14-21.54-16.75-20.58A4.84,4.84,0,0,0,120.16,33Z"/></g></svg>