<svg id="Layer_1" data-name="Layer 1" xmlns="http://www.w3.org/2000/svg" viewBox="0 0 3379 3379"><defs><style>.cls-1{fill:#fff;}.cls-2{fill:#e94795;}</style></defs><title>voice</title><g id="Voice"><circle class="cls-1" cx="1689.5" cy="1689.5" r="1689.5"/><path class="cls-2" d="M1182.5,427.5s-686,365-803,1198,446,1390,581,1476c0,0,12-416,90-490,0,0,53-111,259-111,0,0,362,70,383-99,0,0,9-56-10-84,0,0-17-26,1-41,0,0,68-52,40-101l-115-72s-28-22,2-35c0,0,170-37,147-100,0,0-53-101,10-120l90-23s57-23,59-69-37-82-37-82-175-176-173-253l-2-180s37-371-276-654C1428.5,587.5,1230.5,417.5,1182.5,427.5Z" transform="translate(-263 -138)"/><path class="cls-2" d="M2452.5,1398.5s-91,79-38,159,118,118,121,283-112,265-112,265-57,115,20,159,144-2,165-35c0,0,154-174,148-404s-163-400-201-427C2555.5,1398.5,2496.5,1368.5,2452.5,1398.5Z" transform="translate(-263 -138)"/><path class="cls-2" d="M2717.5,1139.5s-89,59-33,143c0,0,245,228,235,559,0,0,5,301-143,441l-66,84s-87,71-8,153,184-20,217-71c0,0,257-296,209-694,0,0-31-421-327-628C2801.5,1126.5,2749.5,1113.5,2717.5,1139.5Z" transform="translate(-263 -138)"/><path class="cls-2" d="M2990.5,861.5s-90,66-21,164c0,0,216,191,287,474,0,0,138,288-32,783,0,0-128,285-242,355,0,0-80,104,7,173s165-15,165-15,335-336,371-752c0,0,71-403-88-731s-323-495-385-473C3052.5,839.5,3010.5,841.5,2990.5,861.5Z" transform="translate(-263 -138)"/></g></svg>